<?xml version="1.0" encoding="UTF-8" standalone="no"?>
<svg
   xmlns:dc="http://purl.org/dc/elements/1.1/"
   xmlns:cc="http://creativecommons.org/ns#"
   xmlns:rdf="http://www.w3.org/1999/02/22-rdf-syntax-ns#"
   xmlns:svg="http://www.w3.org/2000/svg"
   xmlns="http://www.w3.org/2000/svg"
   xmlns:xlink="http://www.w3.org/1999/xlink"
   width="336"
   height="96"
   viewBox="0 0 336 95.999999"
   id="svg2"
   version="1.1">
  <defs
     id="defs4" />
  <metadata
     id="metadata7">
    <rdf:RDF>
      <cc:Work
         rdf:about="">
        <dc:format>image/svg+xml</dc:format>
        <dc:type
           rdf:resource="http://purl.org/dc/dcmitype/StillImage" />
        <dc:title></dc:title>
      </cc:Work>
    </rdf:RDF>
  </metadata>
  <g
     transform="translate(-97.011599,-940.40539)"
     style="display:none"
     id="layer1-6">
    <image
       y="123.79077"
       x="68.571426"
       id="image3344"
       preserveAspectRatio="none"
       height="582.85712"
       width="582.85712"
       xlink:href="file:///home/emanuele/Documenti/GRAPHICS/INKSCAPE/icons/TEST/emant_webpage/old/resources/../img/da.png" />
  </g>
  <g
     transform="translate(-11.83965,-876.95368)"
     id="g4176">
    <g
       transform="rotate(-43.084509,-92.38536,-451.05763)"
       id="g4181">
      <text
         transform="rotate(43.084509)"
         id="text3365"
         y="237.16814"
         x="-511.92953"
         style="font-style:normal;font-variant:normal;font-weight:normal;font-stretch:normal;font-size:12.5px;line-height:125%;font-family:'DejaVu Sans';-inkscape-font-specification:'DejaVu Sans';text-align:center;letter-spacing:0px;word-spacing:0px;text-anchor:middle;fill:#000000;fill-opacity:1;stroke:none;stroke-width:1px;stroke-linecap:butt;stroke-linejoin:miter;stroke-opacity:1"
         xml:space="preserve"><tspan
           y="248.22771"
           x="-511.92953"
           id="tspan3367" /></text>
    </g>
  </g>
  <g
     id="g4720">
    <g
       id="g4315"
       transform="translate(192,48.00001)">
      <g
         transform="translate(60.793283,-7.345855)"
         id="g4235">
        <path
           id="path4280"
           d="m -36.403827,24.346143 c 0.323381,0.0026 0.65352,0.0065 0.948112,0.05302 2.701395,0.426186 5.331037,3.008916 5.669979,5.535869 0.07575,0.564666 0.171389,0.699028 0.39453,0.633117 1.47516,-0.435749 2.662495,-0.184421 3.770631,0.764106 1.39909,1.197578 1.830909,3.120862 1.05415,4.773321 -0.38996,0.829631 -1.339803,1.734425 -2.18784,2.056848 -0.535539,0.203606 -11.612878,0.251016 -11.81245,0.05146 -0.181896,-0.181854 -0.130475,-13.156801 0.05304,-13.446701 0.165592,-0.261582 1.139726,-0.429237 2.109866,-0.421039 z m -4.007666,0.421039 c 0.186724,-0.01206 0.364112,0.07405 0.5536,0.263538 0.249842,0.249811 0.278455,1.046249 0.237018,6.750642 l -0.02647,6.459032 -0.633113,0.05302 c -0.344713,0.02909 -0.721098,-0.03496 -0.843632,-0.1575 -0.16931,-0.169297 -0.237035,-1.73115 -0.237035,-6.460593 0,-5.985689 0.02555,-6.221067 0.369581,-6.565071 0.215675,-0.215664 0.393394,-0.331002 0.580098,-0.343069 z m -5.696476,3.744118 c 0.0839,-0.01259 0.181355,0 0.29004,0 0.255767,0 0.541584,0.09248 0.659629,0.210519 0.305026,0.305022 0.305026,8.739495 0,9.044518 -0.118047,0.118048 -0.403862,0.210519 -0.659629,0.210518 -0.869553,0 -0.895087,-0.136738 -0.895087,-4.745252 0,-4.032449 0.01777,-4.632193 0.605047,-4.720303 z m 2.953498,1.080663 c 0.270668,0 0.547802,0.04725 0.686137,0.185568 0.154298,0.154322 0.210517,1.379364 0.210517,4.297707 0,3.536071 -0.04351,4.070574 -0.290049,4.165156 -0.455852,0.174928 -1.034842,0.126907 -1.266225,-0.10447 -0.304265,-0.304264 -0.304265,-8.054117 0,-8.358382 0.138333,-0.138336 0.388961,-0.185568 0.65962,-0.185568 z m -5.351865,1.952368 c 0.270668,0 0.546245,0.07217 0.684578,0.210521 0.296709,0.296704 0.296709,4.475056 0,4.771761 -0.259768,0.259775 -0.838694,0.248109 -1.264667,0 -0.271155,-0.157923 -0.316557,-0.473835 -0.316557,-2.371847 0,-1.465662 0.06686,-2.256344 0.210519,-2.399914 0.138333,-0.138339 0.415468,-0.210521 0.686127,-0.210521 z"
           style="opacity:1;fill:#ffffff;fill-opacity:1;fill-rule:evenodd;stroke:none;stroke-width:2;stroke-linecap:round;stroke-linejoin:bevel;stroke-miterlimit:4;stroke-dasharray:none;stroke-opacity:1" />
        <g
           id="g4219">
          <path
             id="path4282"
             d="m -60.293288,7.845857 v 46.999998 h 47.00001 V 7.845857 Z m 2.5,2.5 h 42.00001 v 41.999998 h -42.00001 z"
             style="opacity:1;fill:#ffffff;fill-opacity:1;fill-rule:evenodd;stroke:none;stroke-width:0.1;stroke-linecap:round;stroke-linejoin:bevel;stroke-miterlimit:4;stroke-dasharray:none;stroke-opacity:1" />
          <rect
             y="47.386444"
             x="-55.252693"
             height="2.4188225"
             width="36.918823"
             id="rect4197"
             style="opacity:1;fill:#ffffff;fill-opacity:1;fill-rule:evenodd;stroke:#ffffff;stroke-width:0.08117731;stroke-linecap:round;stroke-linejoin:bevel;stroke-miterlimit:4;stroke-dasharray:none;stroke-opacity:1" />
        </g>
      </g>
      <g
         transform="translate(0.506611,0.381321)"
         id="g4303">
        <path
           style="opacity:1;fill:#ffffff;fill-opacity:1;fill-rule:evenodd;stroke:none;stroke-width:2;stroke-linecap:round;stroke-linejoin:bevel;stroke-miterlimit:4;stroke-dasharray:none;stroke-opacity:1"
           d="m 23.882845,-31.381033 c 0.323381,0.0026 0.65352,0.0065 0.948112,0.05302 2.701395,0.426186 5.331037,3.008916 5.669979,5.535869 0.07575,0.564666 0.171389,0.699028 0.39453,0.633117 1.47516,-0.435749 2.662495,-0.184421 3.770631,0.764106 1.39909,1.197578 1.830909,3.120862 1.05415,4.773321 -0.38996,0.829631 -1.339803,1.734425 -2.18784,2.056848 -0.535539,0.203606 -11.612878,0.251016 -11.81245,0.05146 -0.181896,-0.181854 -0.130475,-13.156801 0.05304,-13.446701 0.165592,-0.261582 1.139726,-0.429237 2.109866,-0.421039 z m -4.007666,0.421039 c 0.186724,-0.01206 0.364112,0.07405 0.5536,0.263538 0.249842,0.249811 0.278455,1.046249 0.237018,6.750642 l -0.02647,6.459032 -0.633113,0.05302 c -0.344713,0.02909 -0.721098,-0.03496 -0.843632,-0.1575 -0.16931,-0.169297 -0.237035,-1.73115 -0.237035,-6.460593 0,-5.985689 0.02555,-6.221067 0.369581,-6.565071 0.215675,-0.215664 0.393394,-0.331002 0.580098,-0.343069 z m -5.696476,3.744118 c 0.0839,-0.01259 0.181355,0 0.29004,0 0.255767,0 0.541584,0.09248 0.659629,0.210519 0.305026,0.305022 0.305026,8.739495 0,9.044518 -0.118047,0.118048 -0.403862,0.210519 -0.659629,0.210518 -0.869553,0 -0.895087,-0.136738 -0.895087,-4.745252 0,-4.032449 0.01777,-4.632193 0.605047,-4.720303 z m 2.953498,1.080663 c 0.270668,0 0.547802,0.04725 0.686137,0.185568 0.154298,0.154322 0.210517,1.379364 0.210517,4.297707 0,3.536071 -0.04351,4.070574 -0.290049,4.165156 -0.455852,0.174928 -1.034842,0.126907 -1.266225,-0.10447 -0.304265,-0.304264 -0.304265,-8.054117 0,-8.358382 0.138333,-0.138336 0.388961,-0.185568 0.65962,-0.185568 z m -5.351865,1.952368 c 0.270668,0 0.546245,0.07217 0.684578,0.210521 0.296709,0.296704 0.296709,4.475056 0,4.771761 -0.259768,0.259775 -0.838694,0.248109 -1.264667,0 -0.271155,-0.157923 -0.316557,-0.473835 -0.316557,-2.371847 0,-1.465662 0.06686,-2.256344 0.210519,-2.399914 0.138333,-0.138339 0.415468,-0.210521 0.686127,-0.210521 z"
           id="path4256" />
        <path
           id="path4260"
           d="m -0.006616,-47.881319 v 46.999998 h 47.00001 v -46.999998 z m 2.5,2.5 h 42.00001 V -3.381321 H 2.493384 Z"
           style="opacity:1;fill:#ffffff;fill-opacity:1;fill-rule:evenodd;stroke:none;stroke-width:0.1;stroke-linecap:round;stroke-linejoin:bevel;stroke-miterlimit:4;stroke-dasharray:none;stroke-opacity:1" />
      </g>
    </g>
    <g
       id="g4298"
       transform="translate(-57.97232,-245.91009)">
      <path
         style="fill:#ffffff;fill-opacity:1"
         d="m 119.27982,281.6068 c 0.21851,-0.14808 0.36318,-0.41428 0.36318,-0.66826 0,-0.35664 -0.18105,-0.62685 -0.96186,-1.43567 -0.81036,-0.83943 -1.31683,-1.45002 -1.75172,-2.11188 -1.14077,-1.73613 -1.77176,-3.49094 -2.08239,-5.79115 -0.0658,-0.48793 -0.0832,-0.91376 -0.082,-2.01609 9.7e-4,-1.22234 0.0146,-1.48084 0.10559,-2.06194 0.3087,-1.97181 0.92189,-3.5802 1.95516,-5.12856 0.44762,-0.67078 0.84431,-1.14501 1.67121,-1.99794 0.41611,-0.42918 0.83683,-0.8976 0.93496,-1.04091 0.30227,-0.44149 0.27516,-0.83957 -0.0752,-1.10467 -0.55495,-0.41983 -1.20792,-0.15449 -2.28092,0.92695 -0.71179,0.71738 -1.23945,1.37158 -1.87099,2.31973 -1.22264,1.83557 -1.94984,3.73331 -2.28254,5.95667 -0.10383,0.69385 -0.1192,3.33272 -0.0239,4.10095 0.34549,2.78468 1.12432,4.98176 2.4851,7.01054 1.14886,1.71284 2.36907,2.93 3.15266,3.1448 0.27223,0.0745 0.53589,0.0382 0.74371,-0.10262 z m 22.39435,-0.0137 c 0.61248,-0.3092 1.60458,-1.30058 2.51689,-2.51512 1.28054,-1.70475 2.1661,-3.61953 2.60023,-5.62236 0.55828,-2.57565 0.37272,-5.84805 -0.48028,-8.46999 -0.53932,-1.65771 -1.38495,-3.2615 -2.45122,-4.64879 -0.54494,-0.70905 -1.64783,-1.81211 -2.03444,-2.03476 -0.53459,-0.30789 -0.9363,-0.31866 -1.26077,-0.0337 -0.19393,0.17025 -0.30232,0.39462 -0.30232,0.62575 0,0.31515 0.20579,0.63374 0.82296,1.27403 0.71263,0.73935 1.09837,1.17643 1.45537,1.6491 1.35372,1.79234 2.19705,3.92231 2.51267,6.34615 0.10036,0.77 0.13873,2.62869 0.0698,3.37732 -0.15348,1.66898 -0.53364,3.08725 -1.18876,4.43509 -0.62796,1.29192 -1.28338,2.20029 -2.47599,3.4316 -0.97323,1.0048 -1.17321,1.27962 -1.17321,1.61223 0,0.28541 0.15036,0.50786 0.44463,0.65783 0.2604,0.13274 0.56897,0.10515 0.94436,-0.0844 z m -2.6461,-1.73405 c 0.72848,-0.36942 0.75953,-1.37053 0.0553,-1.78447 l -0.21866,-0.12854 h -8.29714 -8.29711 l -0.2243,0.13868 c -0.13559,0.0838 -0.27689,0.22371 -0.35725,0.3537 -0.32957,0.53306 -0.0667,1.26874 0.53094,1.48547 0.11278,0.0409 2.16172,0.055 8.35455,0.0576 l 8.20512,0.003 0.24849,-0.126 z m -9.71693,-3.72293 c 0.17659,-0.1766 0.0669,-0.36498 -0.27845,-0.47792 -1.00845,-0.32985 -1.74026,-1.59998 -1.73654,-3.01397 6e-4,-0.23417 0.0226,-0.51855 0.0486,-0.63196 0.13316,-0.57824 0.53512,-1.09815 1.41779,-1.83389 0.63702,-0.53096 0.84298,-0.76505 1.04583,-1.18866 0.14286,-0.29839 0.16611,-0.39579 0.18219,-0.76276 0.0226,-0.51554 -0.0521,-0.77347 -0.31678,-1.0937 -0.16717,-0.20228 -0.17879,-0.23165 -0.11114,-0.2811 0.10481,-0.0767 0.30963,-0.011 0.6105,0.19641 0.48798,0.33609 0.90175,0.95091 1.01853,1.51346 0.0456,0.21957 0.0415,0.33633 -0.0252,0.71563 -0.1604,0.91314 -0.0166,1.50035 0.43204,1.76322 0.39931,0.23402 1.07396,0.13166 1.39618,-0.21185 0.19498,-0.20786 0.20823,-0.47982 0.0505,-1.03595 -0.069,-0.24332 -0.11376,-0.45418 -0.0994,-0.46855 0.0524,-0.0525 0.35168,0.17824 0.50899,0.39254 0.5308,0.72308 0.77482,1.80451 0.60124,2.6645 -0.16064,0.79599 -0.48433,1.3519 -1.26759,2.17698 -0.49472,0.52115 -0.54884,0.61543 -0.47054,0.81949 0.0345,0.0899 0.25207,0.20823 0.38296,0.20823 0.29091,0 1.26066,-0.66499 1.90433,-1.30587 1.3458,-1.33999 1.93034,-3.02473 1.76465,-5.08609 -0.1568,-1.95123 -0.74077,-3.22171 -2.1131,-4.5973 -0.7287,-0.73042 -1.2085,-1.03267 -1.39443,-0.87835 -0.12558,0.10426 -0.0763,0.33521 0.17897,0.83745 0.55337,1.08909 0.44265,1.72334 -0.31573,1.80881 -0.15618,0.0176 -0.21371,-1.7e-4 -0.33714,-0.10405 -0.29777,-0.25056 -0.41627,-0.62405 -0.69118,-2.17855 -0.20716,-1.17134 -0.33712,-1.62863 -0.63076,-2.21936 -0.60049,-1.20809 -1.7034,-2.07772 -3.10707,-2.44987 -0.65246,-0.17297 -1.26586,-0.11012 -1.40166,0.14364 -0.0764,0.14267 -0.007,0.25386 0.30686,0.48997 0.86188,0.64892 1.28923,1.62672 1.16164,2.65795 -0.11851,0.95782 -0.48568,1.70451 -2.1547,4.38185 -0.75853,1.21681 -1.17877,2.1478 -1.32974,2.9459 -0.0766,0.40483 -0.0278,1.44176 0.0901,1.91518 0.47207,1.89593 1.95631,3.45019 3.95727,4.14391 0.45316,0.15712 0.60035,0.16621 0.72199,0.0446 z"
         id="path4232" />
      <g
         id="g4261"
         transform="translate(166.76561,286.56426)">
        <path
           id="path4263"
           d="m -60.293288,7.845857 v 46.999998 h 47.00001 V 7.845857 Z m 2.5,2.5 h 42.00001 v 41.999998 h -42.00001 z"
           style="opacity:1;fill:#ffffff;fill-opacity:1;fill-rule:evenodd;stroke:none;stroke-width:0.1;stroke-linecap:round;stroke-linejoin:bevel;stroke-miterlimit:4;stroke-dasharray:none;stroke-opacity:1" />
        <rect
           y="47.386444"
           x="-55.252693"
           height="2.4188225"
           width="36.918823"
           id="rect4265"
           style="opacity:1;fill:#ffffff;fill-opacity:1;fill-rule:evenodd;stroke:#ffffff;stroke-width:0.08117731;stroke-linecap:round;stroke-linejoin:bevel;stroke-miterlimit:4;stroke-dasharray:none;stroke-opacity:1" />
      </g>
      <path
         id="path4271"
         d="m 106.47232,246.4101 v 47 h 47.00001 v -47 z m 2.5,2.5 h 42.00001 v 42 h -42.00001 z"
         style="opacity:1;fill:#ffffff;fill-opacity:1;fill-rule:evenodd;stroke:none;stroke-width:0.1;stroke-linecap:round;stroke-linejoin:bevel;stroke-miterlimit:4;stroke-dasharray:none;stroke-opacity:1" />
      <path
         id="path4296"
         d="m 119.27982,329.60682 c 0.21851,-0.14808 0.36318,-0.41428 0.36318,-0.66826 0,-0.35664 -0.18105,-0.62685 -0.96186,-1.43567 -0.81036,-0.83943 -1.31683,-1.45002 -1.75172,-2.11188 -1.14077,-1.73613 -1.77176,-3.49094 -2.08239,-5.79115 -0.0658,-0.48793 -0.0832,-0.91376 -0.082,-2.01609 9.7e-4,-1.22234 0.0146,-1.48084 0.10559,-2.06194 0.3087,-1.97181 0.92189,-3.5802 1.95516,-5.12856 0.44762,-0.67078 0.84431,-1.14501 1.67121,-1.99794 0.41611,-0.42918 0.83683,-0.8976 0.93496,-1.04091 0.30227,-0.44149 0.27516,-0.83957 -0.0752,-1.10467 -0.55495,-0.41983 -1.20792,-0.15449 -2.28092,0.92695 -0.71179,0.71738 -1.23945,1.37158 -1.87099,2.31973 -1.22264,1.83557 -1.94984,3.73331 -2.28254,5.95667 -0.10383,0.69385 -0.1192,3.33272 -0.0239,4.10095 0.34549,2.78468 1.12432,4.98176 2.4851,7.01054 1.14886,1.71284 2.36907,2.93 3.15266,3.1448 0.27223,0.0745 0.53589,0.0382 0.74371,-0.10262 z m 22.39435,-0.0137 c 0.61248,-0.3092 1.60458,-1.30058 2.51689,-2.51512 1.28054,-1.70475 2.1661,-3.61953 2.60023,-5.62236 0.55828,-2.57565 0.37272,-5.84805 -0.48028,-8.46999 -0.53932,-1.65771 -1.38495,-3.2615 -2.45122,-4.64879 -0.54494,-0.70905 -1.64783,-1.81211 -2.03444,-2.03476 -0.53459,-0.30789 -0.9363,-0.31866 -1.26077,-0.0337 -0.19393,0.17025 -0.30232,0.39462 -0.30232,0.62575 0,0.31515 0.20579,0.63374 0.82296,1.27403 0.71263,0.73935 1.09837,1.17643 1.45537,1.6491 1.35372,1.79234 2.19705,3.92231 2.51267,6.34615 0.10036,0.77 0.13873,2.62869 0.0698,3.37732 -0.15348,1.66898 -0.53364,3.08725 -1.18876,4.43509 -0.62796,1.29192 -1.28338,2.20029 -2.47599,3.4316 -0.97323,1.0048 -1.17321,1.27962 -1.17321,1.61223 0,0.28541 0.15036,0.50786 0.44463,0.65783 0.2604,0.13274 0.56897,0.10515 0.94436,-0.0844 z m -2.6461,-1.73405 c 0.72848,-0.36942 0.75953,-1.37053 0.0553,-1.78447 l -0.21866,-0.12854 h -8.29714 -8.29711 l -0.2243,0.13868 c -0.13559,0.0838 -0.27689,0.22371 -0.35725,0.3537 -0.32957,0.53306 -0.0667,1.26874 0.53094,1.48547 0.11278,0.0409 2.16172,0.055 8.35455,0.0576 l 8.20512,0.003 0.24849,-0.126 z m -9.71693,-3.72293 c 0.17659,-0.1766 0.0669,-0.36498 -0.27845,-0.47792 -1.00845,-0.32985 -1.74026,-1.59998 -1.73654,-3.01397 6e-4,-0.23417 0.0226,-0.51855 0.0486,-0.63196 0.13316,-0.57824 0.53512,-1.09815 1.41779,-1.83389 0.63702,-0.53096 0.84298,-0.76505 1.04583,-1.18866 0.14286,-0.29839 0.16611,-0.39579 0.18219,-0.76276 0.0226,-0.51554 -0.0521,-0.77347 -0.31678,-1.0937 -0.16717,-0.20228 -0.17879,-0.23165 -0.11114,-0.2811 0.10481,-0.0767 0.30963,-0.011 0.6105,0.19641 0.48798,0.33609 0.90175,0.95091 1.01853,1.51346 0.0456,0.21957 0.0415,0.33633 -0.0252,0.71563 -0.1604,0.91314 -0.0166,1.50035 0.43204,1.76322 0.39931,0.23402 1.07396,0.13166 1.39618,-0.21185 0.19498,-0.20786 0.20823,-0.47982 0.0505,-1.03595 -0.069,-0.24332 -0.11376,-0.45418 -0.0994,-0.46855 0.0524,-0.0525 0.35168,0.17824 0.50899,0.39254 0.5308,0.72308 0.77482,1.80451 0.60124,2.6645 -0.16064,0.79599 -0.48433,1.3519 -1.26759,2.17698 -0.49472,0.52115 -0.54884,0.61543 -0.47054,0.81949 0.0345,0.0899 0.25207,0.20823 0.38296,0.20823 0.29091,0 1.26066,-0.66499 1.90433,-1.30587 1.3458,-1.33999 1.93034,-3.02473 1.76465,-5.08609 -0.1568,-1.95123 -0.74077,-3.22171 -2.1131,-4.5973 -0.7287,-0.73042 -1.2085,-1.03267 -1.39443,-0.87835 -0.12558,0.10426 -0.0763,0.33521 0.17897,0.83745 0.55337,1.08909 0.44265,1.72334 -0.31573,1.80881 -0.15618,0.0176 -0.21371,-1.7e-4 -0.33714,-0.10405 -0.29777,-0.25056 -0.41627,-0.62405 -0.69118,-2.17855 -0.20716,-1.17134 -0.33712,-1.62863 -0.63076,-2.21936 -0.60049,-1.20809 -1.7034,-2.07772 -3.10707,-2.44987 -0.65246,-0.17297 -1.26586,-0.11012 -1.40166,0.14364 -0.0764,0.14267 -0.007,0.25386 0.30686,0.48997 0.86188,0.64892 1.28923,1.62672 1.16164,2.65795 -0.11851,0.95782 -0.48568,1.70451 -2.1547,4.38185 -0.75853,1.21681 -1.17877,2.1478 -1.32974,2.9459 -0.0766,0.40483 -0.0278,1.44176 0.0901,1.91518 0.47207,1.89593 1.95631,3.45019 3.95727,4.14391 0.45316,0.15712 0.60035,0.16621 0.72199,0.0446 z"
         style="fill:#ffffff;fill-opacity:1" />
    </g>
    <g
       id="g4328"
       transform="translate(144,-956.36214)">
      <g
         id="g4323">
        <path
           style="fill:#ffffff;fill-opacity:1"
           d="m 16.782508,989.29807 c -3.778167,-2.51025 -6.9716862,-4.69424 -7.0966942,-4.85329 -0.3203404,-0.40761 -0.3150241,-9.81787 0.0059,-10.23733 0.3795472,-0.49624 13.9404582,-9.43838 14.3134782,-9.43838 0.369613,0 13.923815,8.91424 14.319257,9.4174 0.168897,0.21489 0.22729,1.53266 0.22729,5.12915 0,3.59732 -0.05833,4.91381 -0.22729,5.1276 -0.403596,0.51078 -13.939666,9.41895 -14.312201,9.41895 -0.19812,0 -3.451445,-2.05385 -7.22962,-4.5641 z m 5.949739,-1.97894 v -2.90639 l -2.70566,-1.80955 -2.705666,-1.80955 -1.9754,1.36005 c -1.086469,0.74801 -2.046799,1.43143 -2.13407,1.51869 -0.09034,0.0903 1.905752,1.53557 4.635065,3.3559 2.636555,1.7585 4.814435,3.19725 4.839736,3.19725 0.02531,0 0.04597,-1.30788 0.04597,-2.9064 z m 7.591483,-0.40215 c 2.525189,-1.68248 4.589467,-3.11966 4.58729,-3.1937 -0.002,-0.074 -0.955119,-0.76206 -2.11765,-1.52894 l -2.113693,-1.39433 -2.700888,1.80636 -2.700893,1.80637 v 2.91712 c 0,2.28473 0.04924,2.88776 0.227292,2.78166 0.125006,-0.0745 2.293353,-1.51204 4.818542,-3.19454 z m -4.102224,-6.10124 c 1.177317,-0.77505 2.14057,-1.45012 2.14057,-1.50012 0,-0.05 -0.980327,-0.73636 -2.178502,-1.52521 l -2.178503,-1.43432 -2.178501,1.43432 c -1.198175,0.78885 -2.17828,1.4752 -2.178019,1.52521 5.83e-4,0.0953 4.204397,2.90668 4.348994,2.90836 0.0459,0 1.046653,-0.63319 2.223961,-1.40824 z m -12.262642,-0.73877 c 0.525039,-0.34707 0.954616,-0.68966 0.954616,-0.76135 0,-0.11464 -0.593464,-0.53761 -2.409272,-1.71715 l -0.500034,-0.32483 v 2.04198 2.04197 l 0.500034,-0.32482 c 0.275019,-0.17865 0.929617,-0.60878 1.454656,-0.9558 z m 22.010723,-1.76136 -0.05453,-1.00001 -1.363738,0.90797 c -0.750055,0.49939 -1.363737,0.9908 -1.363737,1.09205 0,0.10125 0.613682,0.59268 1.363737,1.09205 l 1.363738,0.90797 0.05453,-1.00001 c 0.03002,-0.55002 0.03002,-1.45001 0,-2.00002 z m -13.23734,-7.01424 c 0,-2.28473 -0.04924,-2.88776 -0.227284,-2.78166 -1.250946,0.7456 -9.408841,6.28626 -9.405839,6.38824 0.002,0.074 0.955126,0.76208 2.11765,1.52894 l 2.113693,1.39433 2.700893,-1.80636 2.700887,-1.80634 z m 10.519019,4.8322 c 0.911903,-0.60005 1.659297,-1.15158 1.660866,-1.22562 0.002,-0.10203 -8.161139,-5.6457 -9.406944,-6.38824 -0.178019,-0.10604 -0.227292,0.49692 -0.227292,2.78155 v 2.91702 l 2.682016,1.80237 c 2.663136,1.78971 2.685369,1.80029 3.157685,1.50315 0.261607,-0.16459 1.221761,-0.79019 2.133669,-1.39023 z"
           id="path4151-5" />
        <path
           id="path4291"
           d="m 0.5,956.86215 v 46.99995 h 47.00001 v -46.99995 z m 2.5,2.5 h 42.00001 v 41.99995 H 3 Z"
           style="opacity:1;fill:#ffffff;fill-opacity:1;fill-rule:evenodd;stroke:none;stroke-width:0.1;stroke-linecap:round;stroke-linejoin:bevel;stroke-miterlimit:4;stroke-dasharray:none;stroke-opacity:1" />
        <path
           style="opacity:1;fill:#ffffff;fill-opacity:1;fill-rule:evenodd;stroke:none;stroke-width:0.1;stroke-linecap:round;stroke-linejoin:bevel;stroke-miterlimit:4;stroke-dasharray:none;stroke-opacity:1"
           d="m 0.5,956.86215 v 46.99995 h 47.00001 v -46.99995 z m 2.5,2.5 h 42.00001 v 41.99995 H 3 Z"
           id="path4313" />
      </g>
      <g
         id="g4317">
        <g
           id="g4285"
           transform="translate(60.79329,997.01631)">
          <path
             id="path4287"
             d="m -60.293288,7.845857 v 46.999998 h 47.00001 V 7.845857 Z m 2.5,2.5 h 42.00001 v 41.999998 h -42.00001 z"
             style="opacity:1;fill:#ffffff;fill-opacity:1;fill-rule:evenodd;stroke:none;stroke-width:0.1;stroke-linecap:round;stroke-linejoin:bevel;stroke-miterlimit:4;stroke-dasharray:none;stroke-opacity:1" />
          <rect
             y="47.386444"
             x="-55.252693"
             height="2.4188225"
             width="36.918823"
             id="rect4289"
             style="opacity:1;fill:#ffffff;fill-opacity:1;fill-rule:evenodd;stroke:#ffffff;stroke-width:0.08117731;stroke-linecap:round;stroke-linejoin:bevel;stroke-miterlimit:4;stroke-dasharray:none;stroke-opacity:1" />
        </g>
        <path
           style="fill:#ffffff;fill-opacity:1"
           d="m 16.78251,1037.2981 c -3.778167,-2.5103 -6.9716865,-4.6943 -7.0966945,-4.8533 -0.3203404,-0.4076 -0.3150241,-9.8179 0.0059,-10.2373 0.3795475,-0.4963 13.9404585,-9.4384 14.3134785,-9.4384 0.369613,0 13.923815,8.9142 14.319257,9.4174 0.168897,0.2149 0.22729,1.5326 0.22729,5.1291 0,3.5973 -0.05833,4.9138 -0.22729,5.1276 -0.403596,0.5108 -13.939666,9.419 -14.312201,9.419 -0.19812,0 -3.451445,-2.0539 -7.22962,-4.5641 z m 5.949739,-1.979 v -2.9064 l -2.70566,-1.8095 -2.705666,-1.8096 -1.9754,1.3601 c -1.086469,0.748 -2.046799,1.4314 -2.13407,1.5187 -0.09034,0.09 1.905752,1.5356 4.635065,3.3559 2.636555,1.7585 4.814435,3.1972 4.839736,3.1972 0.02531,0 0.04597,-1.3078 0.04597,-2.9064 z m 7.591483,-0.4021 c 2.525189,-1.6825 4.589467,-3.1197 4.58729,-3.1937 -0.002,-0.074 -0.955119,-0.7621 -2.11765,-1.529 l -2.113693,-1.3943 -2.700888,1.8064 -2.700893,1.8063 v 2.9172 c 0,2.2847 0.04924,2.8877 0.227292,2.7816 0.125006,-0.074 2.293353,-1.512 4.818542,-3.1945 z m -4.102224,-6.1013 c 1.177317,-0.775 2.14057,-1.4501 2.14057,-1.5001 0,-0.05 -0.980327,-0.7363 -2.178502,-1.5252 l -2.178503,-1.4343 -2.178501,1.4343 c -1.198175,0.7889 -2.17828,1.4752 -2.178019,1.5252 5.83e-4,0.095 4.204397,2.9067 4.348994,2.9084 0.0459,0 1.046653,-0.6332 2.223961,-1.4083 z m -12.262642,-0.7387 c 0.525039,-0.3471 0.954616,-0.6897 0.954616,-0.7614 0,-0.1146 -0.593464,-0.5376 -2.409272,-1.7171 l -0.500034,-0.3249 v 2.042 2.042 l 0.500034,-0.3248 c 0.275019,-0.1787 0.929617,-0.6088 1.454656,-0.9558 z m 22.010723,-1.7614 -0.05453,-1 -1.363738,0.908 c -0.750055,0.4994 -1.363737,0.9908 -1.363737,1.092 0,0.1013 0.613682,0.5927 1.363737,1.0921 l 1.363738,0.9079 0.05453,-1 c 0.03002,-0.55 0.03002,-1.45 0,-2 z m -13.23734,-7.0142 c 0,-2.2848 -0.04924,-2.8878 -0.227284,-2.7817 -1.250946,0.7456 -9.408841,6.2863 -9.405839,6.3883 0.002,0.074 0.955126,0.762 2.11765,1.5289 l 2.113693,1.3943 2.700893,-1.8063 2.700887,-1.8064 z m 10.519019,4.8322 c 0.911903,-0.6001 1.659297,-1.1516 1.660866,-1.2256 0.002,-0.1021 -8.161139,-5.6457 -9.406944,-6.3883 -0.178019,-0.106 -0.227292,0.4969 -0.227292,2.7816 v 2.917 l 2.682016,1.8024 c 2.663136,1.7897 2.685369,1.8002 3.157685,1.5031 0.261607,-0.1646 1.221761,-0.7902 2.133669,-1.3902 z"
           id="path4315" />
      </g>
    </g>
    <g
       id="g4346"
       transform="translate(-28.42857,-992.79075)">
      <g
         id="g4336">
        <path
           style="fill:#ffffff;fill-opacity:1;fill-rule:evenodd;stroke:none"
           d="m 329.32515,1008.1013 h 22.20656 c 0.0804,0.045 0.15087,0.058 0.21121,0.038 0.0604,-0.02 0.10584,0.018 0.13602,0.1133 0.0301,0.096 0.0576,0.1402 0.0828,0.1351 0.0252,-0.01 0.0398,0.058 0.0447,0.1893 l 0.008,0.196 v 0.3692 c 0,0.5934 -0.23357,1.2546 -0.70124,1.9838 -0.46767,0.7291 -0.9726,1.3105 -1.5157,1.7429 -1.94107,1.5287 -3.95818,3.1225 -6.05011,4.782 -0.0604,0.05 -0.23638,0.1988 -0.52804,0.4453 -0.29166,0.2464 -0.52267,0.4344 -0.69363,0.5652 -0.17099,0.1307 -0.3951,0.2896 -0.67168,0.4756 -0.27658,0.186 -0.52992,0.3243 -0.76123,0.4149 -0.23132,0.091 -0.44771,0.1359 -0.64886,0.1359 h -0.0304 c -0.20114,0 -0.41754,-0.045 -0.64886,-0.1359 -0.23131,-0.091 -0.48465,-0.2289 -0.76122,-0.4149 -0.27659,-0.186 -0.5007,-0.3449 -0.67168,-0.4756 -0.17096,-0.1308 -0.40198,-0.3188 -0.69363,-0.5652 -0.29166,-0.2465 -0.4677,-0.395 -0.52805,-0.4453 -2.09192,-1.6595 -4.10904,-3.2533 -6.05011,-4.782 -1.47842,-1.1667 -2.21694,-2.5947 -2.21694,-4.2843 0,-0.1307 0.0473,-0.2441 0.14278,-0.3397 0.0956,-0.096 0.20889,-0.1436 0.33964,-0.1436 z m -0.48243,5.31 c 0.32184,0.362 0.66876,0.6944 1.04089,0.9961 2.69536,2.0718 4.83702,3.7712 6.42607,5.0988 0.51292,0.4325 0.93027,0.7699 1.25209,1.0113 0.32185,0.2414 0.75721,0.4853 1.30534,0.7317 0.54812,0.2463 1.06334,0.3692 1.54611,0.3692 h 0.0304 c 0.48275,0 0.99799,-0.1229 1.54611,-0.3692 0.54812,-0.2464 0.98348,-0.4903 1.30532,-0.7317 0.32183,-0.2414 0.73918,-0.5788 1.2521,-1.0113 1.58905,-1.3276 3.73071,-3.027 6.42608,-5.0988 0.37212,-0.3017 0.71904,-0.6341 1.04088,-0.9961 v 11.5866 c -2e-5,0.1307 -0.0473,0.2441 -0.14278,0.3395 -0.0956,0.096 -0.20891,0.1429 -0.33964,0.1429 h -22.20656 c -0.13074,0 -0.24408,-0.048 -0.33963,-0.1429 -0.0956,-0.095 -0.14279,-0.2088 -0.14279,-0.3395 v -11.5866 z"
           id="path2987-2" />
        <path
           id="path4318"
           d="m 316.92857,993.29076 v 47.00004 h 47.00001 v -47.00004 z m 2.5,2.5 h 42.00001 v 42.00004 h -42.00001 z"
           style="opacity:1;fill:#ffffff;fill-opacity:1;fill-rule:evenodd;stroke:none;stroke-width:0.1;stroke-linecap:round;stroke-linejoin:bevel;stroke-miterlimit:4;stroke-dasharray:none;stroke-opacity:1" />
      </g>
      <g
         id="g4340">
        <g
           transform="translate(377.22186,1033.4449)"
           id="g4308">
          <path
             id="path4310"
             d="m -60.293288,7.845857 v 46.999998 h 47.00001 V 7.845857 Z m 2.5,2.5 h 42.00001 v 41.999998 h -42.00001 z"
             style="opacity:1;fill:#ffffff;fill-opacity:1;fill-rule:evenodd;stroke:none;stroke-width:0.1;stroke-linecap:round;stroke-linejoin:bevel;stroke-miterlimit:4;stroke-dasharray:none;stroke-opacity:1" />
          <rect
             y="47.386444"
             x="-55.252693"
             height="2.4188225"
             width="36.918823"
             id="rect4312"
             style="opacity:1;fill:#ffffff;fill-opacity:1;fill-rule:evenodd;stroke:#ffffff;stroke-width:0.08117731;stroke-linecap:round;stroke-linejoin:bevel;stroke-miterlimit:4;stroke-dasharray:none;stroke-opacity:1" />
        </g>
        <path
           id="path4334"
           d="m 329.32515,1056.1013 h 22.20656 c 0.0804,0.045 0.15087,0.058 0.21121,0.038 0.0604,-0.02 0.10584,0.018 0.13602,0.1133 0.0301,0.096 0.0576,0.1402 0.0828,0.1351 0.0252,-0.01 0.0398,0.058 0.0447,0.1893 l 0.008,0.196 v 0.3692 c 0,0.5934 -0.23357,1.2546 -0.70124,1.9838 -0.46767,0.7291 -0.9726,1.3105 -1.5157,1.7429 -1.94107,1.5287 -3.95818,3.1225 -6.05011,4.782 -0.0604,0.05 -0.23638,0.1988 -0.52804,0.4453 -0.29166,0.2464 -0.52267,0.4344 -0.69363,0.5652 -0.17099,0.1307 -0.3951,0.2896 -0.67168,0.4756 -0.27658,0.186 -0.52992,0.3243 -0.76123,0.4149 -0.23132,0.091 -0.44771,0.1359 -0.64886,0.1359 h -0.0304 c -0.20114,0 -0.41754,-0.045 -0.64886,-0.1359 -0.23131,-0.091 -0.48465,-0.2289 -0.76122,-0.4149 -0.27659,-0.186 -0.5007,-0.3449 -0.67168,-0.4756 -0.17096,-0.1308 -0.40198,-0.3188 -0.69363,-0.5652 -0.29166,-0.2465 -0.4677,-0.395 -0.52805,-0.4453 -2.09192,-1.6595 -4.10904,-3.2533 -6.05011,-4.782 -1.47842,-1.1667 -2.21694,-2.5947 -2.21694,-4.2843 0,-0.1307 0.0473,-0.2441 0.14278,-0.3397 0.0956,-0.096 0.20889,-0.1436 0.33964,-0.1436 z m -0.48243,5.31 c 0.32184,0.362 0.66876,0.6944 1.04089,0.9961 2.69536,2.0718 4.83702,3.7712 6.42607,5.0988 0.51292,0.4325 0.93027,0.7699 1.25209,1.0113 0.32185,0.2414 0.75721,0.4853 1.30534,0.7317 0.54812,0.2463 1.06334,0.3692 1.54611,0.3692 h 0.0304 c 0.48275,0 0.99799,-0.1229 1.54611,-0.3692 0.54812,-0.2464 0.98348,-0.4903 1.30532,-0.7317 0.32183,-0.2414 0.73918,-0.5788 1.2521,-1.0113 1.58905,-1.3276 3.73071,-3.027 6.42608,-5.0988 0.37212,-0.3017 0.71904,-0.6341 1.04088,-0.9961 v 11.5866 c -2e-5,0.1307 -0.0473,0.2441 -0.14278,0.3395 -0.0956,0.096 -0.20891,0.1429 -0.33964,0.1429 h -22.20656 c -0.13074,0 -0.24408,-0.048 -0.33963,-0.1429 -0.0956,-0.095 -0.14279,-0.2088 -0.14279,-0.3395 v -11.5866 z"
           style="fill:#ffffff;fill-opacity:1;fill-rule:evenodd;stroke:none" />
      </g>
    </g>
    <g
       id="g4815"
       transform="translate(-81.35603,-573.57807)">
      <g
         id="g4808">
        <path
           style="fill:#ffffff;fill-opacity:1"
           d="m 100.41712,611.01234 c -2.769044,-1.02939 -5.181454,-2.93771 -6.835644,-5.40729 -0.53376,-0.79685 -1.33193,-2.43532 -1.62601,-3.33791 -0.92792,-2.84784 -0.92566,-5.84002 0.007,-8.67303 1.74258,-5.29569 6.4527,-9.0329 12.075194,-9.58094 4.14505,-0.40404 8.36416,1.11904 11.33813,4.093 2.91569,2.91569 4.41678,7.08016 4.00912,11.1226 -0.0969,0.95939 -0.35528,2.20006 -0.63667,3.05551 -0.29338,0.89189 -1.09588,2.53393 -1.62295,3.32077 -1.413,2.1095 -3.27924,3.73804 -5.5417,4.83585 -1.60596,0.77928 -2.19752,0.91249 -2.53867,0.57167 -0.1369,-0.1369 -0.14192,-0.21195 -0.17605,-2.70136 -0.0338,-2.45988 -0.0412,-2.57776 -0.19022,-2.99607 -0.0854,-0.23948 -0.27366,-0.60944 -0.41859,-0.82211 -0.17568,-0.25768 -0.23505,-0.39494 -0.17827,-0.41135 0.047,-0.013 0.40181,-0.0757 0.78868,-0.13821 1.36312,-0.22019 2.67191,-0.76968 3.49546,-1.46759 0.91668,-0.77684 1.583,-2.0251 1.82779,-3.42417 0.38688,-2.21118 0.0506,-3.95471 -1.02042,-5.28953 l -0.25995,-0.32403 0.12224,-0.44074 c 0.16751,-0.60402 0.16361,-1.67363 -0.009,-2.39182 -0.2037,-0.84955 -0.23679,-0.8989 -0.60282,-0.8989 -0.68273,0 -1.76388,0.39355 -2.84036,1.03389 l -0.71152,0.42327 -0.5201,-0.11984 c -1.05631,-0.24332 -1.591,-0.29611 -2.99873,-0.29611 -1.40774,0 -1.94243,0.0528 -2.99873,0.29611 l -0.52011,0.11984 -0.71151,-0.42327 c -1.07649,-0.64034 -2.157644,-1.03389 -2.840344,-1.03389 -0.36605,0 -0.39915,0.0493 -0.60284,0.8989 -0.17215,0.71819 -0.17604,1.7878 -0.009,2.39182 l 0.12224,0.44074 -0.25997,0.32403 c -0.86072,1.07282 -1.25865,2.43852 -1.16456,3.99698 0.15044,2.49181 0.94426,4.08972 2.55378,5.14044 0.76657,0.50041 1.886874,0.90056 3.014124,1.07652 0.8683,0.1356 0.81487,0.0882 0.53276,0.47252 -0.24584,0.3349 -0.56219,1.10754 -0.56485,1.37959 -0.004,0.35293 -1.60535,0.61805 -2.383234,0.39443 -0.71976,-0.20691 -1.23049,-0.621 -1.73112,-1.40358 -0.31912,-0.49888 -0.76404,-0.9162 -1.25676,-1.17882 -0.81846,-0.43625 -1.83342,-0.29221 -1.44433,0.20497 0.0448,0.0573 0.2483,0.22674 0.45205,0.37641 0.63505,0.46653 1.02512,0.9561 1.4376,1.80435 0.4384,0.90157 0.79583,1.3082 1.43254,1.62961 0.66431,0.33533 1.17942,0.42552 2.185544,0.38266 0.47898,-0.0204 0.95378,-0.0572 1.05507,-0.0816 l 0.18421,-0.0445 v 1.41899 c 0,0.84513 -0.0278,1.47111 -0.069,1.54788 -0.0905,0.16918 -0.41236,0.33207 -0.64782,0.32797 -0.10319,-0.002 -0.41917,-0.0895 -0.7023,-0.19462 z m -0.22022,-4.11325 c -0.17715,-0.12966 -0.0866,-0.31114 0.15527,-0.31114 0.10719,0 0.23511,0.0484 0.28428,0.10778 0.0761,0.0914 0.0703,0.12168 -0.038,0.20095 -0.15972,0.11682 -0.24437,0.11729 -0.40144,0.002 z m 1.03643,-0.1093 c -0.16715,-0.10649 0.007,-0.30234 0.26967,-0.30234 0.25482,0 0.32027,0.1039 0.16399,0.26019 -0.12169,0.12169 -0.2841,0.13746 -0.43365,0.0421 z m -2.209944,-0.1005 c -0.11798,-0.14228 -0.0334,-0.30231 0.1599,-0.30231 0.19982,0 0.38373,0.16806 0.3318,0.30338 -0.0492,0.12801 -0.38514,0.12725 -0.49168,-0.001 z m -0.92518,-0.51668 c -0.0441,-0.0441 -0.0803,-0.1497 -0.0803,-0.23445 0,-0.11612 0.038,-0.15415 0.15415,-0.15415 0.19631,0 0.31485,0.11853 0.31485,0.31485 0,0.11611 -0.038,0.15415 -0.15415,0.15415 -0.0848,0 -0.19025,-0.0362 -0.23448,-0.0803 z m -0.69629,-0.89278 c -0.0588,-0.12911 -0.0581,-0.18832 0.004,-0.24971 0.11646,-0.11646 0.30609,0.0214 0.3324,0.24155 0.0167,0.14209 -0.007,0.17753 -0.11872,0.17753 -0.0845,0 -0.17029,-0.0669 -0.217,-0.16937 z m -0.55853,-0.77531 c -0.0681,-0.21462 0.071,-0.3106 0.23501,-0.16212 0.18384,0.16639 0.1716,0.30289 -0.0275,0.30289 -0.10672,0 -0.17827,-0.0486 -0.20762,-0.1408 z m -0.60438,-0.53499 c -0.0247,-0.04 -0.0106,-0.10719 0.0314,-0.14915 0.0842,-0.0842 0.2782,10e-4 0.32551,0.14302 0.0333,0.10038 -0.29514,0.10613 -0.35689,0.006 z"
           id="path4147" />
        <path
           style="opacity:1;fill:#ffffff;fill-opacity:1;fill-rule:evenodd;stroke:none;stroke-width:0.1;stroke-linecap:round;stroke-linejoin:bevel;stroke-miterlimit:4;stroke-dasharray:none;stroke-opacity:1"
           d="m 81.85603,622.07808 v 46.99999 h 47.00001 v -46.99999 z m 2.5,2.5 h 42.00001 v 41.99999 H 84.35603 Z"
           id="path4789" />
        <rect
           style="opacity:1;fill:#ffffff;fill-opacity:1;fill-rule:evenodd;stroke:#ffffff;stroke-width:0.08117731;stroke-linecap:round;stroke-linejoin:bevel;stroke-miterlimit:4;stroke-dasharray:none;stroke-opacity:1"
           id="rect4791"
           width="36.918823"
           height="2.4188225"
           x="86.896629"
           y="661.61865" />
        <path
           id="path4793"
           d="m 81.85603,574.07808 v 47 h 47.00001 v -47 z m 2.5,2.5 h 42.00001 v 42 H 84.35603 Z"
           style="opacity:1;fill:#ffffff;fill-opacity:1;fill-rule:evenodd;stroke:none;stroke-width:0.1;stroke-linecap:round;stroke-linejoin:bevel;stroke-miterlimit:4;stroke-dasharray:none;stroke-opacity:1" />
        <path
           id="path4806"
           d="m 100.41712,659.01234 c -2.769043,-1.02939 -5.181453,-2.93771 -6.835643,-5.40729 -0.53376,-0.79685 -1.33193,-2.43532 -1.62601,-3.33791 -0.92792,-2.84784 -0.92566,-5.84002 0.007,-8.67303 1.74258,-5.29569 6.4527,-9.0329 12.075193,-9.58094 4.14505,-0.40404 8.36416,1.11904 11.33813,4.093 2.91569,2.91569 4.41678,7.08016 4.00912,11.1226 -0.0969,0.95939 -0.35528,2.20006 -0.63667,3.05551 -0.29338,0.89189 -1.09588,2.53393 -1.62295,3.32077 -1.413,2.1095 -3.27924,3.73804 -5.5417,4.83585 -1.60596,0.77928 -2.19752,0.91249 -2.53867,0.57167 -0.1369,-0.1369 -0.14192,-0.21195 -0.17605,-2.70136 -0.0338,-2.45988 -0.0412,-2.57776 -0.19022,-2.99607 -0.0854,-0.23948 -0.27366,-0.60944 -0.41859,-0.82211 -0.17568,-0.25768 -0.23505,-0.39494 -0.17827,-0.41135 0.047,-0.013 0.40181,-0.0757 0.78868,-0.13821 1.36312,-0.22019 2.67191,-0.76968 3.49546,-1.46759 0.91668,-0.77684 1.583,-2.0251 1.82779,-3.42417 0.38688,-2.21118 0.0506,-3.95471 -1.02042,-5.28953 l -0.25995,-0.32403 0.12224,-0.44074 c 0.16751,-0.60402 0.16361,-1.67363 -0.009,-2.39182 -0.2037,-0.84955 -0.23679,-0.8989 -0.60282,-0.8989 -0.68273,0 -1.76388,0.39355 -2.84036,1.03389 l -0.71152,0.42327 -0.5201,-0.11984 c -1.05631,-0.24332 -1.591,-0.29611 -2.99873,-0.29611 -1.40774,0 -1.94243,0.0528 -2.99873,0.29611 l -0.52011,0.11984 -0.71151,-0.42327 c -1.07649,-0.64034 -2.157643,-1.03389 -2.840343,-1.03389 -0.36605,0 -0.39915,0.0493 -0.60284,0.8989 -0.17215,0.71819 -0.17604,1.7878 -0.009,2.39182 l 0.12224,0.44074 -0.25997,0.32403 c -0.86072,1.07282 -1.25865,2.43852 -1.16456,3.99698 0.15044,2.49181 0.94426,4.08972 2.55378,5.14044 0.76657,0.50041 1.886873,0.90056 3.014123,1.07652 0.8683,0.1356 0.81487,0.0882 0.53276,0.47252 -0.24584,0.3349 -0.56219,1.10754 -0.56485,1.37959 -0.004,0.35293 -1.60535,0.61805 -2.383233,0.39443 -0.71976,-0.20691 -1.23049,-0.621 -1.73112,-1.40358 -0.31912,-0.49888 -0.76404,-0.9162 -1.25676,-1.17882 -0.81846,-0.43625 -1.83342,-0.29221 -1.44433,0.20497 0.0448,0.0573 0.2483,0.22674 0.45205,0.37641 0.63505,0.46653 1.02512,0.9561 1.4376,1.80435 0.4384,0.90157 0.79583,1.3082 1.43254,1.62961 0.66431,0.33533 1.17942,0.42552 2.185543,0.38266 0.47898,-0.0204 0.95378,-0.0572 1.05507,-0.0816 l 0.18421,-0.0445 v 1.41899 c 0,0.84513 -0.0278,1.47111 -0.069,1.54788 -0.0905,0.16918 -0.41236,0.33207 -0.64782,0.32797 -0.10319,-0.002 -0.41917,-0.0895 -0.7023,-0.19462 z m -0.22022,-4.11325 c -0.17715,-0.12966 -0.0866,-0.31114 0.15527,-0.31114 0.10719,0 0.23511,0.0484 0.28428,0.10778 0.0761,0.0914 0.0703,0.12168 -0.038,0.20095 -0.15972,0.11682 -0.24437,0.11729 -0.40144,0.002 z m 1.03643,-0.1093 c -0.16715,-0.10649 0.007,-0.30234 0.26967,-0.30234 0.25482,0 0.32027,0.1039 0.16399,0.26019 -0.12169,0.12169 -0.2841,0.13746 -0.43365,0.0421 z m -2.209943,-0.1005 c -0.11798,-0.14228 -0.0334,-0.30231 0.1599,-0.30231 0.19982,0 0.38373,0.16806 0.3318,0.30338 -0.0492,0.12801 -0.38514,0.12725 -0.49168,-0.001 z m -0.92518,-0.51668 c -0.0441,-0.0441 -0.0803,-0.1497 -0.0803,-0.23445 0,-0.11612 0.038,-0.15415 0.15415,-0.15415 0.19631,0 0.31485,0.11853 0.31485,0.31485 0,0.11611 -0.038,0.15415 -0.15415,0.15415 -0.0848,0 -0.19025,-0.0362 -0.23448,-0.0803 z m -0.69629,-0.89278 c -0.0588,-0.12911 -0.0581,-0.18832 0.004,-0.24971 0.11646,-0.11646 0.30609,0.0214 0.3324,0.24155 0.0167,0.14209 -0.007,0.17753 -0.11872,0.17753 -0.0845,0 -0.17029,-0.0669 -0.217,-0.16937 z m -0.55853,-0.77531 c -0.0681,-0.21462 0.071,-0.3106 0.23501,-0.16212 0.18384,0.16639 0.1716,0.30289 -0.0275,0.30289 -0.10672,0 -0.17827,-0.0486 -0.20762,-0.1408 z m -0.60438,-0.53499 c -0.0247,-0.04 -0.0106,-0.10719 0.0314,-0.14915 0.0842,-0.0842 0.2782,10e-4 0.32551,0.14302 0.0333,0.10038 -0.29514,0.10613 -0.35689,0.006 z"
           style="fill:#ffffff;fill-opacity:1" />
      </g>
    </g>
    <g
       id="g5506"
       transform="translate(178.57254,-485.13165)">
      <g
         id="g5476">
        <g
           id="g5429"
           transform="translate(-21.779254,525.78582)">
          <path
             id="path5425"
             d="m -60.293288,7.845857 v 46.999998 h 47.00001 V 7.845857 Z m 2.5,2.5 h 42.00001 v 41.999998 h -42.00001 z"
             style="opacity:1;fill:#ffffff;fill-opacity:1;fill-rule:evenodd;stroke:none;stroke-width:0.1;stroke-linecap:round;stroke-linejoin:bevel;stroke-miterlimit:4;stroke-dasharray:none;stroke-opacity:1" />
          <rect
             y="47.386444"
             x="-55.252693"
             height="2.4188225"
             width="36.918823"
             id="rect5427"
             style="opacity:1;fill:#ffffff;fill-opacity:1;fill-rule:evenodd;stroke:#ffffff;stroke-width:0.08117731;stroke-linecap:round;stroke-linejoin:bevel;stroke-miterlimit:4;stroke-dasharray:none;stroke-opacity:1" />
        </g>
        <path
           id="path5450"
           d="m -58.880536,570.25667 c -2.111314,-0.50187 -9.591228,-4.73819 -12.090842,-6.84782 -0.484351,-0.40872 -0.642263,-0.63249 -0.763196,-1.08125 -0.332263,-1.23315 -0.508841,-4.31822 -0.460408,-8.04402 0.04356,-3.34996 0.200236,-5.2771 0.511077,-6.28599 0.0877,-0.28463 0.138937,-0.35993 0.460383,-0.67637 1.785585,-1.75762 9.8843,-6.43348 12.182487,-7.03358 0.701025,-0.18298 1.428082,0.0514 3.735944,1.20492 3.694493,1.84654 8.138566,4.61199 9.406076,5.85322 0.29751,0.2914 0.350487,0.37028 0.437345,0.65181 0.310791,1.00726 0.467562,2.93424 0.511386,6.28599 0.05482,4.19137 -0.171985,7.47729 -0.577955,8.37409 -0.211591,0.46744 -1.051904,1.15809 -2.86233,2.35249 -2.134873,1.40854 -4.439464,2.74285 -6.74877,3.90747 -2.196931,1.10784 -3.201389,1.46736 -3.741197,1.33904 z m 4.151311,-5.94034 c 0.330444,-0.25648 1.497374,-1.426 1.689509,-1.69317 0.0824,-0.11462 0.149828,-0.24507 0.149828,-0.28985 0,-0.0934 -0.200121,-0.13934 -0.615644,-0.1413 -0.143253,-7.3e-4 -0.288814,-0.0196 -0.323461,-0.0416 -0.146279,-0.0928 -0.165809,-8.33175 -0.02774,-11.69199 0.02553,-0.62179 0.01893,-0.73927 -0.0474,-0.84059 l -0.07717,-0.11772 h -1.084731 c -0.894759,0 -1.09701,0.0122 -1.154849,0.0702 -0.06086,0.0612 -0.06657,0.4052 -0.0434,2.60506 l 0.02668,2.53499 -2.339653,-0.0122 -2.339654,-0.0122 -0.0146,-0.97079 c -0.01583,-1.05449 0.0744,-4.75451 0.12524,-5.13826 l 0.03141,-0.23674 0.42621,-0.0383 c 0.234417,-0.0212 0.446841,-0.0587 0.472049,-0.0837 0.08886,-0.0885 -0.140732,-0.3946 -0.779863,-1.03973 -0.748357,-0.75534 -1.254881,-1.18265 -1.401992,-1.18265 -0.160776,0 -0.538373,0.31857 -1.368496,1.15467 -0.75875,0.76423 -0.933697,0.98499 -0.848267,1.0704 0.02464,0.0245 0.246882,0.0612 0.493928,0.0819 l 0.449158,0.0375 0.03744,0.75771 c 0.05099,1.03116 0.06673,10.53821 0.01884,11.36869 -0.03598,0.62407 -0.03255,0.67327 0.05498,0.78136 l 0.09338,0.11535 h 1.073523 c 1.002638,0 1.077903,-0.008 1.139813,-0.0906 0.05498,-0.0751 0.06037,-0.30511 0.03173,-1.34973 -0.01901,-0.69244 -0.03451,-1.68525 -0.03451,-2.20614 v -0.94721 h 2.344165 2.344165 l -0.0177,2.67571 c -0.01264,1.91498 -0.0328,2.68558 -0.07106,2.71046 -0.02937,0.0188 -0.195831,0.0351 -0.369945,0.0351 -0.357071,8.2e-4 -0.559526,0.0595 -0.559526,0.16283 0,0.2343 1.944583,2.15842 2.18139,2.15842 0.04577,0 0.19703,-0.0883 0.336106,-0.19636 z"
           style="fill:#ffffff;fill-opacity:1;stroke-width:0.04735686" />
      </g>
      <g
         id="g5496">
        <path
           id="path5478"
           d="m -82.072544,485.63166 v 47 h 47.00001 v -47 z m 2.5,2.5 h 42.00001 v 42 h -42.00001 z"
           style="opacity:1;fill:#ffffff;fill-opacity:1;fill-rule:evenodd;stroke:none;stroke-width:0.1;stroke-linecap:round;stroke-linejoin:bevel;stroke-miterlimit:4;stroke-dasharray:none;stroke-opacity:1" />
        <path
           style="fill:#ffffff;fill-opacity:1;stroke-width:0.04735686"
           d="m -58.880538,522.25665 c -2.111314,-0.50187 -9.591228,-4.73819 -12.090842,-6.84782 -0.484351,-0.40872 -0.642263,-0.63249 -0.763196,-1.08125 -0.332263,-1.23315 -0.508841,-4.31822 -0.460408,-8.04402 0.04356,-3.34996 0.200236,-5.2771 0.511077,-6.28599 0.0877,-0.28463 0.138937,-0.35993 0.460383,-0.67637 1.785585,-1.75762 9.8843,-6.43348 12.182487,-7.03358 0.701025,-0.18298 1.428082,0.0514 3.735944,1.20492 3.694493,1.84654 8.138566,4.61199 9.406076,5.85322 0.29751,0.2914 0.350487,0.37028 0.437345,0.65181 0.310791,1.00726 0.467562,2.93424 0.511386,6.28599 0.05482,4.19137 -0.171985,7.47729 -0.577955,8.37409 -0.211591,0.46744 -1.051904,1.15809 -2.86233,2.35249 -2.134873,1.40854 -4.439464,2.74285 -6.74877,3.90747 -2.196931,1.10784 -3.201389,1.46736 -3.741197,1.33904 z m 4.151311,-5.94034 c 0.330444,-0.25648 1.497374,-1.426 1.689509,-1.69317 0.0824,-0.11462 0.149828,-0.24507 0.149828,-0.28985 0,-0.0934 -0.200121,-0.13934 -0.615644,-0.1413 -0.143253,-7.3e-4 -0.288814,-0.0196 -0.323461,-0.0416 -0.146279,-0.0928 -0.165809,-8.33175 -0.02774,-11.69199 0.02553,-0.62179 0.01893,-0.73927 -0.0474,-0.84059 l -0.07717,-0.11772 h -1.084731 c -0.894759,0 -1.09701,0.0122 -1.154849,0.0702 -0.06086,0.0612 -0.06657,0.4052 -0.0434,2.60506 l 0.02668,2.53499 -2.339653,-0.0122 -2.339654,-0.0122 -0.0146,-0.97079 c -0.01583,-1.05449 0.0744,-4.75451 0.12524,-5.13826 l 0.03141,-0.23674 0.42621,-0.0383 c 0.234417,-0.0212 0.446841,-0.0587 0.472049,-0.0837 0.08886,-0.0885 -0.140732,-0.3946 -0.779863,-1.03973 -0.748357,-0.75534 -1.254881,-1.18265 -1.401992,-1.18265 -0.160776,0 -0.538373,0.31857 -1.368496,1.15467 -0.75875,0.76423 -0.933697,0.98499 -0.848267,1.0704 0.02464,0.0245 0.246882,0.0612 0.493928,0.0819 l 0.449158,0.0375 0.03744,0.75771 c 0.05099,1.03116 0.06673,10.53821 0.01884,11.36869 -0.03598,0.62407 -0.03255,0.67327 0.05498,0.78136 l 0.09338,0.11535 h 1.073523 c 1.002638,0 1.077903,-0.008 1.139813,-0.0906 0.05498,-0.0751 0.06037,-0.30511 0.03173,-1.34973 -0.01901,-0.69244 -0.03451,-1.68525 -0.03451,-2.20614 v -0.94721 h 2.344165 2.344165 l -0.0177,2.67571 c -0.01264,1.91498 -0.0328,2.68558 -0.07106,2.71046 -0.02937,0.0188 -0.195831,0.0351 -0.369945,0.0351 -0.357071,8.2e-4 -0.559526,0.0595 -0.559526,0.16283 0,0.2343 1.944583,2.15842 2.18139,2.15842 0.04577,0 0.19703,-0.0883 0.336106,-0.19636 z"
           id="path5484" />
      </g>
    </g>
    <path
       id="path4628"
       d="m 263.07354,37.721544 c -0.67594,-0.08388 -1.22897,-0.311896 -1.22897,-0.506698 0,-0.194801 -0.2533,-0.354184 -0.56289,-0.354184 -0.3096,0 -0.89719,-0.286231 -1.30577,-0.636069 -0.774,-0.662714 -1.49551,-0.845385 -3.93627,-0.996564 -0.81186,-0.05028 -1.65268,-0.358819 -1.90014,-0.697243 -0.24414,-0.333873 -0.76173,-0.669435 -1.15021,-0.745696 -0.38848,-0.07626 -0.89473,-0.478982 -1.12501,-0.89494 -0.23027,-0.415959 -0.63138,-0.892369 -0.89135,-1.058685 -0.25998,-0.16632 -0.47268,-0.624231 -0.47268,-1.01758 0,-0.393351 -0.18961,-0.832367 -0.42136,-0.975596 -0.25179,-0.155611 -0.34236,-0.849375 -0.22506,-1.723892 0.10796,-0.804914 0.0598,-1.547855 -0.1071,-1.650983 -0.16686,-0.103127 -0.27548,-0.780858 -0.24137,-1.506071 0.037,-0.7868 -0.13759,-1.395167 -0.43295,-1.508504 -0.60218,-0.23108 -0.35066,-4.839517 0.27553,-5.04825 0.21781,-0.0726 0.39602,-0.423597 0.39602,-0.779987 0,-0.356387 0.50329,-1.065407 1.11842,-1.575599 0.61513,-0.510191 1.12574,-1.097785 1.1347,-1.305764 0.009,-0.207979 0.40164,-0.400197 0.87264,-0.427154 0.91202,-0.05219 3.30269,-2.048458 3.30269,-2.75782 0,-0.232985 0.46795,-0.629083 1.03989,-0.880219 0.57195,-0.251136 1.18229,-0.6841743 1.35632,-0.9623098 0.17403,-0.2781355 0.76961,-0.4599017 1.32351,-0.4039273 0.55389,0.055974 1.32761,-0.079864 1.71937,-0.3018648 0.9818,-0.5563617 3.89297,0.1542525 5.19547,1.2682099 0.33756,0.2887 1.52872,0.564379 2.64701,0.612627 2.20349,0.09507 5.62563,1.512137 5.62563,2.329512 0,0.269157 0.34033,0.578379 0.75629,0.687154 0.45248,0.118329 0.75628,0.515794 0.75628,0.989464 0,0.435428 0.19001,0.791688 0.42225,0.791688 0.23601,0 0.33506,0.333411 0.22457,0.755913 -0.10872,0.415749 -0.0429,0.851589 0.14636,0.968532 0.18922,0.116944 0.24454,0.609045 0.12293,1.093556 -0.1216,0.484512 -0.0371,0.994622 0.18769,1.133573 0.22483,0.138955 0.40878,0.612073 0.40878,1.051374 0,0.439303 0.25266,1.077922 0.56147,1.419153 0.68756,0.759742 0.89013,4.249276 0.2589,4.459691 -0.24323,0.08107 -0.44223,0.572001 -0.44223,1.090951 0,0.861361 -2.47241,3.909304 -3.17113,3.909304 -0.54569,0 -3.60657,2.477493 -3.62071,2.930616 -0.0222,0.712438 -1.51962,2.069128 -2.05638,1.863151 -0.25882,-0.09932 -0.68343,0.160249 -0.94358,0.576812 -0.33021,0.528757 -0.75281,0.703905 -1.39993,0.5802 -0.50981,-0.09746 -1.01799,-0.02986 -1.12929,0.150238 -0.20276,0.328072 -0.79555,0.338415 -3.08834,0.05388 z m 3.14663,-2.795201 c 0.11372,-0.183999 0.44423,-0.334545 0.73447,-0.334545 0.72587,0 2.59325,-1.918037 2.73228,-2.806403 0.0625,-0.399635 0.29659,-0.946949 0.52009,-1.216254 0.2235,-0.269302 0.32819,-0.70807 0.23264,-0.975036 -0.0955,-0.266967 -0.0206,-0.783182 0.16663,-1.147147 0.1872,-0.363962 0.19695,-0.661752 0.0217,-0.661752 -0.17527,0 -0.6189,-0.68049 -0.98585,-1.512195 -0.43623,-0.988734 -0.98502,-1.591968 -1.58535,-1.742641 -0.505,-0.126748 -0.91817,-0.382165 -0.91817,-0.567597 0,-0.185433 -0.34033,-0.337151 -0.75629,-0.337151 -0.79784,0 -1.03863,0.915299 -0.35236,1.339438 0.22216,0.137299 0.31467,0.482224 0.20558,0.766495 -0.10908,0.28427 -0.0421,0.613413 0.14885,0.731424 0.20799,0.128545 0.21104,0.572625 0.008,1.107659 -0.18675,0.4912 -0.25741,0.975233 -0.15702,1.075626 0.32072,0.320724 -1.4247,3.303738 -2.16487,3.699861 -0.39212,0.209857 -0.71295,0.624836 -0.71295,0.922169 0,0.676572 -1.39034,1.451328 -2.10935,1.175416 -0.29571,-0.113476 -0.53766,-0.06567 -0.53766,0.106229 0,0.828407 5.01879,1.171257 5.51003,0.376404 z m -5.71801,-3.390805 c 0.19758,-0.190869 0.66553,-0.347036 1.03989,-0.347036 0.37437,0 0.68066,-0.246792 0.68066,-0.548427 0,-0.301632 0.21271,-0.684504 0.47268,-0.850824 0.81399,-0.520749 1.28036,-1.7492 1.36774,-3.602714 l 0.0843,-1.78774 -1.62409,1.614224 c -1.45227,1.443442 -3.84978,2.69872 -4.70857,2.465293 -0.17535,-0.04766 -0.70986,0.0462 -1.1878,0.208575 -0.54121,0.183878 -1.0781,0.121665 -1.42344,-0.164943 -0.52369,-0.434618 -3.19067,-0.81245 -3.19067,-0.452022 0,0.09251 0.26663,0.730084 0.59251,1.41683 0.51808,1.091768 1.6462,1.869683 2.52717,1.742645 0.15599,-0.02248 0.28361,0.116792 0.28361,0.309518 0,0.192733 0.29779,0.434533 0.66175,0.537337 0.91362,0.25806 3.98614,-0.117449 4.42429,-0.540716 z m 14.82418,-3.013347 c 0.95686,-1.44592 1.36344,-3.790591 0.76165,-4.392376 -0.13865,-0.138654 -0.25209,-0.471249 -0.25209,-0.739099 0,-1.03825 -3.04925,-3.431841 -3.78926,-2.974486 -0.20368,0.125879 -0.37033,0.06851 -0.37033,-0.127483 0,-1.050263 -4.01556,-0.578249 -5.64634,0.663709 l -0.91954,0.700296 2.17258,0.451025 c 1.19492,0.248066 2.26504,0.691962 2.37804,0.986436 0.113,0.294474 0.53292,0.535409 0.93316,0.535409 0.40023,0 0.83279,0.29779 0.96125,0.661752 0.12845,0.363965 0.57755,1.043953 0.998,1.511085 0.42045,0.467135 0.64997,0.963819 0.51005,1.103745 -0.13993,0.139928 0.0218,0.559671 0.35949,0.932766 0.33764,0.373095 0.5199,0.923303 0.40502,1.222688 -0.18284,0.476476 0.007,0.996412 0.36389,0.996412 0.0664,0 0.57687,-0.689344 1.13443,-1.531879 z m -15.99928,-2.83055 c 1.26535,-0.237381 2.89565,-1.379355 2.89565,-2.02831 0,-0.171036 -0.42606,-0.22953 -0.94679,-0.129985 -1.11893,0.213897 -5.10351,-1.670994 -5.10351,-2.414189 0,-0.270642 -0.35527,-0.682211 -0.78948,-0.914597 -0.5783,-0.309491 -0.73075,-0.656549 -0.56991,-1.297382 0.15036,-0.599086 0.029,-0.948004 -0.38506,-1.106885 -0.43996,-0.16883 -0.54037,-0.514276 -0.36867,-1.268394 l 0.23597,-1.036372 -0.96154,1.134432 c -1.53754,1.813999 -1.57063,1.869253 -1.78211,2.975557 -0.1299,0.679525 -0.0242,1.122646 0.29729,1.246003 0.34897,0.133911 0.40241,0.445184 0.17784,1.035842 -0.24598,0.646995 -0.15253,0.949641 0.39974,1.294538 0.39643,0.247573 0.72078,0.66524 0.72078,0.928153 0,0.797469 3.30138,2.25572 4.41633,1.950733 0.24521,-0.06707 1.03877,-0.233188 1.76347,-0.369144 z m 2.89565,-3.929727 c 0,-0.193126 -0.24164,-0.592781 -0.53699,-0.888124 -0.65851,-0.658515 -0.58036,-4.879763 0.0945,-5.10472 0.24336,-0.08112 0.44248,-0.574658 0.44248,-1.096744 0,-0.586096 0.25322,-1.015468 0.66188,-1.122335 0.56948,-0.148922 1.60699,-1.703922 1.60699,-2.408529 0,-0.445024 -3.21612,-0.180707 -3.51662,0.289017 -0.16632,0.259976 -0.45638,0.47268 -0.64457,0.47268 -0.76122,0 -2.24877,1.978558 -2.4877,3.308827 -0.14007,0.779884 -0.37927,1.652156 -0.53154,1.938381 -0.30639,0.575901 0.60391,2.693816 1.15782,2.693816 0.19275,0 0.35045,0.215215 0.35045,0.478258 0,0.26304 0.63811,0.764786 1.41804,1.114992 1.66262,0.746559 1.98525,0.799294 1.98525,0.324481 z m 5.42873,-3.952343 c 0.80201,-0.334055 1.59602,-0.522204 1.76445,-0.418109 0.16843,0.104096 0.71234,0.03486 1.20869,-0.153847 0.49636,-0.188712 1.14875,-0.206373 1.44978,-0.03925 0.30102,0.167124 1.14289,0.361505 1.87082,0.431961 1.13635,0.109983 1.30529,0.02408 1.19476,-0.607453 -0.17457,-0.997348 -1.61022,-2.458145 -2.42373,-2.466174 -0.36397,-0.0036 -0.66175,-0.157386 -0.66175,-0.34176 0,-0.184374 -0.55304,-0.426165 -1.22897,-0.537319 -1.56071,-0.256647 -5.57763,0.8026 -5.57763,1.470802 0,0.274227 -0.2304,0.634674 -0.51201,0.800994 -0.79979,0.472362 -1.37871,1.832688 -1.37871,3.239665 0,1.807068 0.25358,1.879841 1.62893,0.467492 0.66394,-0.681794 1.86335,-1.512945 2.66537,-1.847004 z"
       style="fill:#ffffff;fill-opacity:1;stroke-width:0.30251518" />
    <g
       id="g4656">
      <g
         id="g4645">
        <path
           id="path5138"
           d="M 240.5,48.50001 V 95.5 h 47.00001 V 48.50001 Z m 2.5,2.5 h 42.00001 V 93 H 243 Z"
           style="opacity:1;fill:#ffffff;fill-opacity:1;fill-rule:evenodd;stroke:none;stroke-width:0.1;stroke-linecap:round;stroke-linejoin:bevel;stroke-miterlimit:4;stroke-dasharray:none;stroke-opacity:1" />
        <rect
           y="88.040565"
           x="245.5406"
           height="2.4188225"
           width="36.918823"
           id="rect5140"
           style="opacity:1;fill:#ffffff;fill-opacity:1;fill-rule:evenodd;stroke:#ffffff;stroke-width:0.08117731;stroke-linecap:round;stroke-linejoin:bevel;stroke-miterlimit:4;stroke-dasharray:none;stroke-opacity:1" />
        <g
           style="fill:#ffffff;fill-opacity:1"
           transform="matrix(0.30251518,0,0,0.30251518,117.15242,-98.99473)"
           id="g5213">
          <path
             id="path5215"
             d="m 482.35965,610.60167 c -2.23438,-0.27728 -4.0625,-1.03101 -4.0625,-1.67495 0,-0.64394 -0.83732,-1.1708 -1.86071,-1.1708 -1.02339,0 -2.96576,-0.94617 -4.31637,-2.1026 -2.55853,-2.19068 -4.94359,-2.79452 -13.01179,-3.29426 -2.6837,-0.16622 -5.46315,-1.18612 -6.28116,-2.30482 -0.80702,-1.10366 -2.51799,-2.2129 -3.80216,-2.46499 -1.28417,-0.25208 -2.95764,-1.58333 -3.71883,-2.95833 -0.76119,-1.375 -2.08711,-2.94983 -2.94648,-3.49961 -0.85938,-0.54979 -1.5625,-2.06347 -1.5625,-3.36373 0,-1.30027 -0.62678,-2.75149 -1.39285,-3.22495 -0.83231,-0.51439 -1.13172,-2.80771 -0.74398,-5.69853 0.35688,-2.66074 0.19758,-5.11662 -0.35401,-5.45752 -0.55158,-0.3409 -0.91063,-2.58122 -0.79788,-4.9785 0.12233,-2.60086 -0.45484,-4.61189 -1.43116,-4.98654 -1.9906,-0.76386 -1.15917,-15.9976 0.91078,-16.68759 0.72,-0.24 1.3091,-1.40025 1.3091,-2.57834 0,-1.17808 1.66368,-3.52183 3.69707,-5.20833 2.03338,-1.6865 3.72128,-3.62886 3.75088,-4.31636 0.0296,-0.6875 1.32768,-1.3229 2.88463,-1.41201 3.01478,-0.17253 10.91742,-6.77142 10.91742,-9.1163 0,-0.77016 1.54687,-2.07951 3.4375,-2.90967 1.89062,-0.83016 3.90818,-2.26162 4.48347,-3.18103 0.57528,-0.91941 2.54403,-1.52026 4.375,-1.33523 1.83096,0.18503 4.38858,-0.264 5.68359,-0.99785 3.24545,-1.83912 12.86867,0.5099 17.17426,4.19222 1.11585,0.95433 5.05335,1.86562 8.75,2.02511 7.28389,0.31425 18.59618,4.99855 18.59618,7.70048 0,0.88973 1.125,1.9119 2.5,2.27147 1.49575,0.39115 2.5,1.70502 2.5,3.27079 0,1.43936 0.6281,2.61702 1.39579,2.61702 0.78014,0 1.10758,1.10213 0.74235,2.49876 -0.35939,1.37431 -0.14168,2.81503 0.4838,3.2016 0.62548,0.38657 0.80834,2.01327 0.40636,3.61488 -0.40198,1.60161 -0.12278,3.28784 0.62042,3.74716 0.7432,0.45933 1.35128,2.02328 1.35128,3.47544 0,1.45217 0.83521,3.5632 1.85601,4.69118 2.27281,2.51142 2.94244,14.04649 0.85581,14.74204 -0.804,0.268 -1.46182,1.89082 -1.46182,3.60627 0,2.84733 -8.17287,12.92267 -10.48256,12.92267 -1.80383,0 -11.92196,8.18965 -11.96869,9.6875 -0.0735,2.35505 -5.02328,6.83975 -6.79761,6.15887 -0.85556,-0.3283 -2.25916,0.52972 -3.11911,1.90672 -1.09156,1.74787 -2.48851,2.32684 -4.62763,1.91792 -1.68524,-0.32216 -3.36509,-0.0987 -3.73301,0.49663 -0.67024,1.08448 -2.6298,1.11867 -10.20889,0.17811 z m 10.40157,-9.23987 c 0.37591,-0.60823 1.46846,-1.10588 2.42788,-1.10588 2.39945,0 8.5723,-6.3403 9.03189,-9.2769 0.20675,-1.32104 0.9804,-3.13025 1.71921,-4.02047 0.73882,-0.89021 1.08488,-2.34061 0.76903,-3.2231 -0.31584,-0.88249 -0.068,-2.5889 0.55081,-3.79203 0.61879,-1.20312 0.65103,-2.1875 0.0716,-2.1875 -0.57938,0 -2.04587,-2.24944 -3.25886,-4.99874 -1.44201,-3.26838 -3.25608,-5.26244 -5.24056,-5.76051 -1.66932,-0.41898 -3.03512,-1.26329 -3.03512,-1.87626 0,-0.61297 -1.125,-1.11449 -2.5,-1.11449 -2.63737,0 -3.43332,3.02563 -1.16478,4.42767 0.73437,0.45386 1.04018,1.59405 0.67959,2.53374 -0.36059,0.93969 -0.13919,2.02771 0.49202,2.41781 0.68753,0.42492 0.69764,1.89288 0.0252,3.6615 -0.61734,1.62372 -0.85091,3.22375 -0.51904,3.55561 1.06018,1.06019 -4.70954,10.9209 -7.15624,12.23033 -1.29622,0.69371 -2.35676,2.06547 -2.35676,3.04834 0,2.23649 -4.59591,4.79754 -6.97268,3.88548 -0.97752,-0.37511 -1.77732,-0.21709 -1.77732,0.35115 0,2.7384 16.5902,3.87173 18.21407,1.24425 z m -18.90157,-11.20871 c 0.65312,-0.63094 2.2,-1.14717 3.4375,-1.14717 1.2375,0 2.25,-0.8158 2.25,-1.81289 0,-0.99708 0.70312,-2.26271 1.5625,-2.8125 2.69074,-1.7214 4.23238,-5.78219 4.52121,-11.9092 l 0.27859,-5.90959 -5.36865,5.33601 c -4.80065,4.77147 -12.7259,8.92094 -15.56472,8.14932 -0.57966,-0.15755 -2.34655,0.15271 -3.92642,0.68947 -1.78905,0.60783 -3.5638,0.40218 -4.70537,-0.54524 -1.7311,-1.43668 -10.54714,-2.68565 -10.54714,-1.49421 0,0.3058 0.88138,2.41338 1.95862,4.6835 1.71257,3.60897 5.44172,6.18046 8.35388,5.76052 0.51562,-0.0743 0.9375,0.38607 0.9375,1.02315 0,0.6371 0.98437,1.4364 2.1875,1.77623 3.02008,0.85305 13.17664,-0.38824 14.625,-1.7874 z m 49.0031,-9.96098 c 3.16303,-4.77966 4.50701,-12.53025 2.51773,-14.51952 -0.45833,-0.45834 -0.83333,-1.55777 -0.83333,-2.44318 0,-3.43206 -10.07963,-11.34436 -12.52583,-9.83252 -0.6733,0.41611 -1.22417,0.22648 -1.22417,-0.42141 0,-3.47177 -13.27391,-1.91147 -18.66466,2.19397 l -3.03965,2.31491 7.18173,1.49092 c 3.94996,0.82001 7.48736,2.28736 7.86089,3.26078 0.37354,0.97342 1.76163,1.76986 3.08466,1.76986 1.32302,0 2.75291,0.98438 3.17753,2.1875 0.42462,1.20313 1.90918,3.45091 3.29903,4.99507 1.38985,1.54417 2.14855,3.18602 1.68601,3.64856 -0.46255,0.46255 0.0722,1.85006 1.18833,3.08337 1.11613,1.23331 1.71862,3.05209 1.33886,4.04174 -0.60441,1.57505 0.0233,3.29376 1.20287,3.29376 0.21941,0 1.90691,-2.27871 3.75,-5.06381 z m -52.88753,-9.35672 c 4.18278,-0.78469 9.57193,-4.55962 9.57193,-6.70482 0,-0.56538 -1.40839,-0.75874 -3.12975,-0.42968 -3.69873,0.70706 -16.87025,-5.52367 -16.87025,-7.98039 0,-0.89464 -1.17438,-2.25513 -2.60973,-3.02331 -1.91162,-1.02306 -2.41557,-2.1703 -1.8839,-4.28865 0.49704,-1.98035 0.0958,-3.13374 -1.27285,-3.65894 -1.45435,-0.55809 -1.78626,-1.7 -1.21868,-4.19283 l 0.78001,-3.42585 -3.17848,3.75 c -5.0825,5.99639 -5.19189,6.17904 -5.89097,9.83606 -0.4294,2.24625 -0.0799,3.71104 0.98274,4.11881 1.15355,0.44266 1.33021,1.47161 0.58787,3.4241 -0.81313,2.13872 -0.50422,3.13915 1.32138,4.27925 1.31043,0.81838 2.38261,2.19903 2.38261,3.06812 0,2.63613 10.91311,7.45655 14.59873,6.44838 0.81056,-0.22172 3.43376,-0.77083 5.82934,-1.22025 z m 9.57193,-12.99018 c 0,-0.6384 -0.79879,-1.95951 -1.77509,-2.9358 -2.17679,-2.1768 -1.91845,-16.13064 0.31241,-16.87426 0.80447,-0.26816 1.46268,-1.8996 1.46268,-3.62542 0,-1.93741 0.83703,-3.35675 2.18792,-3.71001 1.88247,-0.49228 5.31208,-5.63252 5.31208,-7.96168 0,-1.47108 -10.63125,-0.59735 -11.62461,0.95538 -0.54979,0.85938 -1.5086,1.5625 -2.13069,1.5625 -2.51629,0 -7.43357,6.54036 -8.22338,10.93772 -0.46304,2.578 -1.25373,5.4614 -1.75709,6.40755 -1.01279,1.90371 1.99631,8.90473 3.82732,8.90473 0.63715,0 1.15845,0.71142 1.15845,1.58094 0,0.86951 2.10937,2.52809 4.6875,3.68574 5.49599,2.46784 6.5625,2.64216 6.5625,1.07261 z m 17.94529,-13.06494 c 2.65116,-1.10426 5.27584,-1.72621 5.83261,-1.38211 0.55677,0.3441 2.35474,0.11525 3.99549,-0.50856 1.64075,-0.62381 3.79732,-0.68219 4.79239,-0.12974 0.99507,0.55245 3.77797,1.195 6.18422,1.4279 3.75635,0.36356 4.31482,0.0796 3.94942,-2.00801 -0.57705,-3.29685 -5.32277,-8.12569 -8.01192,-8.15223 -1.20313,-0.0119 -2.1875,-0.52026 -2.1875,-1.12973 0,-0.60947 -1.82813,-1.40874 -4.0625,-1.77617 -5.15912,-0.84838 -18.4375,2.65309 -18.4375,4.86191 0,0.90649 -0.76163,2.09799 -1.69252,2.64778 -2.6438,1.56145 -4.55748,6.05817 -4.55748,10.7091 0,5.97348 0.83823,6.21404 5.38462,1.54535 2.19471,-2.25375 6.15951,-5.00122 8.81067,-6.10549 z"
             style="fill:#ffffff;fill-opacity:1" />
          <path
             id="path5217"
             d="m 483.29715,610.64435 c -4.0002,-1.62057 -8.21836,-2.78422 -11.69381,-5.41947 -5.2631,-4.55103 -13.3104,-0.95287 -18.61487,-5.24438 -3.2202,-2.71116 -7.71902,-3.50917 -9.51959,-7.86284 -3.5081,-2.28378 -2.03016,-7.16103 -4.97373,-9.49254 0.0329,-4.24421 1.24456,-8.63949 -0.91458,-12.35431 0.98447,-5.07917 -3.73088,-8.77411 -2.56451,-13.82833 0.62047,-8.95765 5.30663,-18.15161 13.49041,-22.34511 5.20405,0.2727 5.92808,-5.50569 9.97335,-7.41913 0.96869,-5.38957 7.83251,-5.17961 10.08857,-9.47785 4.244,-0.75012 8.7715,-1.34377 13.13667,-1.52734 4.92006,0.6159 10.09881,1.59726 14.0714,4.71306 5.64893,2.42607 12.31068,1.06229 17.73889,3.99436 2.48318,3.33315 8.39575,1.0695 9.23044,6.36404 5.68201,1.9356 4.49848,8.81045 6.80391,13.2371 1.59864,4.57799 0.3116,10.08083 3.26778,14.13815 3.24248,3.19516 2.76963,8.5064 2.61008,12.74018 -1.87806,3.91119 -2.28938,8.4721 -5.29025,11.97613 -2.585,3.79234 -5.71357,7.27426 -10.10021,8.78891 -4.55572,3.30335 -8.99329,7.17487 -11.41885,12.33681 -3.40779,1.55417 -7.17681,2.31322 -9.60431,5.63931 -4.87031,0.87333 -10.03093,1.31001 -15.02526,1.15238 l -0.69153,-0.10909 z m 9.46407,-9.28255 c 2.99068,-1.63044 7.2121,-0.60878 7.89067,-5.04534 4.5127,-2.22561 4.22057,-7.87742 6.68235,-11.52426 -2.07146,-3.16908 2.1174,-6.46629 -1.43497,-8.52618 -0.4581,-5.01561 -4.72377,-9.25282 -9.38938,-10.72832 -1.73643,-1.88793 -6.37007,-4.63677 -5.25819,0.23724 1.16996,6.2517 1.79839,12.96327 -0.0477,19.11834 -1.5716,3.97801 -4.07577,6.98091 -7.68552,9.30612 -0.63184,4.42616 -6.24604,5.36207 -8.97135,5.90919 3.14963,3.36357 8.89799,2.61366 13.23801,2.75496 1.66603,-0.20798 3.75547,-0.17455 4.97604,-1.50175 z m -19.46407,-10.48088 c 2.75606,-2.41717 6.83025,-1.55854 7.89035,-5.81309 4.55382,-4.83397 5.7727,-11.99864 4.358,-18.34318 -5.10357,5.01502 -9.88129,11.65958 -17.5926,12.27605 -4.87563,0.69209 -10.07206,1.72312 -14.75489,-0.30631 -3.70934,-1.54169 -9.78089,-0.01 -5.96717,4.82568 2.53997,3.98966 7.08384,5.82118 11.01972,8.07772 4.66406,1.15119 9.95946,1.87074 14.45778,-0.20313 z m 48.75,-8.88374 c 2.39141,-2.87701 4.22959,-6.84478 4.25264,-11.10194 0.23242,-4.46816 -1.68999,-8.86373 -4.49164,-12.28788 -4.29388,-3.82844 -9.60914,-7.08754 -15.41667,-7.69923 -5.38429,0.41 -11.15204,1.53223 -15.51089,4.87225 -0.16756,4.07858 7.7889,2.7505 10.77898,4.94936 3.69221,2.78519 8.33925,4.2344 10.58891,8.81336 2.50475,3.47815 2.30817,7.60375 4.77204,10.54359 -0.97665,4.54297 3.3538,6.77555 5.02663,1.91049 z m -49.88147,-11.51413 c 2.59658,-1.05095 9.22843,-4.88867 6.2756,-7.48389 -5.82081,1.22334 -11.44023,-2.04435 -16.23737,-4.98404 -2.91419,-1.84846 -2.79387,-5.53885 -6.36581,-6.4246 -1.40509,-3.06705 0.13093,-6.54231 -2.85609,-9.14871 -0.38861,-2.4518 0.0505,-4.978 -2.61986,-1.82034 -2.99676,3.07799 -6.1767,6.63159 -6.15028,11.17846 -1.59956,2.53233 0.16703,3.5917 2.27331,3.96306 -2.53018,3.52107 -1.28146,6.46656 2.27543,8.47267 1.76085,3.86442 6.08858,6.87297 10.03112,7.7267 4.47697,0.0693 9.07368,-0.14486 13.37395,-1.47931 z m 7.38147,-11.824 c -1.68935,-4.21165 -3.74828,-8.42854 -3.12884,-13.1944 -0.8237,-4.97801 3.17227,-8.07918 3.49281,-12.66375 2.88003,-2.43185 5.92414,-5.09964 7.22007,-8.93477 1.38876,-1.9512 1.10671,-2.84809 -1.36986,-2.36021 -3.38946,0.19767 -7.26031,-0.69461 -10.15376,1.41775 -3.47817,3.35627 -8.95289,5.65595 -10.05609,11.43979 -0.70715,4.84295 -4.16017,9.83461 -0.79131,14.44606 1.30294,4.28269 5.62845,5.77222 8.02135,8.57921 3.07547,-0.62624 3.86597,2.43081 6.00098,2.74119 0.51641,-0.28906 0.76627,-0.90218 0.76465,-1.47087 z m 9.00233,-7.63708 c 5.27036,-6.01427 13.50648,-8.36036 21.29365,-7.67116 4.27488,-0.41106 9.46513,1.77919 13.09229,1.04438 -0.33147,-4.75972 -3.85086,-9.80763 -8.79131,-10.50556 -2.46237,-3.87213 -7.43283,-3.15478 -11.60008,-3.47327 -4.72694,1.0079 -9.75109,2.40715 -13.37734,5.75139 -0.86766,3.54176 -5.72556,1.81103 -4.48228,6.01889 -0.93467,3.54476 -3.4663,11.06217 -0.18872,12.73519 1.42209,-1.22347 2.73907,-2.56343 4.05379,-3.89986 z"
             style="fill:#ffffff;fill-opacity:1" />
        </g>
      </g>
      <g
         id="g4638">
        <path
           style="opacity:1;fill:#ffffff;fill-opacity:1;fill-rule:evenodd;stroke:none;stroke-width:0.1;stroke-linecap:round;stroke-linejoin:bevel;stroke-miterlimit:4;stroke-dasharray:none;stroke-opacity:1"
           d="m 240.5,0.50001 v 47 h 47.00001 v -47 z m 2.5,2.5 h 42.00001 v 42 H 243 Z"
           id="path5142" />
        <path
           id="path4630"
           d="m 263.35714,37.734455 c -1.21012,-0.490247 -2.48617,-0.842268 -3.53755,-1.639471 -1.59217,-1.376756 -4.0266,-0.288258 -5.63128,-1.586505 -0.97416,-0.820167 -2.33512,-1.061577 -2.87982,-2.378629 -1.06126,-0.690878 -0.61416,-2.16632 -1.50463,-2.871637 0.01,-1.283938 0.3765,-2.613577 -0.27668,-3.737366 0.29782,-1.536526 -1.12864,-2.654302 -0.7758,-4.18328 0.1877,-2.709825 1.60534,-5.491138 4.08106,-6.759735 1.5743,0.0825 1.79333,-1.665555 3.01709,-2.244399 0.29304,-1.630427 2.36945,-1.566911 3.05194,-2.8671939 1.28388,-0.2269227 2.65351,-0.4065108 3.97404,-0.4620436 1.4884,0.1863191 3.05505,0.4831954 4.25682,1.4257725 1.70888,0.733923 3.72416,0.321359 5.36628,1.208354 0.7512,1.008329 2.53984,0.32354 2.79235,1.925219 1.71889,0.585548 1.36086,2.665295 2.05828,4.004424 0.48362,1.384911 0.0943,3.049604 0.98856,4.277005 0.9809,0.966584 0.83785,2.573315 0.78958,3.854098 -0.56814,1.183194 -0.69257,2.562938 -1.60038,3.622961 -0.782,1.14724 -1.72844,2.200574 -3.05546,2.658778 -1.37818,0.999314 -2.72061,2.170507 -3.45438,3.732073 -1.03091,0.47016 -2.17109,0.699784 -2.90545,1.705976 -1.47334,0.264196 -3.03451,0.396298 -4.54537,0.348613 l -0.2092,-0.033 z m 2.86303,-2.808112 c 0.90473,-0.493233 2.18177,-0.184165 2.38705,-1.526292 1.36516,-0.673281 1.27678,-2.383039 2.02151,-3.486263 -0.62665,-0.958695 0.64054,-1.956151 -0.4341,-2.579299 -0.13858,-1.517298 -1.42901,-2.799119 -2.84043,-3.24548 -0.5253,-0.571127 -1.92704,-1.402693 -1.59068,0.07177 0.35393,1.891234 0.54404,3.921586 -0.0144,5.783588 -0.47544,1.203408 -1.23299,2.111831 -2.32499,2.815242 -0.19114,1.338981 -1.88952,1.622108 -2.71397,1.78762 0.95281,1.017531 2.69178,0.790672 4.0047,0.833417 0.504,-0.06292 1.13609,-0.0528 1.50533,-0.454302 z m -5.88818,-3.170625 c 0.83375,-0.731231 2.06626,-0.471482 2.38695,-1.758548 1.3776,-1.462349 1.74633,-3.629771 1.31836,-5.54909 -1.5439,1.517119 -2.98924,3.527199 -5.32202,3.713691 -1.47496,0.209368 -3.04696,0.52127 -4.46358,-0.09266 -1.12213,-0.466385 -2.95887,-0.003 -1.80516,1.459841 0.76838,1.206933 2.14297,1.760995 3.33363,2.443633 1.41095,0.348252 3.01289,0.565927 4.3737,-0.06145 z m 14.74762,-2.687466 c 0.72344,-0.87034 1.27951,-2.07065 1.28649,-3.358506 0.0703,-1.351686 -0.51125,-2.681413 -1.35879,-3.71727 -1.29897,-1.158161 -2.90691,-2.144088 -4.66378,-2.329134 -1.62883,0.124031 -3.37366,0.463523 -4.69228,1.47393 -0.0507,1.233832 2.35626,0.832068 3.26081,1.497256 1.11694,0.842562 2.52274,1.280971 3.2033,2.666175 0.75773,1.052194 0.69826,2.30025 1.44362,3.189596 -0.29546,1.374318 1.01457,2.049707 1.52063,0.577953 z m -15.0899,-3.483199 c 0.7855,-0.317929 2.79174,-1.478897 1.89846,-2.263991 -1.76088,0.370079 -3.46084,-0.618447 -4.91205,-1.507748 -0.88159,-0.559187 -0.84519,-1.675586 -1.92576,-1.943539 -0.42506,-0.927829 0.0396,-1.979148 -0.86401,-2.767623 -0.11756,-0.741707 0.0153,-1.505921 -0.79254,-0.550681 -0.90657,0.931139 -1.86855,2.006157 -1.86056,3.381654 -0.48389,0.766068 0.0505,1.086544 0.68771,1.198886 -0.76541,1.065177 -0.38766,1.956233 0.68836,2.563111 0.53268,1.169046 1.84188,2.079178 3.03456,2.337444 1.35435,0.02097 2.74493,-0.04382 4.04583,-0.447513 z m 2.233,-3.57694 c -0.51105,-1.274088 -1.13391,-2.549761 -0.94652,-3.991506 -0.24918,-1.505924 0.95966,-2.444075 1.05663,-3.830977 0.87125,-0.735671 1.79214,-1.542718 2.18418,-2.702903 0.42012,-0.590268 0.3348,-0.861591 -0.4144,-0.714 -1.02537,0.0598 -2.19636,-0.21013 -3.07167,0.428891 -1.0522,1.015323 -2.70839,1.711011 -3.04212,3.46071 -0.21392,1.465066 -1.25851,2.975119 -0.23938,4.370153 0.39416,1.295578 1.70269,1.746184 2.42658,2.595341 0.93037,-0.189447 1.16951,0.735357 1.81538,0.829252 0.15623,-0.08745 0.23181,-0.272924 0.23132,-0.444961 z m 2.72334,-2.310333 c 1.59437,-1.819408 4.08592,-2.529135 6.44166,-2.320642 1.29321,-0.124352 2.86334,0.538232 3.96061,0.315941 -0.10027,-1.439888 -1.16494,-2.966957 -2.6595,-3.178091 -0.74491,-1.171379 -2.24855,-0.954369 -3.5092,-1.050717 -1.42997,0.304905 -2.94986,0.728199 -4.04685,1.739882 -0.26248,1.071437 -1.73207,0.547864 -1.35596,1.820806 -0.28275,1.072344 -1.04861,3.346474 -0.0571,3.852588 0.4302,-0.370118 0.82861,-0.775476 1.22633,-1.179767 z"
           style="fill:#ffffff;fill-opacity:1;stroke-width:0.30251518" />
      </g>
    </g>
  </g>
</svg>
