<?xml version="1.0" encoding="UTF-8" standalone="no"?>
<svg
   xmlns:dc="http://purl.org/dc/elements/1.1/"
   xmlns:cc="http://creativecommons.org/ns#"
   xmlns:rdf="http://www.w3.org/1999/02/22-rdf-syntax-ns#"
   xmlns:svg="http://www.w3.org/2000/svg"
   xmlns="http://www.w3.org/2000/svg"
   width="336"
   height="96"
   viewBox="0 0 336 96.000002"
   id="svg3558"
   version="1.1">
  <defs
     id="defs3560" />
  <metadata
     id="metadata3563">
    <rdf:RDF>
      <cc:Work
         rdf:about="">
        <dc:format>image/svg+xml</dc:format>
        <dc:type
           rdf:resource="http://purl.org/dc/dcmitype/StillImage" />
        <dc:title></dc:title>
      </cc:Work>
    </rdf:RDF>
  </metadata>
  <path
     style="opacity:1;fill:#ffffff;fill-opacity:1;fill-rule:evenodd;stroke:none;stroke-width:2;stroke-linecap:round;stroke-linejoin:bevel;stroke-miterlimit:4;stroke-dasharray:none;stroke-opacity:1"
     d="m 216.38944,65.000218 c 0.32338,0.0026 0.65352,0.0065 0.94811,0.05302 2.7014,0.426186 5.33104,3.008916 5.66998,5.535869 0.0757,0.564666 0.17139,0.699028 0.39453,0.633117 1.47516,-0.435749 2.6625,-0.184421 3.77063,0.764106 1.39909,1.197578 1.83091,3.120862 1.05415,4.773321 -0.38996,0.829631 -1.3398,1.734425 -2.18784,2.056848 -0.53553,0.203606 -11.61287,0.251016 -11.81244,0.05146 -0.1819,-0.181854 -0.13048,-13.156801 0.053,-13.446701 0.1656,-0.261582 1.13973,-0.429237 2.10987,-0.421039 z m -4.00766,0.421039 c 0.18672,-0.01206 0.36411,0.07405 0.5536,0.263538 0.24984,0.249811 0.27845,1.046249 0.23701,6.750642 l -0.0265,6.459032 -0.63311,0.05302 c -0.34471,0.02909 -0.7211,-0.03496 -0.84363,-0.1575 -0.16931,-0.169297 -0.23704,-1.73115 -0.23704,-6.460593 0,-5.985689 0.0256,-6.221067 0.36959,-6.565071 0.21567,-0.215664 0.39339,-0.331002 0.58009,-0.343069 z m -5.69648,3.744118 c 0.0839,-0.01259 0.18136,0 0.29004,0 0.25577,0 0.54159,0.09248 0.65963,0.210519 0.30503,0.305022 0.30503,8.739495 0,9.044518 -0.11805,0.118048 -0.40386,0.210519 -0.65963,0.210518 -0.86955,0 -0.89509,-0.136738 -0.89509,-4.745252 0,-4.032449 0.0178,-4.632193 0.60505,-4.720303 z m 2.9535,1.080663 c 0.27067,0 0.5478,0.04725 0.68614,0.185568 0.15429,0.154322 0.21051,1.379364 0.21051,4.297707 0,3.536071 -0.0435,4.070574 -0.29005,4.165156 -0.45585,0.174928 -1.03484,0.126907 -1.26622,-0.10447 -0.30427,-0.304264 -0.30427,-8.054117 0,-8.358382 0.13833,-0.138336 0.38896,-0.185568 0.65962,-0.185568 z m -5.35187,1.952368 c 0.27067,0 0.54625,0.07217 0.68458,0.210521 0.29671,0.296704 0.29671,4.475056 0,4.771761 -0.25977,0.259775 -0.83869,0.248109 -1.26466,0 -0.27116,-0.157923 -0.31656,-0.473835 -0.31656,-2.371847 0,-1.465662 0.0669,-2.256344 0.21052,-2.399914 0.13833,-0.138339 0.41546,-0.210521 0.68612,-0.210521 z"
     id="path4280" />
  <path
     id="path4282"
     d="m 192.49998,48.499932 0,46.999998 47.00001,0 0,-46.999998 -47.00001,0 z m 2.5,2.5 42.00001,0 0,41.999998 -42.00001,0 0,-41.999998 z"
     style="opacity:1;fill:#ffffff;fill-opacity:1;fill-rule:evenodd;stroke:none;stroke-width:0.1;stroke-linecap:round;stroke-linejoin:bevel;stroke-miterlimit:4;stroke-dasharray:none;stroke-opacity:1" />
  <rect
     y="88.04052"
     x="197.54057"
     height="2.4188225"
     width="36.918823"
     id="rect4197"
     style="opacity:1;fill:#ffffff;fill-opacity:1;fill-rule:evenodd;stroke:#ffffff;stroke-width:0.08117731;stroke-linecap:round;stroke-linejoin:bevel;stroke-miterlimit:4;stroke-dasharray:none;stroke-opacity:1" />
  <path
     id="path4256"
     d="m 216.38944,17.000218 c 0.32339,0.0026 0.65352,0.0065 0.94812,0.05302 2.70139,0.426186 5.33103,3.008916 5.66998,5.535869 0.0757,0.564666 0.17138,0.699028 0.39453,0.633117 1.47516,-0.435749 2.66249,-0.184421 3.77063,0.764106 1.39909,1.197578 1.83091,3.120862 1.05415,4.773321 -0.38996,0.829631 -1.33981,1.734425 -2.18784,2.056848 -0.53554,0.203606 -11.61288,0.251016 -11.81245,0.05146 -0.1819,-0.181854 -0.13048,-13.156801 0.053,-13.446701 0.16559,-0.261582 1.13972,-0.429237 2.10986,-0.421039 z m -4.00766,0.421039 c 0.18672,-0.01206 0.36411,0.07405 0.5536,0.263538 0.24984,0.249811 0.27845,1.046249 0.23702,6.750642 l -0.0265,6.459032 -0.63312,0.05302 c -0.34471,0.02909 -0.72109,-0.03496 -0.84363,-0.1575 -0.16931,-0.169297 -0.23703,-1.73115 -0.23703,-6.460593 0,-5.985689 0.0255,-6.221067 0.36958,-6.565071 0.21567,-0.215664 0.39339,-0.331002 0.5801,-0.343069 z m -5.69648,3.744118 c 0.0839,-0.01259 0.18136,0 0.29004,0 0.25577,0 0.54159,0.09248 0.65963,0.210519 0.30503,0.305022 0.30503,8.739495 0,9.044518 -0.11805,0.118048 -0.40386,0.210519 -0.65963,0.210518 -0.86955,0 -0.89508,-0.136738 -0.89508,-4.745252 0,-4.032449 0.0178,-4.632193 0.60504,-4.720303 z m 2.9535,1.080663 c 0.27067,0 0.5478,0.04725 0.68614,0.185568 0.1543,0.154322 0.21051,1.379364 0.21051,4.297707 0,3.536071 -0.0435,4.070574 -0.29004,4.165156 -0.45586,0.174928 -1.03485,0.126907 -1.26623,-0.10447 -0.30426,-0.304264 -0.30426,-8.054117 0,-8.358382 0.13833,-0.138336 0.38896,-0.185568 0.65962,-0.185568 z m -5.35186,1.952368 c 0.27066,0 0.54624,0.07217 0.68457,0.210521 0.29671,0.296704 0.29671,4.475056 0,4.771761 -0.25976,0.259775 -0.83869,0.248109 -1.26466,0 -0.27116,-0.157923 -0.31656,-0.473835 -0.31656,-2.371847 0,-1.465662 0.0669,-2.256344 0.21052,-2.399914 0.13833,-0.138339 0.41547,-0.210521 0.68613,-0.210521 z"
     style="opacity:1;fill:#ffffff;fill-opacity:1;fill-rule:evenodd;stroke:none;stroke-width:2;stroke-linecap:round;stroke-linejoin:bevel;stroke-miterlimit:4;stroke-dasharray:none;stroke-opacity:1" />
  <path
     style="opacity:1;fill:#ffffff;fill-opacity:1;fill-rule:evenodd;stroke:none;stroke-width:0.1;stroke-linecap:round;stroke-linejoin:bevel;stroke-miterlimit:4;stroke-dasharray:none;stroke-opacity:1"
     d="m 192.49998,0.499932 0,46.999998 47.00001,0 0,-46.999998 -47.00001,0 z m 2.5,2.5 42.00001,0 0,41.999998 -42.00001,0 0,-41.999998 z"
     id="path4260" />
  <path
     id="path4147-4"
     d="m 105.09859,37.39162 c -0.12587,-0.12589 -0.12587,-26.65759 0,-26.78343 0.12563,-0.12562 18.29699,-0.12562 18.42263,0 0.12588,0.12587 0.12588,26.65758 0,26.78343 -0.12562,0.1256 -18.29698,0.1256 -18.42263,0 z m 15.82789,-2.59474 c 0.12574,-0.12576 0.12574,-21.46824 0,-21.59395 -0.12534,-0.12536 -13.10775,-0.12536 -13.23314,0 -0.12575,0.12574 -0.12575,21.46821 0,21.59395 0.12534,0.12534 13.10775,0.12534 13.23314,0 z m -7.07355,-2.8671 c -1.9427,-0.35367 -3.2107,-1.48544 -3.71954,-3.31998 -0.29486,-1.06309 -0.36123,-3.1341 -0.14045,-4.38371 0.29134,-1.64907 1.09252,-2.79311 2.40696,-3.43697 0.863,-0.42272 1.61168,-0.56974 2.62747,-0.51591 0.87231,0.0463 1.39532,0.17115 2.04726,0.48902 0.85793,0.4183 1.71936,1.22023 1.57941,1.4703 -0.0898,0.1603 -1.52547,1.40699 -1.62038,1.40699 -0.0429,0 -0.23649,-0.14823 -0.43017,-0.32938 -0.54206,-0.50703 -1.04556,-0.70741 -1.78905,-0.71196 -0.52963,-0.003 -0.66835,0.0235 -1.02378,0.19813 -0.64156,0.31505 -0.99282,0.82102 -1.17865,1.69775 -0.13675,0.64515 -0.1355,2.62483 0.003,3.274 0.19632,0.92645 0.70835,1.56368 1.43024,1.77998 0.39184,0.11745 1.25176,0.10085 1.62616,-0.0311 0.32267,-0.11385 0.88169,-0.48991 1.1205,-0.75379 0.0748,-0.0826 0.17856,-0.15029 0.23057,-0.15029 0.10234,0 1.53847,1.24218 1.63669,1.4157 0.21359,0.37729 -1.33549,1.48358 -2.51039,1.79283 -0.51729,0.13616 -1.80777,0.19716 -2.29492,0.10849 z m 12.86845,5.46184 c -0.12107,-0.12107 -0.12107,-2.30068 0,-2.42176 0.12481,-0.12481 8.06301,-0.12481 8.18784,0 0.0598,0.0599 0.0866,0.43245 0.0866,1.21088 0,0.77841 -0.0266,1.15098 -0.0866,1.21088 -0.12482,0.12481 -8.06301,0.12481 -8.18784,0 z"
     style="fill:#ffffff;fill-opacity:1" />
  <path
     style="opacity:1;fill:#ffffff;fill-opacity:1;fill-rule:evenodd;stroke:none;stroke-width:0.1;stroke-linecap:round;stroke-linejoin:bevel;stroke-miterlimit:4;stroke-dasharray:none;stroke-opacity:1"
     d="m 96.500002,48.499917 0,46.999998 47.000008,0 0,-46.999998 -47.000008,0 z m 2.5,2.5 42.000008,0 0,41.999998 -42.000008,0 0,-41.999998 z"
     id="path4216" />
  <rect
     style="opacity:1;fill:#ffffff;fill-opacity:1;fill-rule:evenodd;stroke:#ffffff;stroke-width:0.08117731;stroke-linecap:round;stroke-linejoin:bevel;stroke-miterlimit:4;stroke-dasharray:none;stroke-opacity:1"
     id="rect4218"
     width="36.918823"
     height="2.4188225"
     x="101.5406"
     y="88.040504" />
  <path
     id="path4224"
     d="m 96.5,0.4999 0,47 47.00001,0 0,-47 -47.00001,0 z m 2.5,2.5 42.00001,0 0,42 -42.00001,0 0,-42 z"
     style="opacity:1;fill:#ffffff;fill-opacity:1;fill-rule:evenodd;stroke:none;stroke-width:0.1;stroke-linecap:round;stroke-linejoin:bevel;stroke-miterlimit:4;stroke-dasharray:none;stroke-opacity:1" />
  <path
     style="fill:#ffffff;fill-opacity:1"
     d="m 105.09859,85.39164 c -0.12587,-0.12589 -0.12587,-26.65759 0,-26.78343 0.12563,-0.12562 18.29699,-0.12562 18.42263,0 0.12588,0.12587 0.12588,26.65758 0,26.78343 -0.12562,0.1256 -18.29698,0.1256 -18.42263,0 z m 15.82789,-2.59474 c 0.12574,-0.12576 0.12574,-21.46824 0,-21.59395 -0.12534,-0.12536 -13.10775,-0.12536 -13.23314,0 -0.12575,0.12574 -0.12575,21.46821 0,21.59395 0.12534,0.12534 13.10775,0.12534 13.23314,0 z m -7.07355,-2.8671 c -1.9427,-0.35367 -3.2107,-1.48544 -3.71954,-3.31998 -0.29486,-1.06309 -0.36123,-3.1341 -0.14045,-4.38371 0.29134,-1.64907 1.09252,-2.79311 2.40696,-3.43697 0.863,-0.42272 1.61168,-0.56974 2.62747,-0.51591 0.87231,0.0463 1.39532,0.17115 2.04726,0.48902 0.85793,0.4183 1.71936,1.22023 1.57941,1.4703 -0.0898,0.1603 -1.52547,1.40699 -1.62038,1.40699 -0.0429,0 -0.23649,-0.14823 -0.43017,-0.32938 -0.54206,-0.50703 -1.04556,-0.70741 -1.78905,-0.71196 -0.52963,-0.003 -0.66835,0.0235 -1.02378,0.19813 -0.64156,0.31505 -0.99282,0.82102 -1.17865,1.69775 -0.13675,0.64515 -0.1355,2.62483 0.003,3.274 0.19632,0.92645 0.70835,1.56368 1.43024,1.77998 0.39184,0.11745 1.25176,0.10085 1.62616,-0.0311 0.32267,-0.11385 0.88169,-0.48991 1.1205,-0.75379 0.0748,-0.0826 0.17856,-0.15029 0.23057,-0.15029 0.10234,0 1.53847,1.24218 1.63669,1.4157 0.21359,0.37729 -1.33549,1.48358 -2.51039,1.79283 -0.51729,0.13616 -1.80777,0.19716 -2.29492,0.10849 z m 12.86845,5.46184 c -0.12107,-0.12107 -0.12107,-2.30068 0,-2.42176 0.12481,-0.12481 8.06301,-0.12481 8.18784,0 0.0598,0.0599 0.0866,0.43245 0.0866,1.21088 0,0.77841 -0.0266,1.15098 -0.0866,1.21088 -0.12482,0.12481 -8.06301,0.12481 -8.18784,0 z"
     id="path4240" />
  <path
     style="fill:#ffffff;fill-opacity:1"
     d="m 61.3075,35.69656 c 0.21851,-0.14808 0.36318,-0.41428 0.36318,-0.66826 0,-0.35664 -0.18105,-0.62685 -0.96186,-1.43567 -0.81036,-0.83943 -1.31683,-1.45002 -1.75172,-2.11188 -1.14077,-1.73613 -1.77176,-3.49094 -2.08239,-5.79115 -0.0658,-0.48793 -0.0832,-0.91376 -0.082,-2.01609 9.7e-4,-1.22234 0.0146,-1.48084 0.10559,-2.06194 0.3087,-1.97181 0.92189,-3.5802 1.95516,-5.12856 0.44762,-0.67078 0.84431,-1.14501 1.67121,-1.99794 0.41611,-0.42918 0.83683,-0.8976 0.93496,-1.04091 0.30227,-0.44149 0.27516,-0.83957 -0.0752,-1.10467 -0.55495,-0.41983 -1.20792,-0.15449 -2.28092,0.92695 -0.71179,0.71738 -1.23945,1.37158 -1.87099,2.31973 -1.22264,1.83557 -1.94984,3.73331 -2.28254,5.95667 -0.10383,0.69385 -0.1192,3.33272 -0.0239,4.10095 0.34549,2.78468 1.12432,4.98176 2.4851,7.01054 1.14886,1.71284 2.36907,2.93 3.15266,3.1448 0.27223,0.0745 0.53589,0.0382 0.74371,-0.10262 z m 22.39435,-0.0137 c 0.61248,-0.3092 1.60458,-1.30058 2.51689,-2.51512 1.28054,-1.70475 2.1661,-3.61953 2.60023,-5.62236 0.55828,-2.57565 0.37272,-5.84805 -0.48028,-8.46999 -0.53932,-1.65771 -1.38495,-3.2615 -2.45122,-4.64879 -0.54494,-0.70905 -1.64783,-1.81211 -2.03444,-2.03476 -0.53459,-0.30789 -0.9363,-0.31866 -1.26077,-0.0337 -0.19393,0.17025 -0.30232,0.39462 -0.30232,0.62575 0,0.31515 0.20579,0.63374 0.82296,1.27403 0.71263,0.73935 1.09837,1.17643 1.45537,1.6491 1.35372,1.79234 2.19705,3.92231 2.51267,6.34615 0.10036,0.77 0.13873,2.62869 0.0698,3.37732 -0.15348,1.66898 -0.53364,3.08725 -1.18876,4.43509 -0.62796,1.29192 -1.28338,2.20029 -2.47599,3.4316 -0.97323,1.0048 -1.17321,1.27962 -1.17321,1.61223 0,0.28541 0.15036,0.50786 0.44463,0.65783 0.2604,0.13274 0.56897,0.10515 0.94436,-0.0844 z m -2.6461,-1.73405 c 0.72848,-0.36942 0.75953,-1.37053 0.0553,-1.78447 l -0.21866,-0.12854 -8.29714,0 -8.29711,0 -0.2243,0.13868 c -0.13559,0.0838 -0.27689,0.22371 -0.35725,0.3537 -0.32957,0.53306 -0.0667,1.26874 0.53094,1.48547 0.11278,0.0409 2.16172,0.055 8.35455,0.0576 l 8.20512,0.003 0.24849,-0.126 z m -9.71693,-3.72293 c 0.17659,-0.1766 0.0669,-0.36498 -0.27845,-0.47792 -1.00845,-0.32985 -1.74026,-1.59998 -1.73654,-3.01397 6e-4,-0.23417 0.0226,-0.51855 0.0486,-0.63196 0.13316,-0.57824 0.53512,-1.09815 1.41779,-1.83389 0.63702,-0.53096 0.84298,-0.76505 1.04583,-1.18866 0.14286,-0.29839 0.16611,-0.39579 0.18219,-0.76276 0.0226,-0.51554 -0.0521,-0.77347 -0.31678,-1.0937 -0.16717,-0.20228 -0.17879,-0.23165 -0.11114,-0.2811 0.10481,-0.0767 0.30963,-0.011 0.6105,0.19641 0.48798,0.33609 0.90175,0.95091 1.01853,1.51346 0.0456,0.21957 0.0415,0.33633 -0.0252,0.71563 -0.1604,0.91314 -0.0166,1.50035 0.43204,1.76322 0.39931,0.23402 1.07396,0.13166 1.39618,-0.21185 0.19498,-0.20786 0.20823,-0.47982 0.0505,-1.03595 -0.069,-0.24332 -0.11376,-0.45418 -0.0994,-0.46855 0.0524,-0.0525 0.35168,0.17824 0.50899,0.39254 0.5308,0.72308 0.77482,1.80451 0.60124,2.6645 -0.16064,0.79599 -0.48433,1.3519 -1.26759,2.17698 -0.49472,0.52115 -0.54884,0.61543 -0.47054,0.81949 0.0345,0.0899 0.25207,0.20823 0.38296,0.20823 0.29091,0 1.26066,-0.66499 1.90433,-1.30587 1.3458,-1.33999 1.93034,-3.02473 1.76465,-5.08609 -0.1568,-1.95123 -0.74077,-3.22171 -2.1131,-4.5973 -0.7287,-0.73042 -1.2085,-1.03267 -1.39443,-0.87835 -0.12558,0.10426 -0.0763,0.33521 0.17897,0.83745 0.55337,1.08909 0.44265,1.72334 -0.31573,1.80881 -0.15618,0.0176 -0.21371,-1.7e-4 -0.33714,-0.10405 -0.29777,-0.25056 -0.41627,-0.62405 -0.69118,-2.17855 -0.20716,-1.17134 -0.33712,-1.62863 -0.63076,-2.21936 -0.60049,-1.20809 -1.7034,-2.07772 -3.10707,-2.44987 -0.65246,-0.17297 -1.26586,-0.11012 -1.40166,0.14364 -0.0764,0.14267 -0.007,0.25386 0.30686,0.48997 0.86188,0.64892 1.28923,1.62672 1.16164,2.65795 -0.11851,0.95782 -0.48568,1.70451 -2.1547,4.38185 -0.75853,1.21681 -1.17877,2.1478 -1.32974,2.9459 -0.0766,0.40483 -0.0278,1.44176 0.0901,1.91518 0.47207,1.89593 1.95631,3.45019 3.95727,4.14391 0.45316,0.15712 0.60035,0.16621 0.72199,0.0446 z"
     id="path4232" />
  <path
     style="opacity:1;fill:#ffffff;fill-opacity:1;fill-rule:evenodd;stroke:none;stroke-width:0.1;stroke-linecap:round;stroke-linejoin:bevel;stroke-miterlimit:4;stroke-dasharray:none;stroke-opacity:1"
     d="m 48.500002,48.499877 0,46.999998 47.00001,0 0,-46.999998 -47.00001,0 z m 2.5,2.5 42.00001,0 0,41.999998 -42.00001,0 0,-41.999998 z"
     id="path4263" />
  <rect
     style="opacity:1;fill:#ffffff;fill-opacity:1;fill-rule:evenodd;stroke:#ffffff;stroke-width:0.08117731;stroke-linecap:round;stroke-linejoin:bevel;stroke-miterlimit:4;stroke-dasharray:none;stroke-opacity:1"
     id="rect4265"
     width="36.918823"
     height="2.4188225"
     x="53.540596"
     y="88.040466" />
  <path
     id="path4271"
     d="m 48.5,0.49986 0,47 47.00001,0 0,-47 -47.00001,0 z m 2.5,2.5 42.00001,0 0,42 -42.00001,0 0,-42 z"
     style="opacity:1;fill:#ffffff;fill-opacity:1;fill-rule:evenodd;stroke:none;stroke-width:0.1;stroke-linecap:round;stroke-linejoin:bevel;stroke-miterlimit:4;stroke-dasharray:none;stroke-opacity:1" />
  <path
     id="path4296"
     d="m 61.3075,83.69658 c 0.21851,-0.14808 0.36318,-0.41428 0.36318,-0.66826 0,-0.35664 -0.18105,-0.62685 -0.96186,-1.43567 -0.81036,-0.83943 -1.31683,-1.45002 -1.75172,-2.11188 -1.14077,-1.73613 -1.77176,-3.49094 -2.08239,-5.79115 -0.0658,-0.48793 -0.0832,-0.91376 -0.082,-2.01609 9.7e-4,-1.22234 0.0146,-1.48084 0.10559,-2.06194 0.3087,-1.97181 0.92189,-3.5802 1.95516,-5.12856 0.44762,-0.67078 0.84431,-1.14501 1.67121,-1.99794 0.41611,-0.42918 0.83683,-0.8976 0.93496,-1.04091 0.30227,-0.44149 0.27516,-0.83957 -0.0752,-1.10467 -0.55495,-0.41983 -1.20792,-0.15449 -2.28092,0.92695 -0.71179,0.71738 -1.23945,1.37158 -1.87099,2.31973 -1.22264,1.83557 -1.94984,3.73331 -2.28254,5.95667 -0.10383,0.69385 -0.1192,3.33272 -0.0239,4.10095 0.34549,2.78468 1.12432,4.98176 2.4851,7.01054 1.14886,1.71284 2.36907,2.93 3.15266,3.1448 0.27223,0.0745 0.53589,0.0382 0.74371,-0.10262 z m 22.39435,-0.0137 c 0.61248,-0.3092 1.60458,-1.30058 2.51689,-2.51512 1.28054,-1.70475 2.1661,-3.61953 2.60023,-5.62236 0.55828,-2.57565 0.37272,-5.84805 -0.48028,-8.46999 -0.53932,-1.65771 -1.38495,-3.2615 -2.45122,-4.64879 -0.54494,-0.70905 -1.64783,-1.81211 -2.03444,-2.03476 -0.53459,-0.30789 -0.9363,-0.31866 -1.26077,-0.0337 -0.19393,0.17025 -0.30232,0.39462 -0.30232,0.62575 0,0.31515 0.20579,0.63374 0.82296,1.27403 0.71263,0.73935 1.09837,1.17643 1.45537,1.6491 1.35372,1.79234 2.19705,3.92231 2.51267,6.34615 0.10036,0.77 0.13873,2.62869 0.0698,3.37732 -0.15348,1.66898 -0.53364,3.08725 -1.18876,4.43509 -0.62796,1.29192 -1.28338,2.20029 -2.47599,3.4316 -0.97323,1.0048 -1.17321,1.27962 -1.17321,1.61223 0,0.28541 0.15036,0.50786 0.44463,0.65783 0.2604,0.13274 0.56897,0.10515 0.94436,-0.0844 z m -2.6461,-1.73405 c 0.72848,-0.36942 0.75953,-1.37053 0.0553,-1.78447 l -0.21866,-0.12854 -8.29714,0 -8.29711,0 -0.2243,0.13868 c -0.13559,0.0838 -0.27689,0.22371 -0.35725,0.3537 -0.32957,0.53306 -0.0667,1.26874 0.53094,1.48547 0.11278,0.0409 2.16172,0.055 8.35455,0.0576 l 8.20512,0.003 0.24849,-0.126 z M 71.33882,78.2259 c 0.17659,-0.1766 0.0669,-0.36498 -0.27845,-0.47792 -1.00845,-0.32985 -1.74026,-1.59998 -1.73654,-3.01397 6e-4,-0.23417 0.0226,-0.51855 0.0486,-0.63196 0.13316,-0.57824 0.53512,-1.09815 1.41779,-1.83389 0.63702,-0.53096 0.84298,-0.76505 1.04583,-1.18866 0.14286,-0.29839 0.16611,-0.39579 0.18219,-0.76276 0.0226,-0.51554 -0.0521,-0.77347 -0.31678,-1.0937 -0.16717,-0.20228 -0.17879,-0.23165 -0.11114,-0.2811 0.10481,-0.0767 0.30963,-0.011 0.6105,0.19641 0.48798,0.33609 0.90175,0.95091 1.01853,1.51346 0.0456,0.21957 0.0415,0.33633 -0.0252,0.71563 -0.1604,0.91314 -0.0166,1.50035 0.43204,1.76322 0.39931,0.23402 1.07396,0.13166 1.39618,-0.21185 0.19498,-0.20786 0.20823,-0.47982 0.0505,-1.03595 -0.069,-0.24332 -0.11376,-0.45418 -0.0994,-0.46855 0.0524,-0.0525 0.35168,0.17824 0.50899,0.39254 0.5308,0.72308 0.77482,1.80451 0.60124,2.6645 -0.16064,0.79599 -0.48433,1.3519 -1.26759,2.17698 -0.49472,0.52115 -0.54884,0.61543 -0.47054,0.81949 0.0345,0.0899 0.25207,0.20823 0.38296,0.20823 0.29091,0 1.26066,-0.66499 1.90433,-1.30587 1.3458,-1.33999 1.93034,-3.02473 1.76465,-5.08609 -0.1568,-1.95123 -0.74077,-3.22171 -2.1131,-4.5973 -0.7287,-0.73042 -1.2085,-1.03267 -1.39443,-0.87835 -0.12558,0.10426 -0.0763,0.33521 0.17897,0.83745 0.55337,1.08909 0.44265,1.72334 -0.31573,1.80881 -0.15618,0.0176 -0.21371,-1.7e-4 -0.33714,-0.10405 -0.29777,-0.25056 -0.41627,-0.62405 -0.69118,-2.17855 -0.20716,-1.17134 -0.33712,-1.62863 -0.63076,-2.21936 -0.60049,-1.20809 -1.7034,-2.07772 -3.10707,-2.44987 -0.65246,-0.17297 -1.26586,-0.11012 -1.40166,0.14364 -0.0764,0.14267 -0.007,0.25386 0.30686,0.48997 0.86188,0.64892 1.28923,1.62672 1.16164,2.65795 -0.11851,0.95782 -0.48568,1.70451 -2.1547,4.38185 -0.75853,1.21681 -1.17877,2.1478 -1.32974,2.9459 -0.0766,0.40483 -0.0278,1.44176 0.0901,1.91518 0.47207,1.89593 1.95631,3.45019 3.95727,4.14391 0.45316,0.15712 0.60035,0.16621 0.72199,0.0446 z"
     style="fill:#ffffff;fill-opacity:1" />
  <path
     id="path4151-5"
     d="m 160.78251,32.93575 c -3.77817,-2.51025 -6.97169,-4.69424 -7.0967,-4.85329 -0.32034,-0.40761 -0.31502,-9.81787 0.006,-10.23733 0.37955,-0.49624 13.94046,-9.43838 14.31348,-9.43838 0.36961,0 13.92382,8.91424 14.31926,9.4174 0.1689,0.21489 0.22729,1.53266 0.22729,5.12915 0,3.59732 -0.0583,4.91381 -0.22729,5.1276 -0.4036,0.51078 -13.93967,9.41895 -14.3122,9.41895 -0.19812,0 -3.45145,-2.05385 -7.22962,-4.5641 z m 5.94974,-1.97894 0,-2.90639 -2.70566,-1.80955 -2.70567,-1.80955 -1.9754,1.36005 c -1.08647,0.74801 -2.0468,1.43143 -2.13407,1.51869 -0.0903,0.0903 1.90575,1.53557 4.63507,3.3559 2.63655,1.7585 4.81443,3.19725 4.83973,3.19725 0.0253,0 0.046,-1.30788 0.046,-2.9064 z m 7.59148,-0.40215 c 2.52519,-1.68248 4.58947,-3.11966 4.58729,-3.1937 -0.002,-0.074 -0.95512,-0.76206 -2.11765,-1.52894 l -2.11369,-1.39433 -2.70089,1.80636 -2.70089,1.80637 0,2.91712 c 0,2.28473 0.0492,2.88776 0.22729,2.78166 0.125,-0.0745 2.29335,-1.51204 4.81854,-3.19454 z m -4.10222,-6.10124 c 1.17731,-0.77505 2.14057,-1.45012 2.14057,-1.50012 0,-0.05 -0.98033,-0.73636 -2.17851,-1.52521 l -2.1785,-1.43432 -2.1785,1.43432 c -1.19818,0.78885 -2.17828,1.4752 -2.17802,1.52521 5.8e-4,0.0953 4.2044,2.90668 4.34899,2.90836 0.0459,0 1.04666,-0.63319 2.22397,-1.40824 z m -12.26265,-0.73877 c 0.52504,-0.34707 0.95462,-0.68966 0.95462,-0.76135 0,-0.11464 -0.59346,-0.53761 -2.40927,-1.71715 l -0.50004,-0.32483 0,2.04198 0,2.04197 0.50004,-0.32482 c 0.27502,-0.17865 0.92962,-0.60878 1.45465,-0.9558 z m 22.01073,-1.76136 -0.0545,-1.00001 -1.36374,0.90797 c -0.75006,0.49939 -1.36374,0.9908 -1.36374,1.09205 0,0.10125 0.61368,0.59268 1.36374,1.09205 l 1.36374,0.90797 0.0545,-1.00001 c 0.03,-0.55002 0.03,-1.45001 0,-2.00002 z m -13.23734,-7.01424 c 0,-2.28473 -0.0492,-2.88776 -0.22729,-2.78166 -1.25094,0.7456 -9.40884,6.28626 -9.40584,6.38824 0.002,0.074 0.95513,0.76208 2.11765,1.52894 l 2.1137,1.39433 2.70089,-1.80636 2.70089,-1.80634 0,-2.91715 z m 10.51902,4.8322 c 0.9119,-0.60005 1.65929,-1.15158 1.66086,-1.22562 0.002,-0.10203 -8.16114,-5.6457 -9.40694,-6.38824 -0.17802,-0.10604 -0.22729,0.49692 -0.22729,2.78155 l 0,2.91702 2.68201,1.80237 c 2.66314,1.78971 2.68537,1.80029 3.15769,1.50315 0.2616,-0.16459 1.22176,-0.79019 2.13367,-1.39023 z"
     style="fill:#ffffff;fill-opacity:1" />
  <path
     style="opacity:1;fill:#ffffff;fill-opacity:1;fill-rule:evenodd;stroke:none;stroke-width:0.1;stroke-linecap:round;stroke-linejoin:bevel;stroke-miterlimit:4;stroke-dasharray:none;stroke-opacity:1"
     d="m 144.5,0.49983 0,46.99995 47.00001,0 0,-46.99995 -47.00001,0 z m 2.5,2.5 42.00001,0 0,41.99995 -42.00001,0 0,-41.99995 z"
     id="path4291" />
  <path
     id="path4313"
     d="m 144.5,0.49983 0,46.99995 47.00001,0 0,-46.99995 -47.00001,0 z m 2.5,2.5 42.00001,0 0,41.99995 -42.00001,0 0,-41.99995 z"
     style="opacity:1;fill:#ffffff;fill-opacity:1;fill-rule:evenodd;stroke:none;stroke-width:0.1;stroke-linecap:round;stroke-linejoin:bevel;stroke-miterlimit:4;stroke-dasharray:none;stroke-opacity:1" />
  <path
     id="path4287"
     d="m 144.5,48.499847 0,46.999998 47.00001,0 0,-46.999998 -47.00001,0 z m 2.5,2.5 42.00001,0 0,41.999998 -42.00001,0 0,-41.999998 z"
     style="opacity:1;fill:#ffffff;fill-opacity:1;fill-rule:evenodd;stroke:none;stroke-width:0.1;stroke-linecap:round;stroke-linejoin:bevel;stroke-miterlimit:4;stroke-dasharray:none;stroke-opacity:1" />
  <rect
     y="88.040436"
     x="149.5406"
     height="2.4188225"
     width="36.918823"
     id="rect4289"
     style="opacity:1;fill:#ffffff;fill-opacity:1;fill-rule:evenodd;stroke:#ffffff;stroke-width:0.08117731;stroke-linecap:round;stroke-linejoin:bevel;stroke-miterlimit:4;stroke-dasharray:none;stroke-opacity:1" />
  <path
     id="path4315"
     d="m 160.78251,80.93578 c -3.77817,-2.5103 -6.97169,-4.6943 -7.09669,-4.8533 -0.32034,-0.4076 -0.31503,-9.8179 0.006,-10.2373 0.37954,-0.4963 13.94045,-9.4384 14.31347,-9.4384 0.36962,0 13.92382,8.9142 14.31926,9.4174 0.1689,0.2149 0.22729,1.5326 0.22729,5.1291 0,3.5973 -0.0583,4.9138 -0.22729,5.1276 -0.4036,0.5108 -13.93967,9.419 -14.3122,9.419 -0.19812,0 -3.45145,-2.0539 -7.22962,-4.5641 z m 5.94974,-1.979 0,-2.9064 -2.70566,-1.8095 -2.70567,-1.8096 -1.9754,1.3601 c -1.08647,0.748 -2.0468,1.4314 -2.13407,1.5187 -0.0903,0.09 1.90576,1.5356 4.63507,3.3559 2.63655,1.7585 4.81443,3.1972 4.83973,3.1972 0.0253,0 0.046,-1.3078 0.046,-2.9064 z m 7.59148,-0.4021 c 2.52519,-1.6825 4.58947,-3.1197 4.58729,-3.1937 -0.002,-0.074 -0.95512,-0.7621 -2.11765,-1.529 l -2.11369,-1.3943 -2.70089,1.8064 -2.70089,1.8063 0,2.9172 c 0,2.2847 0.0492,2.8877 0.22729,2.7816 0.12501,-0.074 2.29335,-1.512 4.81854,-3.1945 z m -4.10222,-6.1013 c 1.17731,-0.775 2.14057,-1.4501 2.14057,-1.5001 0,-0.05 -0.98033,-0.7363 -2.1785,-1.5252 l -2.17851,-1.4343 -2.1785,1.4343 c -1.19817,0.7889 -2.17828,1.4752 -2.17802,1.5252 5.9e-4,0.095 4.2044,2.9067 4.349,2.9084 0.0459,0 1.04665,-0.6332 2.22396,-1.4083 z m -12.26264,-0.7387 c 0.52503,-0.3471 0.95461,-0.6897 0.95461,-0.7614 0,-0.1146 -0.59346,-0.5376 -2.40927,-1.7171 l -0.50003,-0.3249 0,2.042 0,2.042 0.50003,-0.3248 c 0.27502,-0.1787 0.92962,-0.6088 1.45466,-0.9558 z m 22.01072,-1.7614 -0.0545,-1 -1.36374,0.908 c -0.75005,0.4994 -1.36374,0.9908 -1.36374,1.092 0,0.1013 0.61369,0.5927 1.36374,1.0921 l 1.36374,0.9079 0.0545,-1 c 0.03,-0.55 0.03,-1.45 0,-2 z m -13.23734,-7.0142 c 0,-2.2848 -0.0492,-2.8878 -0.22729,-2.7817 -1.25094,0.7456 -9.40884,6.2863 -9.40583,6.3883 0.002,0.074 0.95512,0.762 2.11765,1.5289 l 2.11369,1.3943 2.70089,-1.8063 2.70089,-1.8064 0,-2.9171 z m 10.51902,4.8322 c 0.9119,-0.6001 1.65929,-1.1516 1.66086,-1.2256 0.002,-0.1021 -8.16114,-5.6457 -9.40694,-6.3883 -0.17802,-0.106 -0.22729,0.4969 -0.22729,2.7816 l 0,2.917 2.68201,1.8024 c 2.66314,1.7897 2.68537,1.8002 3.15769,1.5031 0.26161,-0.1646 1.22176,-0.7902 2.13367,-1.3902 z"
     style="fill:#ffffff;fill-opacity:1" />
  <path
     id="path2987-2"
     d="m 300.89658,15.31054 22.20656,0 c 0.0804,0.045 0.15087,0.058 0.21121,0.038 0.0604,-0.02 0.10584,0.018 0.13602,0.1133 0.0301,0.096 0.0576,0.1402 0.0828,0.1351 0.0252,-0.01 0.0398,0.058 0.0447,0.1893 l 0.008,0.196 0,0.3692 c 0,0.5934 -0.23357,1.2546 -0.70124,1.9838 -0.46767,0.7291 -0.9726,1.3105 -1.5157,1.7429 -1.94107,1.5287 -3.95818,3.1225 -6.05011,4.782 -0.0604,0.05 -0.23638,0.1988 -0.52804,0.4453 -0.29166,0.2464 -0.52267,0.4344 -0.69363,0.5652 -0.17099,0.1307 -0.3951,0.2896 -0.67168,0.4756 -0.27658,0.186 -0.52992,0.3243 -0.76123,0.4149 -0.23132,0.091 -0.44771,0.1359 -0.64886,0.1359 l -0.0304,0 c -0.20114,0 -0.41754,-0.045 -0.64886,-0.1359 -0.23131,-0.091 -0.48465,-0.2289 -0.76122,-0.4149 -0.27659,-0.186 -0.5007,-0.3449 -0.67168,-0.4756 -0.17096,-0.1308 -0.40198,-0.3188 -0.69363,-0.5652 -0.29166,-0.2465 -0.4677,-0.395 -0.52805,-0.4453 -2.09192,-1.6595 -4.10904,-3.2533 -6.05011,-4.782 -1.47842,-1.1667 -2.21694,-2.5947 -2.21694,-4.2843 0,-0.1307 0.0473,-0.2441 0.14278,-0.3397 0.0956,-0.096 0.20889,-0.1436 0.33964,-0.1436 z m -0.48243,5.31 c 0.32184,0.362 0.66876,0.6944 1.04089,0.9961 2.69536,2.0718 4.83702,3.7712 6.42607,5.0988 0.51292,0.4325 0.93027,0.7699 1.25209,1.0113 0.32185,0.2414 0.75721,0.4853 1.30534,0.7317 0.54812,0.2463 1.06334,0.3692 1.54611,0.3692 l 0.0304,0 c 0.48275,0 0.99799,-0.1229 1.54611,-0.3692 0.54812,-0.2464 0.98348,-0.4903 1.30532,-0.7317 0.32183,-0.2414 0.73918,-0.5788 1.2521,-1.0113 1.58905,-1.3276 3.73071,-3.027 6.42608,-5.0988 0.37212,-0.3017 0.71904,-0.6341 1.04088,-0.9961 l 0,11.5866 c -2e-5,0.1307 -0.0473,0.2441 -0.14278,0.3395 -0.0956,0.096 -0.20891,0.1429 -0.33964,0.1429 l -22.20656,0 c -0.13074,0 -0.24408,-0.048 -0.33963,-0.1429 -0.0956,-0.095 -0.14279,-0.2088 -0.14279,-0.3395 l 0,-11.5866 z"
     style="fill:#ffffff;fill-opacity:1;fill-rule:evenodd;stroke:none" />
  <path
     style="opacity:1;fill:#ffffff;fill-opacity:1;fill-rule:evenodd;stroke:none;stroke-width:0.1;stroke-linecap:round;stroke-linejoin:bevel;stroke-miterlimit:4;stroke-dasharray:none;stroke-opacity:1"
     d="m 288.5,0.5 0,47.00004 47.00001,0 0,-47.00004 -47.00001,0 z m 2.5,2.5 42.00001,0 0,42.00004 -42.00001,0 L 291,3 Z"
     id="path4318" />
  <path
     id="path4310"
     d="m 288.5,48.499997 0,46.999998 47.00001,0 0,-46.999998 -47.00001,0 z m 2.5,2.5 42.00001,0 0,41.999998 -42.00001,0 0,-41.999998 z"
     style="opacity:1;fill:#ffffff;fill-opacity:1;fill-rule:evenodd;stroke:none;stroke-width:0.1;stroke-linecap:round;stroke-linejoin:bevel;stroke-miterlimit:4;stroke-dasharray:none;stroke-opacity:1" />
  <rect
     y="88.040581"
     x="293.54059"
     height="2.4188225"
     width="36.918823"
     id="rect4312"
     style="opacity:1;fill:#ffffff;fill-opacity:1;fill-rule:evenodd;stroke:#ffffff;stroke-width:0.08117731;stroke-linecap:round;stroke-linejoin:bevel;stroke-miterlimit:4;stroke-dasharray:none;stroke-opacity:1" />
  <path
     style="fill:#ffffff;fill-opacity:1;fill-rule:evenodd;stroke:none"
     d="m 300.89658,63.31054 22.20656,0 c 0.0804,0.045 0.15087,0.058 0.21121,0.038 0.0604,-0.02 0.10584,0.018 0.13602,0.1133 0.0301,0.096 0.0576,0.1402 0.0828,0.1351 0.0252,-0.01 0.0398,0.058 0.0447,0.1893 l 0.008,0.196 0,0.3692 c 0,0.5934 -0.23357,1.2546 -0.70124,1.9838 -0.46767,0.7291 -0.9726,1.3105 -1.5157,1.7429 -1.94107,1.5287 -3.95818,3.1225 -6.05011,4.782 -0.0604,0.05 -0.23638,0.1988 -0.52804,0.4453 -0.29166,0.2464 -0.52267,0.4344 -0.69363,0.5652 -0.17099,0.1307 -0.3951,0.2896 -0.67168,0.4756 -0.27658,0.186 -0.52992,0.3243 -0.76123,0.4149 -0.23132,0.091 -0.44771,0.1359 -0.64886,0.1359 l -0.0304,0 c -0.20114,0 -0.41754,-0.045 -0.64886,-0.1359 -0.23131,-0.091 -0.48465,-0.2289 -0.76122,-0.4149 -0.27659,-0.186 -0.5007,-0.3449 -0.67168,-0.4756 -0.17096,-0.1308 -0.40198,-0.3188 -0.69363,-0.5652 -0.29166,-0.2465 -0.4677,-0.395 -0.52805,-0.4453 -2.09192,-1.6595 -4.10904,-3.2533 -6.05011,-4.782 -1.47842,-1.1667 -2.21694,-2.5947 -2.21694,-4.2843 0,-0.1307 0.0473,-0.2441 0.14278,-0.3397 0.0956,-0.096 0.20889,-0.1436 0.33964,-0.1436 z m -0.48243,5.31 c 0.32184,0.362 0.66876,0.6944 1.04089,0.9961 2.69536,2.0718 4.83702,3.7712 6.42607,5.0988 0.51292,0.4325 0.93027,0.7699 1.25209,1.0113 0.32185,0.2414 0.75721,0.4853 1.30534,0.7317 0.54812,0.2463 1.06334,0.3692 1.54611,0.3692 l 0.0304,0 c 0.48275,0 0.99799,-0.1229 1.54611,-0.3692 0.54812,-0.2464 0.98348,-0.4903 1.30532,-0.7317 0.32183,-0.2414 0.73918,-0.5788 1.2521,-1.0113 1.58905,-1.3276 3.73071,-3.027 6.42608,-5.0988 0.37212,-0.3017 0.71904,-0.6341 1.04088,-0.9961 l 0,11.5866 c -2e-5,0.1307 -0.0473,0.2441 -0.14278,0.3395 -0.0956,0.096 -0.20891,0.1429 -0.33964,0.1429 l -22.20656,0 c -0.13074,0 -0.24408,-0.048 -0.33963,-0.1429 -0.0956,-0.095 -0.14279,-0.2088 -0.14279,-0.3395 l 0,-11.5866 z"
     id="path4334" />
  <path
     id="path4147"
     d="m 19.06109,37.43424 c -2.769044,-1.02939 -5.181454,-2.93771 -6.835644,-5.40729 -0.53376,-0.79685 -1.33193,-2.43532 -1.62601,-3.33791 -0.92792,-2.84784 -0.92566,-5.84002 0.007,-8.67303 1.74258,-5.29569 6.4527,-9.0329 12.075194,-9.58094 4.14505,-0.40404 8.36416,1.11904 11.33813,4.093 2.91569,2.91569 4.41678,7.08016 4.00912,11.1226 -0.0969,0.95939 -0.35528,2.20006 -0.63667,3.05551 -0.29338,0.89189 -1.09588,2.53393 -1.62295,3.32077 -1.413,2.1095 -3.27924,3.73804 -5.5417,4.83585 -1.60596,0.77928 -2.19752,0.91249 -2.53867,0.57167 -0.1369,-0.1369 -0.14192,-0.21195 -0.17605,-2.70136 -0.0338,-2.45988 -0.0412,-2.57776 -0.19022,-2.99607 -0.0854,-0.23948 -0.27366,-0.60944 -0.41859,-0.82211 -0.17568,-0.25768 -0.23505,-0.39494 -0.17827,-0.41135 0.047,-0.013 0.40181,-0.0757 0.78868,-0.13821 1.36312,-0.22019 2.67191,-0.76968 3.49546,-1.46759 0.91668,-0.77684 1.583,-2.0251 1.82779,-3.42417 0.38688,-2.21118 0.0506,-3.95471 -1.02042,-5.28953 l -0.25995,-0.32403 0.12224,-0.44074 c 0.16751,-0.60402 0.16361,-1.67363 -0.009,-2.39182 -0.2037,-0.84955 -0.23679,-0.8989 -0.60282,-0.8989 -0.68273,0 -1.76388,0.39355 -2.84036,1.03389 l -0.71152,0.42327 -0.5201,-0.11984 c -1.05631,-0.24332 -1.591,-0.29611 -2.99873,-0.29611 -1.40774,0 -1.94243,0.0528 -2.99873,0.29611 l -0.52011,0.11984 -0.71151,-0.42327 c -1.07649,-0.64034 -2.157644,-1.03389 -2.840344,-1.03389 -0.36605,0 -0.39915,0.0493 -0.60284,0.8989 -0.17215,0.71819 -0.17604,1.7878 -0.009,2.39182 l 0.12224,0.44074 -0.25997,0.32403 c -0.86072,1.07282 -1.25865,2.43852 -1.16456,3.99698 0.15044,2.49181 0.94426,4.08972 2.55378,5.14044 0.76657,0.50041 1.886874,0.90056 3.014124,1.07652 0.8683,0.1356 0.81487,0.0882 0.53276,0.47252 -0.24584,0.3349 -0.56219,1.10754 -0.56485,1.37959 -0.004,0.35293 -1.60535,0.61805 -2.383234,0.39443 -0.71976,-0.20691 -1.23049,-0.621 -1.73112,-1.40358 -0.31912,-0.49888 -0.76404,-0.9162 -1.25676,-1.17882 -0.81846,-0.43625 -1.83342,-0.29221 -1.44433,0.20497 0.0448,0.0573 0.2483,0.22674 0.45205,0.37641 0.63505,0.46653 1.02512,0.9561 1.4376,1.80435 0.4384,0.90157 0.79583,1.3082 1.43254,1.62961 0.66431,0.33533 1.17942,0.42552 2.185544,0.38266 0.47898,-0.0204 0.95378,-0.0572 1.05507,-0.0816 l 0.18421,-0.0445 0,1.41899 c 0,0.84513 -0.0278,1.47111 -0.069,1.54788 -0.0905,0.16918 -0.41236,0.33207 -0.64782,0.32797 -0.10319,-0.002 -0.41917,-0.0895 -0.7023,-0.19462 z m -0.22022,-4.11325 c -0.17715,-0.12966 -0.0866,-0.31114 0.15527,-0.31114 0.10719,0 0.23511,0.0484 0.28428,0.10778 0.0761,0.0914 0.0703,0.12168 -0.038,0.20095 -0.15972,0.11682 -0.24437,0.11729 -0.40144,0.002 z m 1.03643,-0.1093 c -0.16715,-0.10649 0.007,-0.30234 0.26967,-0.30234 0.25482,0 0.32027,0.1039 0.16399,0.26019 -0.12169,0.12169 -0.2841,0.13746 -0.43365,0.0421 z m -2.209944,-0.1005 c -0.11798,-0.14228 -0.0334,-0.30231 0.1599,-0.30231 0.19982,0 0.38373,0.16806 0.3318,0.30338 -0.0492,0.12801 -0.38514,0.12725 -0.49168,-10e-4 z m -0.92518,-0.51668 c -0.0441,-0.0441 -0.0803,-0.1497 -0.0803,-0.23445 0,-0.11612 0.038,-0.15415 0.15415,-0.15415 0.19631,0 0.31485,0.11853 0.31485,0.31485 0,0.11611 -0.038,0.15415 -0.15415,0.15415 -0.0848,0 -0.19025,-0.0362 -0.23448,-0.0803 z m -0.69629,-0.89278 c -0.0588,-0.12911 -0.0581,-0.18832 0.004,-0.24971 0.11646,-0.11646 0.30609,0.0214 0.3324,0.24155 0.0167,0.14209 -0.007,0.17753 -0.11872,0.17753 -0.0845,0 -0.17029,-0.0669 -0.217,-0.16937 z m -0.55853,-0.77531 c -0.0681,-0.21462 0.071,-0.3106 0.23501,-0.16212 0.18384,0.16639 0.1716,0.30289 -0.0275,0.30289 -0.10672,0 -0.17827,-0.0486 -0.20762,-0.1408 z m -0.60438,-0.53499 c -0.0247,-0.04 -0.0106,-0.10719 0.0314,-0.14915 0.0842,-0.0842 0.2782,10e-4 0.32551,0.14302 0.0333,0.10038 -0.29514,0.10613 -0.35689,0.006 z"
     style="fill:#ffffff;fill-opacity:1" />
  <path
     id="path4789"
     d="m 0.5,48.49998 0,46.99999 47.00001,0 0,-46.99999 -47.00001,0 z m 2.5,2.5 42.00001,0 0,41.99999 -42.00001,0 0,-41.99999 z"
     style="opacity:1;fill:#ffffff;fill-opacity:1;fill-rule:evenodd;stroke:none;stroke-width:0.1;stroke-linecap:round;stroke-linejoin:bevel;stroke-miterlimit:4;stroke-dasharray:none;stroke-opacity:1" />
  <rect
     y="88.04055"
     x="5.5405993"
     height="2.4188225"
     width="36.918823"
     id="rect4791"
     style="opacity:1;fill:#ffffff;fill-opacity:1;fill-rule:evenodd;stroke:#ffffff;stroke-width:0.08117731;stroke-linecap:round;stroke-linejoin:bevel;stroke-miterlimit:4;stroke-dasharray:none;stroke-opacity:1" />
  <path
     style="opacity:1;fill:#ffffff;fill-opacity:1;fill-rule:evenodd;stroke:none;stroke-width:0.1;stroke-linecap:round;stroke-linejoin:bevel;stroke-miterlimit:4;stroke-dasharray:none;stroke-opacity:1"
     d="m 0.5,0.49998 0,47 47.00001,0 0,-47 -47.00001,0 z m 2.5,2.5 42.00001,0 0,42 -42.00001,0 0,-42 z"
     id="path4793" />
  <path
     style="fill:#ffffff;fill-opacity:1"
     d="m 19.06109,85.43424 c -2.769043,-1.02939 -5.181453,-2.93771 -6.835643,-5.40729 -0.53376,-0.79685 -1.33193,-2.43532 -1.62601,-3.33791 -0.92792,-2.84784 -0.92566,-5.84002 0.007,-8.67303 1.74258,-5.29569 6.4527,-9.0329 12.075193,-9.58094 4.14505,-0.40404 8.36416,1.11904 11.33813,4.093 2.91569,2.91569 4.41678,7.08016 4.00912,11.1226 -0.0969,0.95939 -0.35528,2.20006 -0.63667,3.05551 -0.29338,0.89189 -1.09588,2.53393 -1.62295,3.32077 -1.413,2.1095 -3.27924,3.73804 -5.5417,4.83585 -1.60596,0.77928 -2.19752,0.91249 -2.53867,0.57167 -0.1369,-0.1369 -0.14192,-0.21195 -0.17605,-2.70136 -0.0338,-2.45988 -0.0412,-2.57776 -0.19022,-2.99607 -0.0854,-0.23948 -0.27366,-0.60944 -0.41859,-0.82211 -0.17568,-0.25768 -0.23505,-0.39494 -0.17827,-0.41135 0.047,-0.013 0.40181,-0.0757 0.78868,-0.13821 1.36312,-0.22019 2.67191,-0.76968 3.49546,-1.46759 0.91668,-0.77684 1.583,-2.0251 1.82779,-3.42417 0.38688,-2.21118 0.0506,-3.95471 -1.02042,-5.28953 l -0.25995,-0.32403 0.12224,-0.44074 c 0.16751,-0.60402 0.16361,-1.67363 -0.009,-2.39182 -0.2037,-0.84955 -0.23679,-0.8989 -0.60282,-0.8989 -0.68273,0 -1.76388,0.39355 -2.84036,1.03389 l -0.71152,0.42327 -0.5201,-0.11984 c -1.05631,-0.24332 -1.591,-0.29611 -2.99873,-0.29611 -1.40774,0 -1.94243,0.0528 -2.99873,0.29611 l -0.52011,0.11984 -0.71151,-0.42327 c -1.07649,-0.64034 -2.157643,-1.03389 -2.840343,-1.03389 -0.36605,0 -0.39915,0.0493 -0.60284,0.8989 -0.17215,0.71819 -0.17604,1.7878 -0.009,2.39182 l 0.12224,0.44074 -0.25997,0.32403 c -0.86072,1.07282 -1.25865,2.43852 -1.16456,3.99698 0.15044,2.49181 0.94426,4.08972 2.55378,5.14044 0.76657,0.50041 1.886873,0.90056 3.014123,1.07652 0.8683,0.1356 0.81487,0.0882 0.53276,0.47252 -0.24584,0.3349 -0.56219,1.10754 -0.56485,1.37959 -0.004,0.35293 -1.60535,0.61805 -2.383233,0.39443 -0.71976,-0.20691 -1.23049,-0.621 -1.73112,-1.40358 -0.31912,-0.49888 -0.76404,-0.9162 -1.25676,-1.17882 -0.81846,-0.43625 -1.83342,-0.29221 -1.44433,0.20497 0.0448,0.0573 0.2483,0.22674 0.45205,0.37641 0.63505,0.46653 1.02512,0.9561 1.4376,1.80435 0.4384,0.90157 0.79583,1.3082 1.43254,1.62961 0.66431,0.33533 1.17942,0.42552 2.185543,0.38266 0.47898,-0.0204 0.95378,-0.0572 1.05507,-0.0816 l 0.18421,-0.0445 0,1.41899 c 0,0.84513 -0.0278,1.47111 -0.069,1.54788 -0.0905,0.16918 -0.41236,0.33207 -0.64782,0.32797 -0.10319,-0.002 -0.41917,-0.0895 -0.7023,-0.19462 z m -0.22022,-4.11325 c -0.17715,-0.12966 -0.0866,-0.31114 0.15527,-0.31114 0.10719,0 0.23511,0.0484 0.28428,0.10778 0.0761,0.0914 0.0703,0.12168 -0.038,0.20095 -0.15972,0.11682 -0.24437,0.11729 -0.40144,0.002 z m 1.03643,-0.1093 c -0.16715,-0.10649 0.007,-0.30234 0.26967,-0.30234 0.25482,0 0.32027,0.1039 0.16399,0.26019 -0.12169,0.12169 -0.2841,0.13746 -0.43365,0.0421 z m -2.209943,-0.1005 c -0.11798,-0.14228 -0.0334,-0.30231 0.1599,-0.30231 0.19982,0 0.38373,0.16806 0.3318,0.30338 -0.0492,0.12801 -0.38514,0.12725 -0.49168,-0.001 z m -0.92518,-0.51668 c -0.0441,-0.0441 -0.0803,-0.1497 -0.0803,-0.23445 0,-0.11612 0.038,-0.15415 0.15415,-0.15415 0.19631,0 0.31485,0.11853 0.31485,0.31485 0,0.11611 -0.038,0.15415 -0.15415,0.15415 -0.0848,0 -0.19025,-0.0362 -0.23448,-0.0803 z m -0.69629,-0.89278 c -0.0588,-0.12911 -0.0581,-0.18832 0.004,-0.24971 0.11646,-0.11646 0.30609,0.0214 0.3324,0.24155 0.0167,0.14209 -0.007,0.17753 -0.11872,0.17753 -0.0845,0 -0.17029,-0.0669 -0.217,-0.16937 z m -0.55853,-0.77531 c -0.0681,-0.21462 0.071,-0.3106 0.23501,-0.16212 0.18384,0.16639 0.1716,0.30289 -0.0275,0.30289 -0.10672,0 -0.17827,-0.0486 -0.20762,-0.1408 z m -0.60438,-0.53499 c -0.0247,-0.04 -0.0106,-0.10719 0.0314,-0.14915 0.0842,-0.0842 0.2782,0.001 0.32551,0.14302 0.0333,0.10038 -0.29514,0.10613 -0.35689,0.006 z"
     id="path4806" />
  <path
     style="opacity:1;fill:#ffffff;fill-opacity:1;fill-rule:evenodd;stroke:none;stroke-width:0.1;stroke-linecap:round;stroke-linejoin:bevel;stroke-miterlimit:4;stroke-dasharray:none;stroke-opacity:1"
     d="m 240.5,48.49996 0,46.99999 47.00001,0 0,-46.99999 -47.00001,0 z m 2.5,2.5 42.00001,0 0,41.99999 -42.00001,0 0,-41.99999 z"
     id="path5138" />
  <rect
     style="opacity:1;fill:#ffffff;fill-opacity:1;fill-rule:evenodd;stroke:#ffffff;stroke-width:0.08117731;stroke-linecap:round;stroke-linejoin:bevel;stroke-miterlimit:4;stroke-dasharray:none;stroke-opacity:1"
     id="rect5140"
     width="36.918823"
     height="2.4188225"
     x="245.5406"
     y="88.040512" />
  <path
     id="path5142"
     d="m 240.5,0.49996 0,47 47.00001,0 0,-47 -47.00001,0 z m 2.5,2.5 42.00001,0 0,42 -42.00001,0 0,-42 z"
     style="opacity:1;fill:#ffffff;fill-opacity:1;fill-rule:evenodd;stroke:none;stroke-width:0.1;stroke-linecap:round;stroke-linejoin:bevel;stroke-miterlimit:4;stroke-dasharray:none;stroke-opacity:1" />
  <path
     style="fill:#ffffff;fill-opacity:1"
     d="m 263.22349,36.029734 c -0.56653,-0.0703 -1.03005,-0.261414 -1.03005,-0.424685 0,-0.163272 -0.2123,-0.296858 -0.47178,-0.296858 -0.25949,0 -0.75198,-0.239902 -1.09442,-0.533116 -0.64872,-0.555449 -1.25346,-0.708553 -3.29916,-0.835263 -0.68045,-0.04215 -1.38518,-0.300742 -1.59259,-0.584389 -0.20462,-0.279834 -0.63844,-0.561083 -0.96404,-0.625001 -0.3256,-0.06391 -0.74991,-0.401455 -0.94292,-0.750088 -0.193,-0.348632 -0.52918,-0.747932 -0.74708,-0.887329 -0.2179,-0.1394 -0.39617,-0.523195 -0.39617,-0.852877 0,-0.329685 -0.15892,-0.697643 -0.35316,-0.81769 -0.21103,-0.130424 -0.28695,-0.711897 -0.18864,-1.444868 0.0905,-0.674633 0.0501,-1.297324 -0.0898,-1.383759 -0.13985,-0.08644 -0.23089,-0.654471 -0.2023,-1.262304 0.031,-0.659451 -0.11533,-1.169349 -0.36287,-1.264342 -0.50472,-0.193678 -0.29391,-4.056208 0.23093,-4.231155 0.18255,-0.06085 0.33192,-0.355035 0.33192,-0.653741 0,-0.298703 0.42183,-0.892963 0.9374,-1.320577 0.51556,-0.427614 0.94353,-0.920101 0.95104,-1.094418 0.007,-0.174316 0.33663,-0.335422 0.7314,-0.358016 0.7644,-0.04375 2.76812,-1.7169 2.76812,-2.311447 0,-0.195275 0.39221,-0.527262 0.87158,-0.73775 0.47937,-0.210488 0.99092,-0.573436 1.13679,-0.806553 0.14586,-0.233118 0.64504,-0.385464 1.10928,-0.338549 0.46425,0.04691 1.11273,-0.06694 1.44108,-0.253006 0.82289,-0.466311 3.26287,0.129286 4.35456,1.062942 0.28292,0.241971 1.28128,0.473029 2.21857,0.513468 1.84683,0.07968 4.71508,1.267388 4.71508,1.952465 0,0.225592 0.28524,0.484764 0.63387,0.575933 0.37925,0.09918 0.63388,0.43231 0.63388,0.829312 0,0.364951 0.15926,0.663548 0.35391,0.663548 0.1978,0 0.28082,0.279446 0.18822,0.633563 -0.0911,0.348458 -0.0359,0.713754 0.12267,0.811769 0.15859,0.09802 0.20495,0.510467 0.10303,0.916557 -0.10192,0.40609 -0.0311,0.833635 0.15731,0.950096 0.18844,0.116463 0.34262,0.513005 0.34262,0.881201 0,0.368199 0.21177,0.903453 0.47059,1.189454 0.57627,0.636773 0.74606,3.561501 0.21699,3.737859 -0.20385,0.06795 -0.37064,0.479419 -0.37064,0.914373 0,0.721943 -2.07224,3.276556 -2.65787,3.276556 -0.45736,0 -3.02282,2.076494 -3.03467,2.456275 -0.0186,0.597125 -1.27366,1.734226 -1.72354,1.561588 -0.21693,-0.08324 -0.57281,0.134311 -0.79086,0.48345 -0.27676,0.443175 -0.63096,0.589973 -1.17334,0.486291 -0.42729,-0.08168 -0.85322,-0.02502 -0.9465,0.125921 -0.16994,0.274971 -0.66679,0.28364 -2.58848,0.04516 z m 2.63733,-2.342778 c 0.0953,-0.154218 0.37233,-0.280397 0.61559,-0.280397 0.60838,0 2.17352,-1.60759 2.29005,-2.352167 0.0524,-0.334952 0.24858,-0.793679 0.4359,-1.019395 0.18733,-0.225713 0.27508,-0.593464 0.19499,-0.81722 -0.0801,-0.223756 -0.0172,-0.656418 0.13966,-0.961473 0.1569,-0.305052 0.16507,-0.554643 0.0181,-0.554643 -0.1469,0 -0.51873,-0.570347 -0.82628,-1.267435 -0.36563,-0.828701 -0.82558,-1.334297 -1.32875,-1.460583 -0.42326,-0.106233 -0.76956,-0.320309 -0.76956,-0.475728 0,-0.155419 -0.28524,-0.28258 -0.63388,-0.28258 -0.6687,0 -0.87052,0.767152 -0.29533,1.12264 0.1862,0.115077 0.26374,0.404173 0.17231,0.642432 -0.0914,0.23826 -0.0353,0.514128 0.12475,0.613039 0.17433,0.107739 0.17689,0.479941 0.006,0.928377 -0.15652,0.411695 -0.21574,0.817385 -0.1316,0.901528 0.26881,0.268812 -1.19411,2.769005 -1.81447,3.101012 -0.32866,0.175891 -0.59756,0.523702 -0.59756,0.77291 0,0.567064 -1.1653,1.216421 -1.76793,0.985167 -0.24785,-0.09511 -0.45064,-0.05504 -0.45064,0.08903 0,0.694324 4.20646,0.981681 4.61819,0.315481 z m -4.79251,-2.84198 c 0.1656,-0.159975 0.55781,-0.290866 0.87158,-0.290866 0.31377,0 0.57049,-0.206847 0.57049,-0.45966 0,-0.252811 0.17828,-0.573712 0.39617,-0.713112 0.68224,-0.436463 1.07313,-1.46608 1.14636,-3.01959 l 0.0706,-1.498382 -1.36123,1.35295 c -1.21721,1.209811 -3.22666,2.261914 -3.94645,2.066269 -0.14697,-0.03995 -0.59497,0.03872 -0.99555,0.174815 -0.45361,0.154116 -0.9036,0.101974 -1.19305,-0.138246 -0.43892,-0.364271 -2.67424,-0.680949 -2.67424,-0.378858 0,0.07754 0.22348,0.611915 0.49661,1.187506 0.43423,0.915058 1.37976,1.567062 2.11814,1.460586 0.13073,-0.01884 0.2377,0.09789 0.2377,0.25942 0,0.161538 0.24959,0.364201 0.55464,0.450365 0.76575,0.216292 3.34095,-0.09844 3.70819,-0.453197 z m 12.42478,-2.525616 c 0.80199,-1.211888 1.14276,-3.177058 0.63838,-3.681439 -0.11621,-0.116213 -0.2113,-0.394974 -0.2113,-0.619471 0,-0.870202 -2.5557,-2.876374 -3.17593,-2.493045 -0.17072,0.105505 -0.31039,0.05742 -0.31039,-0.106849 0,-0.880271 -3.36561,-0.484655 -4.73245,0.556283 l -0.7707,0.586948 1.82093,0.378024 c 1.00152,0.207915 1.89843,0.579963 1.99314,0.826774 0.0947,0.246812 0.44666,0.44875 0.78212,0.44875 0.33545,0 0.698,0.249591 0.80566,0.554643 0.10767,0.305055 0.48408,0.874982 0.83648,1.266505 0.35239,0.391526 0.54476,0.807818 0.42749,0.925096 -0.11728,0.11728 0.0183,0.469084 0.3013,0.781791 0.28299,0.312707 0.43576,0.773861 0.33947,1.024788 -0.15325,0.399355 0.006,0.835136 0.30499,0.835136 0.0556,0 0.4835,-0.577769 0.95081,-1.283934 z m -13.40968,-2.372406 c 1.06055,-0.198959 2.42697,-1.156096 2.42697,-1.700014 0,-0.143353 -0.3571,-0.192379 -0.79355,-0.108946 -0.93782,0.179276 -4.27747,-1.400532 -4.27747,-2.023436 0,-0.226836 -0.29777,-0.57179 -0.6617,-0.766563 -0.48469,-0.259398 -0.61247,-0.550282 -0.47766,-1.087391 0.12602,-0.50212 0.0243,-0.794563 -0.32274,-0.927728 -0.36875,-0.141504 -0.45291,-0.431037 -0.30899,-1.063096 l 0.19777,-0.868628 -0.80591,0.950816 c -1.28867,1.520391 -1.31641,1.566702 -1.49366,2.493943 -0.10888,0.569539 -0.0203,0.940938 0.24917,1.044328 0.29249,0.112237 0.33728,0.373129 0.14906,0.868184 -0.20617,0.542275 -0.12785,0.795935 0.33504,1.085008 0.33226,0.207502 0.60411,0.557567 0.60411,0.777925 0,0.668394 2.76703,1.890616 3.70152,1.634994 0.20552,-0.05622 0.87064,-0.195445 1.47804,-0.309396 z m 2.42697,-3.293673 c 0,-0.161867 -0.20253,-0.496836 -0.45008,-0.744375 -0.55192,-0.55193 -0.48642,-4.08994 0.0792,-4.278486 0.20397,-0.06799 0.37086,-0.481645 0.37086,-0.919229 0,-0.491232 0.21223,-0.851107 0.55475,-0.940676 0.4773,-0.124818 1.34688,-1.428131 1.34688,-2.018692 0,-0.372994 -2.69556,-0.151459 -2.94743,0.242237 -0.1394,0.217897 -0.38251,0.396174 -0.54024,0.396174 -0.63801,0 -1.88479,1.658315 -2.08504,2.77327 -0.11741,0.653654 -0.31789,1.384743 -0.44552,1.62464 -0.25679,0.482688 0.50617,2.257804 0.97042,2.257804 0.16155,0 0.29373,0.180381 0.29373,0.400848 0,0.220466 0.53483,0.641 1.18852,0.934524 1.39351,0.625723 1.66393,0.669922 1.66393,0.271961 z m 4.55005,-3.312629 c 0.6722,-0.279986 1.33769,-0.437682 1.47886,-0.350435 0.14117,0.08725 0.59705,0.02922 1.01306,-0.128946 0.41601,-0.158168 0.96281,-0.17297 1.21512,-0.0329 0.2523,0.140075 0.9579,0.302994 1.56801,0.362046 0.95243,0.09218 1.09403,0.02018 1.00138,-0.509133 -0.14631,-0.83592 -1.34959,-2.060277 -2.03143,-2.067006 -0.30506,-0.003 -0.55464,-0.131913 -0.55464,-0.286444 0,-0.154532 -0.46353,-0.357188 -1.03005,-0.45035 -1.3081,-0.215108 -4.67485,0.672693 -4.67485,1.232742 0,0.229841 -0.19311,0.531947 -0.42914,0.671347 -0.67034,0.395907 -1.15555,1.536055 -1.15555,2.715303 0,1.514582 0.21253,1.575576 1.36527,0.391825 0.55647,-0.57144 1.56175,-1.268064 2.23396,-1.548053 z"
     id="path4185" />
  <path
     style="fill:#ffffff;fill-opacity:1"
     d="m 263.4612,36.040556 c -1.01426,-0.410898 -2.08378,-0.705942 -2.96498,-1.374112 -1.33447,-1.153919 -3.37487,-0.241602 -4.71982,-1.329718 -0.81649,-0.687418 -1.95717,-0.889754 -2.4137,-1.993631 -0.88948,-0.579055 -0.51475,-1.815687 -1.2611,-2.406843 0.008,-1.076124 0.31556,-2.190552 -0.23189,-3.132448 0.24961,-1.287828 -0.94597,-2.224684 -0.65023,-3.506187 0.15732,-2.271221 1.3455,-4.602359 3.4205,-5.665625 1.3195,0.06914 1.50307,-1.395973 2.52876,-1.881128 0.24561,-1.36653 1.98594,-1.313295 2.55796,-2.403118 1.07607,-0.190194 2.22403,-0.340714 3.33082,-0.387258 1.24749,0.156162 2.56056,0.404986 3.56782,1.195001 1.43229,0.615132 3.12138,0.269344 4.49771,1.012774 0.62961,0.845123 2.12875,0.271172 2.34039,1.613608 1.44068,0.490774 1.14059,2.233899 1.72514,3.35628 0.40533,1.160754 0.079,2.556005 0.82854,3.584742 0.82214,0.810136 0.70225,2.156806 0.66179,3.230286 -0.47618,0.991686 -0.58047,2.148109 -1.34134,3.036559 -0.65543,0.961552 -1.44869,1.844396 -2.56092,2.228437 -1.15511,0.837568 -2.28026,1.819196 -2.89526,3.128011 -0.86405,0.394061 -1.81969,0.586519 -2.43519,1.429853 -1.23487,0.221433 -2.54335,0.332154 -3.80967,0.292187 l -0.17533,-0.02766 0,-10e-6 z m 2.39962,-2.3536 c 0.75829,-0.4134 1.82864,-0.154357 2.00069,-1.279251 1.1442,-0.564306 1.07013,-1.997328 1.69431,-2.921988 -0.52522,-0.803523 0.53687,-1.639534 -0.36383,-2.161821 -0.11616,-1.271713 -1.19772,-2.346062 -2.38069,-2.720177 -0.44027,-0.478686 -1.61514,-1.175657 -1.33322,0.06015 0.29664,1.585125 0.45598,3.28685 -0.0121,4.847474 -0.39849,1.008628 -1.03342,1.770017 -1.94868,2.359576 -0.1602,1.122257 -1.58369,1.359558 -2.27469,1.498281 0.79859,0.852837 2.25609,0.662696 3.35651,0.698523 0.42242,-0.05273 0.9522,-0.04426 1.26168,-0.38077 z m -4.93513,-2.657438 c 0.6988,-0.612876 1.73181,-0.395169 2.0006,-1.473915 1.15463,-1.225658 1.46368,-3.042267 1.10498,-4.650931 -1.29402,1.271563 -2.50541,2.956298 -4.46062,3.112604 -1.23623,0.175481 -2.55379,0.436899 -3.74112,-0.07766 -0.94051,-0.390897 -2.47996,-0.0025 -1.51298,1.223556 0.64401,1.011583 1.79611,1.475966 2.79406,2.048114 1.18257,0.291886 2.52523,0.474328 3.66578,-0.0515 l 0.1493,-0.130259 0,0 z m 12.36061,-2.252481 c 0.60634,-0.729469 1.07241,-1.735501 1.07826,-2.814908 0.0589,-1.132906 -0.4285,-2.247408 -1.13886,-3.115604 -1.08872,-0.970705 -2.43641,-1.797053 -3.90891,-1.952148 -1.3652,0.103956 -2.82761,0.388499 -3.93281,1.235364 -0.0425,1.034128 1.97489,0.697392 2.73303,1.254915 0.93616,0.706188 2.11442,1.073637 2.68482,2.234637 0.63509,0.881888 0.58524,1.927938 1.20996,2.673337 -0.24763,1.151875 0.85036,1.717948 1.27451,0.484407 z m -12.6475,-2.919419 c 0.65837,-0.26647 2.33988,-1.239527 1.59118,-1.897548 -1.47587,0.310179 -2.90068,-0.518347 -4.117,-1.263708 -0.73889,-0.468679 -0.70838,-1.404381 -1.61405,-1.628964 -0.35627,-0.777654 0.0332,-1.658809 -0.72417,-2.319665 -0.0985,-0.621656 0.0128,-1.262177 -0.66427,-0.461549 -0.75983,0.780428 -1.5661,1.681447 -1.55941,2.83431 -0.40557,0.642075 0.0423,0.910679 0.5764,1.004838 -0.64153,0.892771 -0.32491,1.639603 0.57694,2.148254 0.44647,0.979827 1.54377,1.742648 2.5434,1.959112 1.13514,0.01757 2.30064,-0.03673 3.39098,-0.37508 z m 1.87158,-2.997987 c -0.42834,-1.067868 -0.95038,-2.137065 -0.79332,-3.345454 -0.20885,-1.262179 0.80433,-2.048484 0.8856,-3.210906 0.73024,-0.616598 1.50208,-1.293019 1.83066,-2.26542 0.35212,-0.494729 0.28061,-0.722136 -0.34733,-0.598433 -0.8594,0.05012 -1.84086,-0.17612 -2.5745,0.359471 -0.88189,0.850986 -2.27001,1.434072 -2.54973,2.900571 -0.1793,1.227934 -1.05481,2.493575 -0.20063,3.662813 0.33036,1.08588 1.42709,1.463552 2.03382,2.175267 0.77979,-0.158784 0.98022,0.616334 1.52155,0.695031 0.13094,-0.07329 0.19429,-0.228748 0.19388,-0.37294 z m 2.28255,-1.936389 c 1.3363,-1.524925 3.42458,-2.119778 5.39903,-1.945031 1.0839,-0.104224 2.39989,0.451116 3.31956,0.264804 -0.084,-1.206832 -0.97639,-2.486735 -2.22905,-2.663695 -0.62433,-0.981783 -1.8846,-0.799898 -2.94121,-0.880652 -1.19852,0.255555 -2.4724,0.610336 -3.39184,1.458271 -0.21999,0.898017 -1.45172,0.459189 -1.13648,1.526096 -0.23699,0.898777 -0.87889,2.804824 -0.0479,3.22902 0.36057,-0.310212 0.69449,-0.64996 1.02784,-0.988813 z"
     id="path4183" />
  <path
     id="path4306"
     d="m 263.22349,84.029726 c -0.56653,-0.0703 -1.03005,-0.261414 -1.03005,-0.424685 0,-0.163272 -0.2123,-0.296858 -0.47178,-0.296858 -0.25949,0 -0.75198,-0.239902 -1.09442,-0.533116 -0.64872,-0.555449 -1.25346,-0.708553 -3.29916,-0.835263 -0.68045,-0.04214 -1.38518,-0.300742 -1.59259,-0.584389 -0.20462,-0.279834 -0.63844,-0.561083 -0.96404,-0.625001 -0.3256,-0.06391 -0.74991,-0.401455 -0.94292,-0.750088 -0.193,-0.348632 -0.52918,-0.747932 -0.74708,-0.887329 -0.2179,-0.1394 -0.39617,-0.523195 -0.39617,-0.852877 0,-0.329685 -0.15892,-0.697643 -0.35316,-0.81769 -0.21103,-0.130424 -0.28695,-0.711897 -0.18864,-1.444868 0.0905,-0.674633 0.0501,-1.297324 -0.0898,-1.383759 -0.13985,-0.08644 -0.23089,-0.654471 -0.2023,-1.262304 0.031,-0.659451 -0.11533,-1.169349 -0.36287,-1.264342 -0.50472,-0.193678 -0.29391,-4.056208 0.23093,-4.231155 0.18255,-0.06085 0.33192,-0.355035 0.33192,-0.653741 0,-0.298703 0.42183,-0.892963 0.9374,-1.320577 0.51556,-0.427614 0.94353,-0.920101 0.95104,-1.094418 0.007,-0.174316 0.33663,-0.335422 0.7314,-0.358016 0.7644,-0.04375 2.76812,-1.7169 2.76812,-2.311447 0,-0.195275 0.39221,-0.527262 0.87158,-0.73775 0.47937,-0.210488 0.99092,-0.573436 1.13679,-0.806553 0.14586,-0.233118 0.64504,-0.385464 1.10928,-0.338549 0.46425,0.04691 1.11273,-0.06694 1.44108,-0.253006 0.82289,-0.466311 3.26287,0.129286 4.35456,1.062942 0.28292,0.241971 1.28128,0.473029 2.21857,0.513468 1.84683,0.07968 4.71508,1.267388 4.71508,1.952465 0,0.225592 0.28524,0.484764 0.63387,0.575933 0.37925,0.09918 0.63388,0.43231 0.63388,0.829312 0,0.364951 0.15926,0.663548 0.35391,0.663548 0.1978,0 0.28082,0.279446 0.18822,0.633563 -0.0911,0.348458 -0.0359,0.713754 0.12267,0.811769 0.15859,0.09801 0.20495,0.510467 0.10303,0.916557 -0.10192,0.40609 -0.0311,0.833635 0.15731,0.950096 0.18844,0.116463 0.34262,0.513005 0.34262,0.881201 0,0.368199 0.21177,0.903453 0.47059,1.189454 0.57627,0.636773 0.74606,3.561501 0.21699,3.737859 -0.20385,0.06795 -0.37064,0.479419 -0.37064,0.914373 0,0.721943 -2.07224,3.276556 -2.65787,3.276556 -0.45736,0 -3.02282,2.076494 -3.03467,2.456275 -0.0186,0.597125 -1.27366,1.734226 -1.72354,1.561588 -0.21693,-0.08324 -0.57281,0.134311 -0.79086,0.48345 -0.27676,0.443175 -0.63096,0.589973 -1.17334,0.486291 -0.42729,-0.08168 -0.85322,-0.02502 -0.9465,0.125921 -0.16994,0.274971 -0.66679,0.28364 -2.58848,0.04516 z m 2.63733,-2.342778 c 0.0953,-0.154218 0.37233,-0.280397 0.61559,-0.280397 0.60838,0 2.17352,-1.60759 2.29005,-2.352167 0.0524,-0.334952 0.24858,-0.793679 0.4359,-1.019395 0.18733,-0.225713 0.27508,-0.593464 0.19499,-0.81722 -0.0801,-0.223756 -0.0172,-0.656418 0.13966,-0.961473 0.1569,-0.305052 0.16507,-0.554643 0.0181,-0.554643 -0.1469,0 -0.51873,-0.570347 -0.82628,-1.267435 -0.36563,-0.828701 -0.82558,-1.334297 -1.32875,-1.460583 -0.42326,-0.106233 -0.76956,-0.320309 -0.76956,-0.475728 0,-0.155419 -0.28524,-0.28258 -0.63388,-0.28258 -0.6687,0 -0.87052,0.767152 -0.29533,1.12264 0.1862,0.115077 0.26374,0.404173 0.17231,0.642432 -0.0914,0.23826 -0.0353,0.514128 0.12475,0.613039 0.17433,0.107739 0.17689,0.479941 0.006,0.928377 -0.15652,0.411695 -0.21574,0.817385 -0.1316,0.901528 0.26881,0.268812 -1.19411,2.769005 -1.81447,3.101012 -0.32866,0.175891 -0.59756,0.523702 -0.59756,0.77291 0,0.567064 -1.1653,1.216421 -1.76793,0.985167 -0.24785,-0.09511 -0.45064,-0.05504 -0.45064,0.08903 0,0.694324 4.20646,0.981681 4.61819,0.315481 z m -4.79251,-2.84198 c 0.1656,-0.159975 0.55781,-0.290866 0.87158,-0.290866 0.31377,0 0.57049,-0.206847 0.57049,-0.45966 0,-0.252811 0.17828,-0.573712 0.39617,-0.713112 0.68224,-0.436463 1.07313,-1.46608 1.14636,-3.01959 l 0.0706,-1.498382 -1.36123,1.35295 c -1.21721,1.209811 -3.22666,2.261914 -3.94645,2.066269 -0.14697,-0.03995 -0.59497,0.03872 -0.99555,0.174815 -0.45361,0.154116 -0.9036,0.101974 -1.19305,-0.138246 -0.43892,-0.364271 -2.67424,-0.680949 -2.67424,-0.378858 0,0.07754 0.22348,0.611915 0.49661,1.187506 0.43423,0.915058 1.37976,1.567062 2.11814,1.460586 0.13073,-0.01884 0.2377,0.09789 0.2377,0.25942 0,0.161538 0.24959,0.364201 0.55464,0.450365 0.76575,0.216292 3.34095,-0.09844 3.70819,-0.453197 z m 12.42478,-2.525616 c 0.80199,-1.211888 1.14276,-3.177058 0.63838,-3.681439 -0.11621,-0.116213 -0.2113,-0.394974 -0.2113,-0.619471 0,-0.870202 -2.5557,-2.876374 -3.17593,-2.493045 -0.17072,0.105505 -0.31039,0.05742 -0.31039,-0.106849 0,-0.880271 -3.36561,-0.484655 -4.73245,0.556283 l -0.7707,0.586948 1.82093,0.378024 c 1.00152,0.207915 1.89843,0.579963 1.99314,0.826774 0.0947,0.246812 0.44666,0.44875 0.78212,0.44875 0.33545,0 0.698,0.249591 0.80566,0.554643 0.10767,0.305055 0.48408,0.874982 0.83648,1.266505 0.35239,0.391526 0.54476,0.807818 0.42749,0.925096 -0.11728,0.11728 0.0183,0.469084 0.3013,0.781791 0.28299,0.312707 0.43576,0.773861 0.33947,1.024788 -0.15325,0.399355 0.006,0.835136 0.30499,0.835136 0.0556,0 0.4835,-0.577769 0.95081,-1.283934 z m -13.40968,-2.372406 c 1.06055,-0.198959 2.42697,-1.156096 2.42697,-1.700014 0,-0.143353 -0.3571,-0.192379 -0.79355,-0.108946 -0.93782,0.179276 -4.27747,-1.400532 -4.27747,-2.023436 0,-0.226836 -0.29777,-0.57179 -0.6617,-0.766563 -0.48469,-0.259398 -0.61247,-0.550282 -0.47766,-1.087391 0.12602,-0.50212 0.0243,-0.794563 -0.32274,-0.927728 -0.36875,-0.141504 -0.45291,-0.431037 -0.30899,-1.063096 l 0.19777,-0.868628 -0.80591,0.950816 c -1.28867,1.520391 -1.31641,1.566702 -1.49366,2.493943 -0.10888,0.569539 -0.0203,0.940938 0.24917,1.044328 0.29249,0.112237 0.33728,0.373129 0.14906,0.868184 -0.20617,0.542275 -0.12785,0.795935 0.33504,1.085008 0.33226,0.207502 0.60411,0.557567 0.60411,0.777925 0,0.668394 2.76703,1.890616 3.70152,1.634994 0.20552,-0.05622 0.87064,-0.195445 1.47804,-0.309396 z m 2.42697,-3.293673 c 0,-0.161867 -0.20253,-0.496836 -0.45008,-0.744375 -0.55192,-0.55193 -0.48642,-4.08994 0.0792,-4.278486 0.20397,-0.06799 0.37086,-0.481645 0.37086,-0.919229 0,-0.491232 0.21223,-0.851107 0.55475,-0.940676 0.4773,-0.124818 1.34688,-1.428131 1.34688,-2.018692 0,-0.372994 -2.69556,-0.151459 -2.94743,0.242237 -0.1394,0.217897 -0.38251,0.396174 -0.54024,0.396174 -0.63801,0 -1.88479,1.658315 -2.08504,2.77327 -0.11741,0.653654 -0.31789,1.384743 -0.44552,1.62464 -0.25679,0.482688 0.50617,2.257804 0.97042,2.257804 0.16155,0 0.29373,0.180381 0.29373,0.400848 0,0.220466 0.53483,0.641 1.18852,0.934524 1.39351,0.625723 1.66393,0.669922 1.66393,0.271961 z m 4.55005,-3.312629 c 0.6722,-0.279986 1.33769,-0.437682 1.47886,-0.350435 0.14117,0.08725 0.59705,0.02922 1.01306,-0.128946 0.41601,-0.158168 0.96281,-0.17297 1.21512,-0.0329 0.2523,0.140075 0.9579,0.302994 1.56801,0.362046 0.95243,0.09218 1.09403,0.02018 1.00138,-0.509133 -0.14631,-0.83592 -1.34959,-2.060277 -2.03143,-2.067006 -0.30506,-0.003 -0.55464,-0.131913 -0.55464,-0.286444 0,-0.154532 -0.46353,-0.357188 -1.03005,-0.45035 -1.3081,-0.215108 -4.67485,0.672693 -4.67485,1.232742 0,0.229841 -0.19311,0.531947 -0.42914,0.671347 -0.67034,0.395907 -1.15555,1.536055 -1.15555,2.715303 0,1.514582 0.21253,1.575576 1.36527,0.391825 0.55647,-0.57144 1.56175,-1.268064 2.23396,-1.548053 z"
     style="fill:#ffffff;fill-opacity:1" />
  <path
     id="path4308"
     d="m 263.4612,84.040548 c -1.01426,-0.410898 -2.08378,-0.705942 -2.96498,-1.374112 -1.33447,-1.153919 -3.37487,-0.241602 -4.71982,-1.329718 -0.81649,-0.687418 -1.95717,-0.889754 -2.4137,-1.993631 -0.88948,-0.579055 -0.51475,-1.815687 -1.2611,-2.406843 0.008,-1.076124 0.31556,-2.190552 -0.23189,-3.132448 0.24961,-1.287828 -0.94597,-2.224684 -0.65023,-3.506187 0.15732,-2.271221 1.3455,-4.602359 3.4205,-5.665625 1.3195,0.06914 1.50307,-1.395973 2.52876,-1.881128 0.24561,-1.36653 1.98594,-1.313295 2.55796,-2.403118 1.07607,-0.190194 2.22403,-0.340714 3.33082,-0.387258 1.24749,0.156162 2.56056,0.404986 3.56782,1.195001 1.43229,0.615132 3.12138,0.269344 4.49771,1.012774 0.62961,0.845123 2.12875,0.271172 2.34039,1.613608 1.44068,0.490774 1.14059,2.233899 1.72514,3.35628 0.40533,1.160754 0.079,2.556005 0.82854,3.584742 0.82214,0.810136 0.70225,2.156806 0.66179,3.230286 -0.47618,0.991686 -0.58047,2.148109 -1.34134,3.036559 -0.65543,0.961552 -1.44869,1.844396 -2.56092,2.228437 -1.15511,0.837568 -2.28026,1.819196 -2.89526,3.128011 -0.86405,0.394061 -1.81969,0.586519 -2.43519,1.429853 -1.23487,0.221433 -2.54335,0.332154 -3.80967,0.292187 l -0.17533,-0.02766 0,-1e-5 z m 2.39962,-2.3536 c 0.75829,-0.4134 1.82864,-0.154357 2.00069,-1.279251 1.1442,-0.564306 1.07013,-1.997328 1.69431,-2.921988 -0.52522,-0.803523 0.53687,-1.639534 -0.36383,-2.161821 -0.11616,-1.271713 -1.19772,-2.346062 -2.38069,-2.720177 -0.44027,-0.478686 -1.61514,-1.175657 -1.33322,0.06015 0.29664,1.585125 0.45598,3.28685 -0.0121,4.847474 -0.39849,1.008628 -1.03342,1.770017 -1.94868,2.359576 -0.1602,1.122257 -1.58369,1.359558 -2.27469,1.498281 0.79859,0.852837 2.25609,0.662696 3.35651,0.698523 0.42242,-0.05273 0.9522,-0.04426 1.26168,-0.38077 z m -4.93513,-2.657438 c 0.6988,-0.612876 1.73181,-0.395169 2.0006,-1.473915 1.15463,-1.225658 1.46368,-3.042267 1.10498,-4.650931 -1.29402,1.271563 -2.50541,2.956298 -4.46062,3.112604 -1.23623,0.175481 -2.55379,0.436899 -3.74112,-0.07766 -0.94051,-0.390897 -2.47996,-0.0025 -1.51298,1.223556 0.64401,1.011583 1.79611,1.475966 2.79406,2.048114 1.18257,0.291886 2.52523,0.474328 3.66578,-0.0515 l 0.1493,-0.130259 0,0 z m 12.36061,-2.252481 c 0.60634,-0.729469 1.07241,-1.735501 1.07826,-2.814908 0.0589,-1.132906 -0.4285,-2.247408 -1.13886,-3.115604 -1.08872,-0.970705 -2.43641,-1.797053 -3.90891,-1.952148 -1.3652,0.103956 -2.82761,0.388499 -3.93281,1.235364 -0.0425,1.034128 1.97489,0.697392 2.73303,1.254915 0.93616,0.706188 2.11442,1.073637 2.68482,2.234637 0.63509,0.881888 0.58524,1.927938 1.20996,2.673337 -0.24763,1.151875 0.85036,1.717948 1.27451,0.484407 z M 260.6388,73.85761 c 0.65837,-0.26647 2.33988,-1.239527 1.59118,-1.897548 -1.47587,0.310179 -2.90068,-0.518347 -4.117,-1.263708 -0.73889,-0.468679 -0.70838,-1.404381 -1.61405,-1.628964 -0.35627,-0.777654 0.0332,-1.658809 -0.72417,-2.319665 -0.0985,-0.621656 0.0128,-1.262177 -0.66427,-0.461549 -0.75983,0.780428 -1.5661,1.681447 -1.55941,2.83431 -0.40557,0.642075 0.0423,0.910679 0.5764,1.004838 -0.64153,0.892771 -0.32491,1.639603 0.57694,2.148254 0.44647,0.979827 1.54377,1.742648 2.5434,1.959112 1.13514,0.01757 2.30064,-0.03673 3.39098,-0.37508 z m 1.87158,-2.997987 c -0.42834,-1.067868 -0.95038,-2.137065 -0.79332,-3.345454 -0.20885,-1.262179 0.80433,-2.048484 0.8856,-3.210906 0.73024,-0.616598 1.50208,-1.293019 1.83066,-2.26542 0.35212,-0.494729 0.28061,-0.722136 -0.34733,-0.598433 -0.8594,0.05012 -1.84086,-0.17612 -2.5745,0.359471 -0.88189,0.850986 -2.27001,1.434072 -2.54973,2.900571 -0.1793,1.227934 -1.05481,2.493575 -0.20063,3.662813 0.33036,1.08588 1.42709,1.463552 2.03382,2.175267 0.77979,-0.158784 0.98022,0.616334 1.52155,0.695031 0.13094,-0.07329 0.19429,-0.228748 0.19388,-0.37294 z m 2.28255,-1.936389 c 1.3363,-1.524925 3.42458,-2.119778 5.39903,-1.945031 1.0839,-0.104224 2.39989,0.451116 3.31956,0.264804 -0.084,-1.206832 -0.97639,-2.486735 -2.22905,-2.663695 -0.62433,-0.981783 -1.8846,-0.799898 -2.94121,-0.880652 -1.19852,0.255555 -2.4724,0.610336 -3.39184,1.458271 -0.21999,0.898017 -1.45172,0.459189 -1.13648,1.526096 -0.23699,0.898777 -0.87889,2.804824 -0.0479,3.22902 0.36057,-0.310212 0.69449,-0.64996 1.02784,-0.988813 z"
     style="fill:#ffffff;fill-opacity:1" />
</svg>
