<?xml version="1.0" encoding="UTF-8" standalone="no"?>
<svg
   xmlns:dc="http://purl.org/dc/elements/1.1/"
   xmlns:cc="http://creativecommons.org/ns#"
   xmlns:rdf="http://www.w3.org/1999/02/22-rdf-syntax-ns#"
   xmlns:svg="http://www.w3.org/2000/svg"
   xmlns="http://www.w3.org/2000/svg"
   version="1.1"
   id="svg2"
   viewBox="0 0 500 199.99895"
   height="199.99896"
   width="500">
  <defs
     id="defs4" />
  <metadata
     id="metadata7">
    <rdf:RDF>
      <cc:Work
         rdf:about="">
        <dc:format>image/svg+xml</dc:format>
        <dc:type
           rdf:resource="http://purl.org/dc/dcmitype/StillImage" />
        <dc:title></dc:title>
      </cc:Work>
    </rdf:RDF>
  </metadata>
  <g
     transform="translate(-173.24909,-235.64207)"
     id="layer1">
    <flowRoot
       transform="translate(-825.91208,1217.5643)"
       style="font-style:normal;font-variant:normal;font-weight:normal;font-stretch:normal;font-size:30px;line-height:125%;font-family:'Space Age';-inkscape-font-specification:'Space Age';letter-spacing:0px;word-spacing:0px;fill:#000000;fill-opacity:1;stroke:none;stroke-width:1px;stroke-linecap:butt;stroke-linejoin:miter;stroke-opacity:1"
       id="flowRoot3369"
       xml:space="preserve"><flowRegion
         id="flowRegion3371"><rect
           style="font-style:normal;font-variant:normal;font-weight:normal;font-stretch:normal;font-family:'Space Age';-inkscape-font-specification:'Space Age'"
           y="312.85715"
           x="-764.28571"
           height="267.14285"
           width="365.71429"
           id="rect3373" /></flowRegion><flowPara
         id="flowPara3375" /></flowRoot>    <text
       id="text3377"
       y="747.40387"
       x="-1451.1078"
       style="font-style:normal;font-variant:normal;font-weight:normal;font-stretch:normal;font-size:27.5px;line-height:125%;font-family:'Playfair Display';-inkscape-font-specification:'Playfair Display, Normal';text-align:start;letter-spacing:0px;word-spacing:0px;writing-mode:lr-tb;text-anchor:start;fill:#000000;fill-opacity:1;stroke:none;stroke-width:1px;stroke-linecap:butt;stroke-linejoin:miter;stroke-opacity:1"
       xml:space="preserve"><tspan
         y="747.40387"
         x="-1451.1078"
         id="tspan3379" /></text>
    <flowRoot
       transform="translate(-825.91208,1217.5643)"
       style="font-style:normal;font-variant:normal;font-weight:normal;font-stretch:normal;font-size:30px;line-height:125%;font-family:'Space Age';-inkscape-font-specification:'Space Age, Normal';text-align:start;letter-spacing:0px;word-spacing:0px;writing-mode:lr-tb;text-anchor:start;fill:#000000;fill-opacity:1;stroke:none;stroke-width:1px;stroke-linecap:butt;stroke-linejoin:miter;stroke-opacity:1"
       id="flowRoot3381"
       xml:space="preserve"><flowRegion
         id="flowRegion3383"><rect
           style="font-style:normal;font-variant:normal;font-weight:normal;font-stretch:normal;font-size:30px;line-height:125%;font-family:'Space Age';-inkscape-font-specification:'Space Age, Normal';text-align:start;writing-mode:lr-tb;text-anchor:start"
           y="54.285713"
           x="-598.57141"
           height="238.57143"
           width="317.14285"
           id="rect3385" /></flowRegion><flowPara
         id="flowPara3387" /></flowRoot>    <flowRoot
       transform="translate(-825.91208,1217.5643)"
       style="font-style:normal;font-variant:normal;font-weight:normal;font-stretch:normal;font-size:30px;line-height:125%;font-family:'Space Age';-inkscape-font-specification:'Space Age';letter-spacing:0px;word-spacing:0px;fill:#000000;fill-opacity:1;stroke:none;stroke-width:1px;stroke-linecap:butt;stroke-linejoin:miter;stroke-opacity:1"
       id="flowRoot3393"
       xml:space="preserve"><flowRegion
         id="flowRegion3395"><rect
           style="font-style:normal;font-variant:normal;font-weight:normal;font-stretch:normal;font-family:'Space Age';-inkscape-font-specification:'Space Age'"
           y="22.857143"
           x="-487.14285"
           height="224.28572"
           width="337.14285"
           id="rect3397" /></flowRegion><flowPara
         id="flowPara3399" /></flowRoot>    <flowRoot
       transform="translate(-825.91208,1217.5643)"
       style="font-style:normal;font-variant:normal;font-weight:normal;font-stretch:normal;font-size:70px;line-height:125%;font-family:'Space Age';-inkscape-font-specification:'Space Age';letter-spacing:0px;word-spacing:0px;fill:#000000;fill-opacity:1;stroke:none;stroke-width:1px;stroke-linecap:butt;stroke-linejoin:miter;stroke-opacity:1"
       id="flowRoot3401"
       xml:space="preserve"><flowRegion
         id="flowRegion3403"><rect
           style="font-style:normal;font-variant:normal;font-weight:normal;font-stretch:normal;font-size:70px;font-family:'Space Age';-inkscape-font-specification:'Space Age'"
           y="-2.8571429"
           x="-741.42859"
           height="304.28571"
           width="40"
           id="rect3405" /></flowRegion><flowPara
         id="flowPara3407" /></flowRoot>    <text
       id="text4216"
       y="954.54675"
       x="1366.0352"
       style="font-style:normal;font-variant:normal;font-weight:normal;font-stretch:normal;font-size:80px;line-height:125%;font-family:'DejaVu Sans';-inkscape-font-specification:'DejaVu Sans';letter-spacing:0px;word-spacing:0px;fill:#000000;fill-opacity:1;stroke:none;stroke-width:1px;stroke-linecap:butt;stroke-linejoin:miter;stroke-opacity:1"
       xml:space="preserve"><tspan
         style="font-style:normal;font-variant:normal;font-weight:normal;font-stretch:normal;font-size:27.5px;line-height:125%;font-family:'Playfair Display';-inkscape-font-specification:'Playfair Display, Normal';text-align:start;writing-mode:lr-tb;text-anchor:start"
         y="954.54675"
         x="1366.0352"
         id="tspan4218" /></text>
    <g
       id="text4439"
       style="font-style:normal;font-variant:normal;font-weight:normal;font-stretch:normal;font-size:119.31768799px;line-height:125%;font-family:'DejaVu Sans';-inkscape-font-specification:'DejaVu Sans';text-align:center;letter-spacing:0px;word-spacing:0px;text-anchor:middle;fill:#000000;fill-opacity:1;stroke:none;stroke-width:1px;stroke-linecap:butt;stroke-linejoin:miter;stroke-opacity:1" />
    <path
       id="rect4443"
       d="m 173.32526,235.71823 0,199.84662 499.84767,0 0,-199.84662 -499.84767,0 z m 5.55123,5.55124 488.74521,0 0,188.74415 -488.74521,0 0,-188.74415 z"
       style="opacity:1;fill:#ffffff;fill-opacity:1;fill-rule:evenodd;stroke:#ffffff;stroke-width:0.15234146;stroke-linecap:round;stroke-linejoin:bevel;stroke-miterlimit:4;stroke-dasharray:none;stroke-opacity:1" />
    <path
       id="path4239"
       style="font-style:normal;font-variant:normal;font-weight:normal;font-stretch:normal;font-size:136.36306763px;line-height:125%;font-family:'Unica One';-inkscape-font-specification:'Unica One, Normal';text-align:center;letter-spacing:6.55906296px;word-spacing:0px;writing-mode:lr-tb;text-anchor:middle;fill:#ffffff;fill-opacity:1;stroke:none;stroke-width:1px;stroke-linecap:butt;stroke-linejoin:miter;stroke-opacity:1"
       d="m 279.57443,386.25273 -44.69694,0 0,-98.48478 43.18179,0 0,9.0909 -32.57574,0 0,34.84847 26.51514,0 0,9.0909 -26.51514,0 0,36.36361 34.09089,0 0,9.0909 z" />
    <path
       id="path4241"
       style="font-style:normal;font-variant:normal;font-weight:normal;font-stretch:normal;font-size:136.36306763px;line-height:125%;font-family:'Unica One';-inkscape-font-specification:'Unica One, Normal';text-align:center;letter-spacing:6.55906296px;word-spacing:0px;writing-mode:lr-tb;text-anchor:middle;fill:#ffffff;fill-opacity:1;stroke:none;stroke-width:1px;stroke-linecap:butt;stroke-linejoin:miter;stroke-opacity:1"
       d="m 320.24296,386.25273 -10.60605,0 0,-98.48478 4.54545,0 3.78788,9.69697 q 3.18181,-5.45455 8.33332,-8.63636 5.15151,-3.33334 11.21211,-3.33334 15.30302,0 19.54545,11.06061 7.27271,-11.06061 19.09089,-11.06061 21.36363,0 21.36363,21.21211 l 0,79.5454 -10.60606,0 0,-79.5454 q 0,-12.1212 -10.90908,-12.1212 -6.36364,0 -11.81818,5.15151 -5.30303,5.15152 -5.30303,9.99999 l 0,76.5151 -10.60605,0 0,-79.5454 q 0,-12.1212 -10.90908,-12.1212 -6.36363,0 -11.81817,5 -5.30303,4.84848 -5.30303,9.69695 l 0,76.96965 z" />
    <path
       id="path4243"
       style="font-style:normal;font-variant:normal;font-weight:normal;font-stretch:normal;font-size:136.36306763px;line-height:125%;font-family:'Unica One';-inkscape-font-specification:'Unica One, Normal';text-align:center;letter-spacing:6.55906296px;word-spacing:0px;writing-mode:lr-tb;text-anchor:middle;fill:#ffffff;fill-opacity:1;stroke:none;stroke-width:1px;stroke-linecap:butt;stroke-linejoin:miter;stroke-opacity:1"
       d="m 435.03548,386.25273 -10.60605,0 22.27271,-98.48478 15.90908,0 22.27271,98.48478 -10.60604,0 c -6.70484,-29.30097 -13.91167,-60.97068 -19.69696,-86.6666 -7.29886,31.81733 -12.69262,56.12313 -19.54545,86.6666 z" />
    <path
       id="path4245"
       style="font-style:normal;font-variant:normal;font-weight:normal;font-stretch:normal;font-size:136.36306763px;line-height:125%;font-family:'Unica One';-inkscape-font-specification:'Unica One, Normal';text-align:center;letter-spacing:6.55906296px;word-spacing:0px;writing-mode:lr-tb;text-anchor:middle;fill:#ffffff;fill-opacity:1;stroke:none;stroke-width:1px;stroke-linecap:butt;stroke-linejoin:miter;stroke-opacity:1"
       d="m 523.91659,386.25273 -10.60606,0 0,-98.48478 4.54545,0 3.78788,9.84848 q 7.27273,-12.12121 20.15151,-12.12121 22.27271,0 22.27271,21.21211 l 0,79.5454 -10.60605,0 0,-79.5454 q 0,-5.75756 -2.57576,-8.93939 -2.42425,-3.18181 -9.0909,-3.18181 -6.66667,0 -12.27272,5.15151 -5.60606,5.15152 -5.60606,9.99999 l 0,76.5151 z" />
    <path
       id="path4247"
       style="font-style:normal;font-variant:normal;font-weight:normal;font-stretch:normal;font-size:136.36306763px;line-height:125%;font-family:'Unica One';-inkscape-font-specification:'Unica One, Normal';text-align:center;letter-spacing:6.55906296px;word-spacing:0px;writing-mode:lr-tb;text-anchor:middle;fill:#ffffff;fill-opacity:1;stroke:none;stroke-width:1px;stroke-linecap:butt;stroke-linejoin:miter;stroke-opacity:1"
       d="m 627.67941,387.14286 c -4.18625,5.79218 -10.65824,14.85135 -10.65824,14.85135 0.0188,0.0249 -6.68242,-8.7716 -11.29015,-14.81177 7.54026,-0.004 14.77074,-0.004 21.94839,-0.0396 z m -23.42836,-1.86588 c -3.83928,-5.30344 -6.32078,-10.08484 -6.32078,-16.44848 l 0,-81.06055 33.33331,0 0,9.0909 -22.72726,0 0,72.57571 c 0,2.82829 0.70707,5.20202 2.12122,7.12122 1.51515,1.91918 3.58585,2.87877 6.21211,2.87877 2.72727,0 4.79797,-0.90909 6.21212,-2.72726 1.41414,-1.9192 2.12121,-4.34344 2.12121,-7.27273 l 0,-18.03028 10.60606,0 0,17.42422 c 0,6.36364 -3.33705,11.49548 -6.81406,16.45773 -10.05916,-0.002 -17.43419,0.02 -24.74393,-0.009 z" />
    <g
       transform="translate(0.76861,0)"
       id="g4185">
      <path
         style="font-style:normal;font-variant:normal;font-weight:normal;font-stretch:normal;font-size:medium;line-height:125%;font-family:'Walkway Bold';-inkscape-font-specification:'Walkway Bold, Normal';text-align:center;letter-spacing:2.87863588px;word-spacing:0px;writing-mode:lr-tb;text-anchor:middle;fill:#ffffff;fill-opacity:1;stroke:none;stroke-width:1px;stroke-linecap:butt;stroke-linejoin:miter;stroke-opacity:1"
         id="path4338"
         d="m 228.4397,391.17523 q -9.04169,0 -9.04169,-12.85064 l 0,-26.54199 q 0,-6.60548 -1.45834,-8.76727 -0.97223,-1.3211 -5.93058,-3.96328 l 0,-4.20349 q 2.52779,-1.32109 5.93058,-3.84319 1.45834,-2.16178 1.45834,-8.76726 l 0,-26.54199 q 0,-12.85064 9.04169,-12.85064 l 2.52779,0 0,5.76478 -2.43057,0 q -2.81945,0 -3.69445,3.00248 -0.48611,1.8015 -0.48611,6.96577 l 0,23.89981 q 0,7.92657 -2.1389,11.40944 -0.97223,1.5613 -3.30557,3.1226 2.43056,1.56129 3.30557,3.00249 2.1389,3.36278 2.1389,11.52954 l 0,23.77971 q 0,5.28437 0.48611,7.08587 0.875,3.00248 3.69445,3.00248 l 2.43057,0 0,5.76478 -2.52779,0 z" />
      <path
         style="font-style:normal;font-variant:normal;font-weight:normal;font-stretch:normal;font-size:medium;line-height:125%;font-family:'Walkway Bold';-inkscape-font-specification:'Walkway Bold, Normal';text-align:center;letter-spacing:2.87863588px;word-spacing:0px;writing-mode:lr-tb;text-anchor:middle;fill:#ffffff;fill-opacity:1;stroke:none;stroke-width:1px;stroke-linecap:butt;stroke-linejoin:miter;stroke-opacity:1"
         id="path4340"
         d="m 294.97504,343.01533 q -1.45834,2.16179 -1.45834,8.76727 l 0,26.54199 q 0,12.85064 -9.04171,12.85064 l -2.52778,0 0,-5.76478 2.43056,0 q 2.81946,0 3.69446,-3.00248 0.48611,-1.8015 0.48611,-7.08587 l 0,-23.77971 q 0,-8.16676 2.1389,-11.52954 0.875,-1.4412 3.30556,-3.00249 -2.33334,-1.5613 -3.30556,-3.1226 -2.1389,-3.48287 -2.1389,-11.40944 l 0,-23.89981 q 0,-5.16427 -0.48611,-6.96577 -0.875,-3.00248 -3.69446,-3.00248 l -2.43056,0 0,-5.76478 2.52778,0 q 9.04171,0 9.04171,12.85064 l 0,26.54199 q 0,7.32608 1.84722,9.12757 1.2639,1.32109 5.54169,3.48288 l 0,4.20349 q -2.52779,1.32109 -5.93057,3.96328 z" />
    </g>
    <g
       transform="matrix(1.111115,0,0,0.95591099,38.349525,-125.13309)"
       id="g4312">
      <path
         style="opacity:1;fill:#f3f3ee;fill-opacity:1;fill-rule:evenodd;stroke:none;stroke-width:2;stroke-linecap:round;stroke-linejoin:bevel;stroke-miterlimit:4;stroke-dasharray:none;stroke-opacity:1"
         d="m 366.96835,493.72078 c -0.16928,0 -0.30631,0.17307 -0.30631,0.38689 l 0,14.11921 1.31846,0 0,-14.11921 c 0,-0.21382 -0.13704,-0.38689 -0.30631,-0.38689 l -0.70584,0 z m -0.30631,26.40282 0,14.12132 c 0,0.21381 0.13703,0.38478 0.30631,0.38478 l 0.70584,0 c 0.16927,0 0.30631,-0.17097 0.30631,-0.38478 l 0,-14.12132 -1.31846,0 z"
         id="rect4665" />
      <path
         style="opacity:1;fill:#f3f3ee;fill-opacity:1;fill-rule:evenodd;stroke:none;stroke-width:2;stroke-linecap:round;stroke-linejoin:bevel;stroke-miterlimit:4;stroke-dasharray:none;stroke-opacity:1"
         d="m 381.0384,493.72078 c -0.16928,0 -0.30464,0.17307 -0.30464,0.38689 l 0,14.11921 1.31678,0 0,-14.11921 c 0,-0.21382 -0.13537,-0.38689 -0.30464,-0.38689 l -0.7075,0 z m -0.30464,26.40282 0,14.12132 c 0,0.21381 0.13536,0.38478 0.30464,0.38478 l 0.7075,0 c 0.16927,0 0.30464,-0.17097 0.30464,-0.38478 l 0,-14.12132 -1.31678,0 z"
         id="rect4663" />
      <path
         style="opacity:1;fill:#f3f3ee;fill-opacity:1;fill-rule:evenodd;stroke:none;stroke-width:2;stroke-linecap:round;stroke-linejoin:bevel;stroke-miterlimit:4;stroke-dasharray:none;stroke-opacity:1"
         d="m 374.22478,493.72078 c -0.16927,0 -0.3063,0.17307 -0.3063,0.38689 l 0,20.06757 1.31844,0 0,-20.06757 c 0,-0.21382 -0.13536,-0.38689 -0.30465,-0.38689 l -0.70749,0 z m -0.3063,32.35118 0,8.17296 c 0,0.21381 0.13703,0.38478 0.3063,0.38478 l 0.70749,0 c 0.16929,0 0.30465,-0.17097 0.30465,-0.38478 l 0,-8.17296 -1.31844,0 z"
         id="rect4589" />
      <rect
         ry="0.97607589"
         y="509.09433"
         x="365.09772"
         height="9.8927221"
         width="4.8108788"
         id="rect4734"
         style="opacity:1;fill:#f3f3ee;fill-opacity:1;fill-rule:evenodd;stroke:none;stroke-width:1.1882962;stroke-linecap:round;stroke-linejoin:bevel;stroke-miterlimit:4;stroke-dasharray:none;stroke-opacity:1" />
      <rect
         style="opacity:1;fill:#f3f3ee;fill-opacity:1;fill-rule:evenodd;stroke:none;stroke-width:1.1882962;stroke-linecap:round;stroke-linejoin:bevel;stroke-miterlimit:4;stroke-dasharray:none;stroke-opacity:1"
         id="rect4740"
         width="4.8108788"
         height="9.8927221"
         x="372.35455"
         y="515.04254"
         ry="0.97607589" />
      <rect
         ry="0.97607589"
         y="509.09433"
         x="379.16858"
         height="9.8927221"
         width="4.8108788"
         id="rect4746"
         style="opacity:1;fill:#f3f3ee;fill-opacity:1;fill-rule:evenodd;stroke:none;stroke-width:1.1882962;stroke-linecap:round;stroke-linejoin:bevel;stroke-miterlimit:4;stroke-dasharray:none;stroke-opacity:1" />
    </g>
  </g>
</svg>
